<svg width="27" height="27" viewBox="0 0 27 27" fill="none" xmlns="http://www.w3.org/2000/svg">
<path d="M10.9129 0C4.86764 0 0 4.87372 0 11.0052C0 17.058 4.86764 22.0104 10.9129 22.0104C16.9582 22.0104 21.9044 17.1366 21.9044 11.0052C21.9044 4.87372 16.9582 0 10.9129 0ZM10.9129 3.45877C15.074 3.45877 18.3714 6.83893 18.3714 10.9266C18.3714 15.0928 14.9955 18.3944 10.9129 18.3944C6.8304 18.3944 3.45445 15.0142 3.45445 10.9266C3.45445 6.83893 6.8304 3.45877 10.9129 3.45877Z" fill="#212331"/>
<path d="M10.9129 15.6431C10.5989 15.6431 10.2848 15.6431 9.97081 15.5644C9.49975 15.4858 9.18571 15.0142 9.26422 14.5425C9.34273 14.0709 9.81379 13.7565 10.2849 13.8351C10.9129 13.9923 11.541 13.9137 12.1691 13.5992C13.1897 13.1276 13.8178 12.1057 13.8178 11.0052C13.8178 10.5335 13.7393 10.1405 13.5038 9.74742C13.3467 9.43298 13.1897 9.19716 12.9542 8.96133C12.6402 8.6469 12.6402 8.09664 12.9542 7.7036C13.2682 7.38916 13.8178 7.38916 14.2104 7.7036C14.6029 8.09664 14.917 8.48968 15.1525 8.96133C15.4665 9.5902 15.6236 10.2977 15.6236 11.0052C15.6236 12.8131 14.6029 14.4639 13.0327 15.1714C12.3261 15.4858 11.6195 15.6431 10.9129 15.6431Z" fill="#212331"/>
<path d="M26.0653 26.2552C25.3587 26.9627 24.1811 26.9627 23.4745 26.2552L16.173 18.9446C15.4664 18.2372 15.4664 17.058 16.173 16.3506C16.8796 15.6431 18.0573 15.6431 18.7639 16.3506L26.0653 23.6611C26.7719 24.3686 26.7719 25.5477 26.0653 26.2552Z" fill="#212331"/>
</svg>
