<svg width="1153" height="298" viewBox="0 0 1153 298" fill="none" xmlns="http://www.w3.org/2000/svg">
<path d="M1110.5 297.592C1103.87 297.592 1098.5 292.219 1098.5 285.592L1098.5 250.991C1098.5 247.13 1101.63 244.001 1105.49 244.001C1131.23 244.001 1152.09 264.865 1152.09 290.602C1152.09 294.462 1148.96 297.592 1145.1 297.592L1110.5 297.592Z" fill="#06C3C6"/>
<path d="M882 12C882 5.37259 887.373 0 894 0L928.601 0C932.461 0 935.591 3.12959 935.591 6.99013C935.591 32.727 914.727 53.591 888.99 53.591C885.13 53.591 882 50.4614 882 46.6008V12Z" fill="#FAAA1E"/>
<rect x="6" y="195" width="42" height="42" rx="21" stroke="#493FC7" stroke-width="12"/>
</svg>
