<svg width="1600" height="1201" viewBox="0 0 1600 1201" fill="none" xmlns="http://www.w3.org/2000/svg">
<path d="M1110.48 -962.887C1268.75 -973.172 1443.02 -952.617 1604.77 -873.015C1766.53 -793.413 1915.13 -656.131 1963.59 -487.31C2013.41 -319.125 1963.17 -122.772 1903.65 67.9117C1844.12 258.596 1775.95 444.979 1646.62 574.916C1518.02 702.849 1328.9 775.703 1163.88 739.213C997.482 703.357 854.445 560.161 633.009 513.267C413.578 467.105 114.379 517.88 32.8864 417.641C-50.61 316.668 -80.8377 71.7822 6.49974 -123.5C93.8371 -318.782 298.006 -462.457 372.885 -577.088C449.767 -690.985 559.06 -781.67 685.169 -846.891C810.643 -913.48 952.201 -952.602 1110.48 -962.887Z" fill="#FFF7EB"/>
</svg>
