<svg fill="none" xmlns="http://www.w3.org/2000/svg" viewBox="0 0 20 16"><path fill-rule="evenodd" clip-rule="evenodd" d="M0 3a3 3 0 013.1-3H17A3 3 0 0120 3v10c0 .4-.4.8-.9.8H17a.8.8 0 01-.9-.8c0-.5.4-.9.9-.9h1.4v-9c0-.8-.7-1.4-1.4-1.4H3c-.7 0-1.4.6-1.4 1.3v9.1h1.4c.5 0 .9.4.9.9 0 .4-.4.8-.9.8H1A.8.8 0 010 13V3zm6.9 10c0-.5.3-.9.8-.9h4.6c.5 0 .8.4.8.9 0 .4-.3.8-.8.8H7.7A.8.8 0 017 13z" fill="#454754"/><path fill-rule="evenodd" clip-rule="evenodd" d="M5.4 11.6c-.8 0-1.4.6-1.4 1.4 0 .7.6 1.3 1.4 1.3.8 0 1.5-.6 1.5-1.3 0-.8-.7-1.4-1.5-1.4zM2.3 13a3 3 0 013.1-3 3 3 0 013.2 3 3 3 0 01-3.2 3 3 3 0 01-3.1-3zM14.6 11.6c-.8 0-1.5.6-1.5 1.4 0 .7.7 1.3 1.5 1.3S16 13.7 16 13c0-.8-.6-1.4-1.4-1.4zM11.4 13a3 3 0 013.2-3 3 3 0 013.1 3 3 3 0 01-3.1 3 3 3 0 01-3.2-3zM0 6.3c0-.4.4-.8.9-.8H19c.5 0 .9.4.9.8 0 .5-.4.9-.9.9H1a.8.8 0 01-.9-.9z" fill="#454754"/><path fill-rule="evenodd" clip-rule="evenodd" d="M13.4 0c.5 0 .9.4.9.8v5.5c0 .5-.4.9-.9.9a.8.8 0 01-.8-.9V.8c0-.4.4-.8.8-.8z" fill="#454754"/></svg>