<svg width="20" height="20" viewBox="0 0 20 20" fill="none" xmlns="http://www.w3.org/2000/svg">
<g clip-path="url(#clip0)">
<path fill-rule="evenodd" clip-rule="evenodd" d="M12.5566 0.63528C13.3032 0.217772 14.1445 -0.000975109 14.9999 5.53665e-06C15.7563 -0.00111997 16.503 0.169365 17.184 0.498624C17.8649 0.827883 18.4623 1.30734 18.9311 1.90088C19.3999 2.49443 19.7279 3.1866 19.8905 3.92528C20.0531 4.66396 20.0459 5.42989 19.8696 6.16542C19.6933 6.90095 19.3525 7.58689 18.8727 8.17161C18.3929 8.75633 17.7867 9.22458 17.0998 9.54111C16.4129 9.85764 15.6631 10.0142 14.9069 9.99899C14.1507 9.98379 13.4078 9.79722 12.7341 9.45334L9.99992 10L10.5466 7.26584C10.1575 6.50405 9.97059 5.6551 10.0038 4.80034C10.037 3.94559 10.2892 3.11368 10.7362 2.38437C11.1832 1.65506 11.81 1.05279 12.5566 0.63528ZM15.8333 5.83334H17.4999V4.16667H15.8333V2.50001H14.1666V4.16667H12.4999V5.83334H14.1666V7.5H15.8333V5.83334ZM10.1441 14.8225L12.0891 12.9059C12.2068 12.7886 12.3569 12.7092 12.5201 12.6778C12.6833 12.6465 12.8521 12.6647 13.0049 12.73L17.6633 14.73C17.847 14.8089 17.9962 14.9512 18.0837 15.131C18.1712 15.3107 18.1911 15.516 18.1399 15.7092L17.1716 19.3759C17.1242 19.5591 17.0159 19.7207 16.8644 19.8341C16.7129 19.9476 16.5274 20.0061 16.3383 20C12.0753 19.7684 8.04166 17.9963 4.98743 15.0134C2.00537 11.9602 0.233102 7.9282 -7.11987e-05 3.6667C-0.00605904 3.47746 0.0525759 3.29182 0.166179 3.14035C0.279781 2.98888 0.441579 2.88061 0.624929 2.83337L4.2916 1.8642C4.48436 1.81416 4.68867 1.8348 4.86752 1.9224C5.04638 2.00999 5.18795 2.15874 5.2666 2.3417L7.2666 7.00003C7.33171 7.15227 7.34999 7.32045 7.31912 7.48312C7.28825 7.64579 7.20962 7.79557 7.09326 7.91337L5.1766 9.85837C5.78907 10.8716 6.51241 11.8135 7.33326 12.6667C8.18631 13.4885 9.1292 14.2117 10.1441 14.8225Z" fill="#06C3C6"/>
</g>
<defs>
<clipPath id="clip0">
<rect width="20" height="20" fill="white"/>
</clipPath>
</defs>
</svg>
