<svg fill="none" xmlns="http://www.w3.org/2000/svg" viewBox="0 0 20 20"><g clip-path="url(#clip0)"><path fill-rule="evenodd" clip-rule="evenodd" d="M12.6.6a5 5 0 11.1 8.9L10 10l.5-2.7a5 5 0 012-6.7zm3.2 5.2h1.7V4.2h-1.7V2.5h-1.6v1.7h-1.7v1.6h1.7v1.7h1.6V5.8zm-5.7 9l2-1.9a.8.8 0 01.9-.2l4.7 2a.8.8 0 01.4 1l-1 3.7a.8.8 0 01-.8.6C12.1 19.8 8 18 5 15S.2 8 0 3.7a.8.8 0 01.6-.9l3.7-1a.8.8 0 011 .5l2 4.7A.8.8 0 017 8L5 9.8c.7 1 1.4 2 2.2 2.8.9.8 1.8 1.5 2.8 2.1z" fill="#06C3C6"/></g><defs><clipPath id="clip0"><path fill="#fff" d="M0 0h20v20H0z"/></clipPath></defs></svg>