<svg width="18" height="18" viewBox="0 0 18 18" fill="none" xmlns="http://www.w3.org/2000/svg">
<path fill-rule="evenodd" clip-rule="evenodd" d="M8.75 1.5C4.74594 1.5 1.5 4.74594 1.5 8.75C1.5 12.7541 4.74594 16 8.75 16C12.7541 16 16 12.7541 16 8.75C16 4.74594 12.7541 1.5 8.75 1.5ZM0 8.75C0 3.91751 3.91751 0 8.75 0C13.5825 0 17.5 3.91751 17.5 8.75C17.5 13.5825 13.5825 17.5 8.75 17.5C3.91751 17.5 0 13.5825 0 8.75Z" fill="#212331"/>
<path fill-rule="evenodd" clip-rule="evenodd" d="M7.7501 5C8.16431 5.00002 8.50009 5.33582 8.50007 5.75003L8.49992 8.99996H11.6628C12.077 8.99996 12.4128 9.33574 12.4128 9.74996C12.4128 10.1642 12.077 10.5 11.6628 10.5H7.74989C7.55097 10.5 7.3602 10.4209 7.21955 10.2803C7.07889 10.1396 6.99988 9.94884 6.99989 9.74992L7.00007 5.74997C7.00009 5.33575 7.33589 4.99998 7.7501 5Z" fill="#212331"/>
</svg>
