<svg xmlns="http://www.w3.org/2000/svg" fill="none" viewBox="0 0 524 399"><defs/><linearGradient id="a" x1="358" x2="358" y1="106.8" y2="160.5" gradientUnits="userSpaceOnUse"><stop offset="0" stop-color="#75798a"/><stop offset="1" stop-color="#a9acbc"/></linearGradient><rect width="190.5" height="190.5" x="68.5" fill="#e2f8f9" rx="12"/><rect width="59.5" height="59.5" x="270.9" fill="#493fc7" rx="12"/><rect width="53.6" height="53.6" x="401.9" y="71.5" fill="#faaa1e" rx="12"/><rect width="41.6" height="41.6" x="407.9" y="143" stroke="#06c3c6" stroke-width="12" rx="20.8"/><path fill="#e2f8f9" d="M271 202.5h53.5V256H271z"/><rect width="41.6" height="41.6" x="9" y="76.7" stroke="#faaa1e" stroke-width="12" rx="20.8"/><rect width="53.6" height="53.6" x="68.5" y="202.5" fill="#06c3c6" rx="12"/><path fill="#06c3c6" d="M342.4 12a12 12 0 0112-12h39.8c4.3 0 7.7 3.5 7.7 7.8a51.8 51.8 0 01-51.7 51.7 7.8 7.8 0 01-7.8-7.7z"/><path fill="#eeedfd" d="M56.6 244a12 12 0 01-12 12H10a7 7 0 01-7-7 46.6 46.6 0 0146.6-46.5 7 7 0 017 7zM479.4 190.5a12 12 0 01-12-12V144a7 7 0 017-7 46.6 46.6 0 0146.6 46.7 7 7 0 01-7 7z"/><rect width="119.1" height="119.1" x="270.9" y="71.5" fill="#eeedfd" rx="12"/><rect width="125" height="125" x="134" y="202.5" fill="#fff7eb" rx="12"/><path fill="#06c3c6" fill-rule="evenodd" d="M97.4 74.5h129.4v58.2a10 10 0 01-10 10H107.4a10 10 0 01-10-10z" clip-rule="evenodd" opacity=".2"/><path fill="#06c3c6" fill-rule="evenodd" d="M108.9 84.3h129.4v58.2a10 10 0 01-10 10H118.9a10 10 0 01-10-10z" clip-rule="evenodd" opacity=".1"/><path fill="#454754" fill-rule="evenodd" d="M238.9 39.3H88.8c-2 0-3.7 1.6-3.7 3.6v6.9h157.3v-6.9c0-2-1.6-3.6-3.7-3.6z" clip-rule="evenodd"/><path fill="#fff" d="M91 46.7a2.2 2.2 0 100-4.4 2.2 2.2 0 000 4.4z"/><path fill="#fff" d="M97 46.7a2.2 2.2 0 100-4.4 2.2 2.2 0 000 4.4z" opacity=".6"/><path fill="#fff" d="M103.1 46.7a2.2 2.2 0 100-4.4 2.2 2.2 0 000 4.4z" opacity=".2"/><path fill="#fff" fill-rule="evenodd" d="M85.3 49.9H242v72.6a10 10 0 01-10 10H95.3a10 10 0 01-10-10z" clip-rule="evenodd"/><path fill="#05b2ce" fill-rule="evenodd" d="M148.4 56.8H233v5h-84.7z" clip-rule="evenodd"/><path fill="#f0f1f4" fill-rule="evenodd" d="M148.8 65.5h17.7V68h-17.6zm22 0h17.6V68h-17.6zm22 0h17.8V68H193zm22.6 0h17.7V68h-17.7zM93.6 56.8h48.7V68H93.6zm57 22.7h52.8v5h-52.7zm0 8.5h52.8v2.5h-52.7zm0 4.6h52.8V95h-52.7zm0 5h52.8v2.5h-52.7zm0 4.7H186v2.4h-35.2z" clip-rule="evenodd"/><path fill="#493fc7" fill-rule="evenodd" d="M150.7 111.3H170v5h-19.3z" clip-rule="evenodd"/><path fill="#eead92" d="M105.2 103c1.5 0 2.8-1.1 2.8-2.6 0-1.4-1.3-2.6-2.8-2.6a2.7 2.7 0 00-2.8 2.6c0 1.5 1.3 2.7 2.8 2.7zM129.8 103c1.5 0 2.8-1.1 2.8-2.6 0-1.4-1.3-2.6-2.8-2.6a2.7 2.7 0 00-2.8 2.6c0 1.5 1.3 2.7 2.8 2.7z"/><path fill="#fcd6a9" fill-rule="evenodd" d="M117.3 113.7c-7 0-12.7-5.7-12.7-12.7v-9.3c0-6.6 5.8-12.3 12.7-12.3 6.8 0 12.4 5.6 12.4 12.3v9.3c0 7-5.6 12.7-12.4 12.7z" clip-rule="evenodd"/><path fill="#eead92" fill-rule="evenodd" d="M118.2 104.6h-1.4c-.3 0-.4 0-.4-.3V99c0-.2 0-.4.4-.4h1.4s.4.3.4.5v5.2c0 .2-.2.4-.4.4z" clip-rule="evenodd"/><path fill="#fff" fill-rule="evenodd" d="M121.5 106c0 2-1.5 3.7-3.6 3.7-2 .2-3.7-1.2-3.7-3.2z" clip-rule="evenodd"/><path fill="#3d3d3b" d="M111.2 101a1 1 0 100-2 1 1 0 000 2zM123.8 101a1 1 0 100-2 1 1 0 000 2z"/><path fill="#ee7d0f" fill-rule="evenodd" d="M108.6 95l4.4-.4v1.6l-4.4-.6zm17.5 0l-4.4-1.2v1.6h4.3V95zm4.4-7c0-1.5-1-2.4-1.7-3.3v-.6c0-1.2-.8-2.7-3-3.6-1.2-.5-3.6-1-4.8-1.2-2 0-2.4-1.2-.8-2.8-4.3.8-10.9 4.4-10.9 4.4-2 .8-3.1 2-3.1 3.2 0 0-2 1.7-2.2 3.9v11s2.4-1.7 2.9-3.5a31 31 0 000-8.2v-.8l-.4-1.2c1.2 2.2 5.7 3.7 10.9 3.7 4.6 0 8.4-1 10.2-2.5 0 0-.4 7 0 8.7.4 1.8 3 3.7 3 3.7V87.8z" clip-rule="evenodd"/><path fill="#e0e2eb" fill-rule="evenodd" d="M229.2 90.2c0 1.2 2.4 2.8 2 3.6-.2 1.2-1.2 2.7-1.9 3.7-.7.6-3.4-1.3-4.3-.9-1.2.4-1.5 1.6-2.7 1.6s-3.1 2.7-4.2 2.4c-1-.6 0-4.2-1-4.8-.7-1-4-.3-4.4-1.2-.5-1.3.2-3 .2-4.3 0-1.2-1.2-3.1-.6-4.2.5-1.2 3.6-.7 4.4-1.6.8-.8 1-2.6 2-3.1 1.2-.2 2.4 2.2 3.6 2.2s3.3-3.6 4.4-3.3c1.2.6 2.1 2.4 3 3.2.7.8 0 2.9.6 4 .3.8-.7 1.7-.7 3z" clip-rule="evenodd"/><path fill="#212331" fill-rule="evenodd" d="M234.4 87.4c0-.3-.4-.4-.7-.3 0 .3 0 0 .2 0s.4.3.2.6c0 .2-.2.5-.6.3-.4 0-.7-.4-.8-.8l-.6-2c-.5-1.1-1.5-1.6-2.8-1.1-.3 0-.6.2-.8.4a4.3 4.3 0 00-2.2-1.5c.4-1.5 0-2.4-1.4-2.8-.8 0-1.5-.2-2-.4s-.8-.4-1-.8c0-.4 0-.5.4-.6.3 0 .4 0 .5.2 0 0-.2 0 0 .3l.2-.3c0-.3 0-.5-.3-.6-.9-.2-1.2 0-1.2.9 0 .7.2 1.2.8 1.2l1.6.8c.6 0 .8.6.6 1.2 0 .5-.5.9-1 .9s-.7-.4-.7-.8c0-.2 0-.3.5-.6.5 0 .5.3.7.6 0-.7 0-1.2-.7-1.2-.9 0-1.6.5-1.8 1.2l-.3 1.7c-.3-.7-.8-1-1.2-1.2-.3 0-.6-.3-.6-.7 0-.2.4-.2.6-.4.3 0 .6 0 .8-.3.2-.4.3-.6.2-1-.2-.3-.5-.5-.8-.6-.5 0-.8 0-.8.4.4 0 .9 0 1 .3 0 .4-.4.5-.7.5h-.4c-.5 0-1 .3-1.2.6l-.4.6c0 .6.3 1.2.8 1.5.2 0 .3.5.2.7 0 .4-.4.6-.7.7-.4 0-.6 0-.7-.3-.4-.4-.4-.9 0-1.2 0-.5.6-1.9.6-1.9v-.8c-.3-.5-.9-.7-1.2-.5-.5.3-.5.6-.4 1 0 .3.4.3.7 0-.3 0-.6 0-.5-.4 0-.3 0-.5.3-.5s.5.3.5.6c0 .5-.3.9-.5 1.2-1.2.8-1.7 2-1.2 3.4v.4h-.4l-.2-.6c0-.7-.3-1.2-.9-1.6-.7-.3-1.8-.2-2.4.4-.5.5-.6 1.2-.4 1.8l.4.7c0 .3 0 .5-.2.5s-.5 0-.3-.2h-.5v.4c.6.3.9.3 1.2 0 .3-.4.3-1 0-1.2v-1c.4-.3.8-.5 1.3-.4.3 0 .3.5.4.8 0 .6-.2 1.2.3 1.8.2 0 .2.4 0 .6l-.4.6h-1.2c-1.2.6-1.8 1.5-1.2 2.8 0 .7.4 1.2.6 2 0 .4.2.8 0 1.3h-.8c0-.3-.3-.4 0-.6h.2c0-.3-.2-.3-.4-.3-.3 0-.3.4-.3.8 0 .7.7 1 1.2.6.7-.4.8-1 .7-1.6 0-.6-.2-1.2-.4-1.7 0-.6.3-1.2.9-1.2.5-.2.8 0 1.2.4.2.4 0 .8-.2 1.2h-.8c-.4-.4 0-.6 0-1-.6.2-.8.7-.4 1.2.3.8 1.2 1.2 2 .8.4-.3.8-.6 1.4-.8-.4.6-.3 1.2-.3 1.8 0 .3 0 .5-.3.6-.3.3-.4 0-.6-.2l-.8-.3c-.4 0-.7 0-.8.4-.3.5-.3.8 0 1.2 0 0 .3.4.7 0-.5 0-.7-.5-.5-.8.4-.3.7 0 1 .3v.3c.3.3.8.7 1.2.7h.8c.6-.4.9-.9.9-1.5 0-.2 0-.6.4-.6h.9s.2 0 .2.3v.7c-.2.5-.6.7-1.2.8l-1.8.4-.5.5c0 .5 0 1.2.4 1.2.3.4.7.2 1 0 .3-.5.2-.6-.3-.8.3.3.3.6 0 .7-.2 0-.5 0-.6-.3 0-.3 0-.6.2-.7.3-.2.8-.2 1.3 0 1.2.4 2.4 0 3.6-1.2.2 0 .3.2.2.4l-.3.3c-.8.4-1 .9-.9 1.6 0 1 .9 1.8 1.7 2 .7 0 1.2 0 1.8-.7l.4-.6c.2 0 .5-.2.6 0 0 0 .2.4-.3.4h.3s0 .3.2.2c.3 0 .4 0 .4-.3 0-.4-.3-.8-.7-.8-.4 0-.6.4-1 .8 0 .2-.4.4-.7.4s-.8-.2-.9-.7c-.2-.3 0-.6.3-.8.4-.4 1.2-.5 1.2-1.2l.3-.5c.4 0 .6 0 1-.3l.5.4c.2.2.2.5 0 .7-.3.4-.5 0-.9 0 .3.6.8.8 1.2.5.9-.3 1.2-1.2.9-2l-.3-.6.5-.5s.4.5 1 .6c1.4.5 2.4-.3 3.6-1.5 0-.2.4-.5.7-.5s.5 0 .6.5c0 .3-.2.4-.4.5-.3 0-.4 0-.5-.5-.3.4 0 .6.2.8.4 0 .7 0 .9-.5.3-.4 0-1-.5-1.2h-.7l-1.7.8H228c-.2-.4-.5-.5-.5-.8 0-.5.4-.8.8-.9.2 0 .6 0 .8.3.4.4.7.7 1.2.6l.7-.3c.3-.3.4-.8.4-1.2v-.3c0-.4 0-.9.5-.9s.5.5.3 1c.4 0 .5-.4.5-.6a1 1 0 00-.6-.9c-.5 0-.8 0-1.2.3 0 .2 0 .6-.2.8 0 .3 0 .5-.4.6-.2 0-.5 0-.6-.3-.4-.5-.6-1.2-1.2-1.2l1.2-.4c1-.3 1.5-1.2 1.2-1.8 0-.9-.4-1-1.2-.9.5.3 1 .3.7.8 0 .2-.3.3-.6.2a.6.6 0 01-.6-.5v-.1c0-.5.3-1 .7-1.2.6 0 1.3 0 1.5.6.4.5.5 1.2.8 1.6 0 .6.6 1 1.2.8.8 0 1.2-.6.9-1.2z" clip-rule="evenodd"/><ellipse fill="#f0f1f4" rx="96.4" ry="6.4" transform="matrix(-1 0 0 1 310.2 392.3)"/><path fill="#06c3c6" d="M339.4 305.6l-8.2 82.5-9.8 4.5v-87z"/><path fill="#454754" d="M356.6 392.6h-34.4c-.8 0-1-.8-.5-1.5l4.7-4a20 20 0 0126.2 0l4.8 4c.5.6.2 1.5-.6 1.5z"/><path fill="#06c3c6" d="M281 305.6l8.2 82.5 9.8 4.5v-87z"/><path fill="#454754" d="M263.7 392.6H298c.8 0 1.2-.8.6-1.5l-4.7-4a20 20 0 00-26.2 0l-4.6 4c-.8.6-.3 1.5.4 1.5z"/><path fill="#fdd7aa" d="M234.6 199.8l-7.5 6.5c-1.6 1.3-3.9 1.2-5-.3l-.7-.7a3.5 3.5 0 01.3-5l7.6-6.6c1.6-1.4 3.8-1.2 5 .3l.7.7a3.6 3.6 0 01-.4 5z"/><path fill="#fdd7aa" d="M216.6 192.7l9.3 6.3c1.6 1.3 2 3.5 1 5.1l-.5.8a3.7 3.7 0 01-5.1.9l-9.3-6.3c-1.6-1.1-2.1-3.2-1-4.9l.5-.8c1-1.6 3.3-2 5-1z"/><path fill="#fdd7aa" d="M220.7 185.9l6.2 9.8c1 1.8.6 4-1.1 5l-.7.5c-1.6 1-3.9.5-4.9-1.1l-6.3-9.8c-1-1.7-.6-3.9 1-5l.9-.4c1.6-1 3.8-.6 4.9 1z"/><path fill="#fdd7aa" d="M224.6 171.1L233 197c.6 1.9-.4 4-2.3 4.5l-.8.3c-2 .6-3.9-.5-4.5-2.3l-8.5-25.7c-.5-1.8.4-3.9 2.3-4.5l.8-.3c2-.6 4 .4 4.6 2.3z"/><path fill="#e0b990" d="M222.1 193.8l7.6-6.6c1 2.3 6.8 4.8 5.3 6.1l-7.6 6.6c-1.6 1.3-3.7 1.2-5-.3l-.6-.6a3.7 3.7 0 01.3-5.2z"/><path fill="#f9f9fb" d="M238.9 200.8l-1.4-4.9-20 11 2.9 3.6 18.5-9.6z"/><path fill="#fff" d="M270.4 218.4l-21.7 9.8-9.4-27.9-20.7 9.7 19.6 37.8a8.9 8.9 0 004.1 3.9c2 .6 4.1.3 5.8-1l23.9-20.3-1.7-12z"/><path fill="#e2f8f9" d="M335.7 202l-28.6-5.3-22.6 5.3 20 46.4 13.9-.8 17.2-45.6z"/><path fill="#06c3c6" d="M301.2 204.7l9.3 1.2 9.2-.9-6.2 5.8 4 24.4-7 11.4-7.2-11.4 4.1-24.4-6.1-6z"/><path fill="#fff" d="M307.7 317.2s0 4.7 5 4.3c4.9-.4 39.2-.8 39.2-.8V213.4c0-2.2-.8-4.3-2.4-5.9l-12.3-13.4-28 46.6-1.4 76.6z"/><path fill="#e0e2eb" d="M336.6 207.2l12.9-2.2-11.2-12.2-29.1 48 33-29.4-5.5-4.1z"/><path fill="#f9f9fb" d="M307.9 317.6c0 1.8-1.4 3.3-3.3 3.3-4.2.2-34.8 0-34.8 0l-1-101.7c0-4.7 2-9.2 5.3-12.4l11.7-11.6c1.2-1.1 23.3 45.6 23.3 45.6l-1.3 76.8z"/><path fill="#e0e2eb" d="M309.2 240.8L276.9 205l8.1-6.3-6.3-2.2 5.9-5.8 24.5 50.1z"/><circle r="3" fill="#e0e2eb" transform="matrix(-1 0 0 1 314 289)"/><circle r="3" fill="#e0e2eb" transform="matrix(-1 0 0 1 314 305.6)"/><path fill="#493fc7" d="M343.5 243.7l-34 14.7 20.3 46.8 34.2-14.7z"/><path fill="#3e388b" d="M364 290.7l1.6-.9-20.4-46.6-1.9.8 20.8 46.7z"/><path fill="#6b63d2" d="M326.8 267l-3.6-8.3c-.8-1.6 0-3.6 1.7-4.3h.1c1.7-.8 3.6 0 4.4 1.6l2.9 6.7c.8 1.7 2.7 2.5 4.3 1.7 1.7-.8 2.5-2.7 1.8-4.4-.8-1.6 0-3.6 1.7-4.4 1.6-.8 3.7 0 4.4 1.7l8.5 19.6c.8 1.6 0 3.5-1.6 4.3a3.4 3.4 0 00-1.8 4.4c.8 1.6 0 3.6-1.8 4.3-1.7.8-3.6 0-4.4-1.6l-3-6.8c-.8-1.7-2.7-2.5-4.3-1.7a3.4 3.4 0 00-1.8 4.4l3.6 8.2c.8 1.6 0 3.6-1.8 4.3-1.7.8-3.6 0-4.4-1.8l-8.5-19.4c-.8-1.6 0-3.7 1.7-4.4 1.8-.8 2.6-2.7 1.8-4.4z"/><path fill="#2d267d" d="M323.9 257l-9.2 4 16.8 38.7 9.3-4.1L324 257z"/><path fill="#fdd7aa" d="M345.2 287.4l4-18.4c.5-2 2.5-3.3 4.4-2.7 2 .4 3.3 2.4 2.7 4.3l-4.3 18.5c-.4 2-2.4 3.3-4.2 2.8-2-.5-3.3-2.5-2.7-4.4z"/><path fill="#fdd7aa" d="M335.3 283.6L346 269c1.2-1.6 3.5-2 5.1-.8a3.7 3.7 0 01.8 5.1l-10.6 14.6a3.8 3.8 0 01-5.2.8 3.7 3.7 0 01-.8-5z"/><path fill="#fdd7aa" d="M329.4 276.3l15.5-12.7c1.6-1.4 3.9-1.2 5 .4 1.3 1.6 1 3.8-.5 5L334 281.8a3.5 3.5 0 01-5.1-.5c-1.2-1.5-1-3.7.6-5z"/><path fill="#fdd7aa" d="M336.6 259.5l14.5 3.3c2 .5 3.1 2.5 2.7 4.4-.5 2-2.4 3.2-4.3 2.7l-14.5-3.5c-2-.4-3.1-2.4-2.7-4.2.5-2 2.5-3.3 4.3-2.7z"/><path fill="#f9f9fb" d="M356.6 275.4l-3 2.2-9-17.8 3-2 9.1 17.7z"/><path fill="#fff" d="M352 231.4l13.6 11.3-18.8 14.1 10.1 19.7c14-7.8 29.5-32 29.5-32a7 7 0 00-2.8-8.4l-32-20 .3 15.2z"/><path stroke="#454754" stroke-width="3" d="M332.4 234.5s24.8-43.7-20.4-44.5c-45.5-1-24.4 38.1-24.4 38.1"/><circle r="5.3" fill="#a9acbc" stroke="#454754" stroke-width="3" transform="matrix(-1 0 0 1 332 237.2)"/><path fill="#454754" d="M301 246.8l-.6-1.6 2.7-.9-3.3-10a9 9 0 00-11.4-5.6 8.8 8.8 0 00-5.5 11.1l3.3 10 2.7-.8.5 1.7-4.4 1.6-4-11.8a10.8 10.8 0 016.9-13.7 11 11 0 0113.8 6.9l4 11.7-4.5 1.5z"/><path fill="#06c3c6" fill-rule="evenodd" d="M300.7 244l-2 .8a1.8 1.8 0 001 3.4l2-.6zm-13.1 4.4l2-.6a1.8 1.8 0 012.3 1.1c.3 1-.2 2-1.1 2.3l-2 .7z" clip-rule="evenodd"/><path fill="#75798a" d="M286.7 230.3l3-1.1c.6-.2.8-1 .6-1.6l-.2-.9c-.2-.6-.8-1-1.6-.8l-2.8 1.2c-.7.1-1 .8-.8 1.4l.4.9c.2.8.8 1 1.6.8z"/><path fill="#75798a" fill-rule="evenodd" d="M350.5 107c3.1 6 5 13 5 20.4v32.4a19.7 19.7 0 007.7-37.3c.3-1.2.6-2.3.6-3.5 0-6.8-5.5-12.3-12.3-12.3zm-79 0c-3.2 6-5 13-5 20.4v32.4a19.7 19.7 0 01-7.8-37.3c-.2-1.2-.5-2.3-.5-3.5 0-6.8 5.6-12.3 12.2-12.3z" clip-rule="evenodd"/><ellipse fill="#edad91" rx="10.2" ry="9.7" transform="matrix(-1 0 0 1 356.2 159.9)"/><ellipse fill="#edad91" rx="10.2" ry="9.7" transform="matrix(-1 0 0 1 265.2 159.9)"/><path fill="#fdd7aa" d="M311 205.8a45 45 0 0045.8-45v-33.3a45.7 45.7 0 10-91.7.2V161A45 45 0 00311 206z"/><path fill="url(#a)" fill-rule="evenodd" d="M351.5 160.5l5.2-2L358 112c0-2.9-3-5.3-6.5-5.3zm-81.1 0l-5.3-2L264 112c0-2.9 3-5.3 6.4-5.3z" clip-rule="evenodd"/><path fill="#a9acbc" d="M282.7 179a74.3 74.3 0 0118-4.5h17.6c.2 0 12.3.5 20.8 4.4 5.4-22.9 17.6-22.9 17.6-22.9v10.7c0 22-17.7 39.8-39.8 39.8h-12a39.7 39.7 0 01-39.7-39.8V156s12.3-.1 17.5 22.7z"/><path fill="#edad91" d="M306 171.6h9.9c1.2 0 2.1-1 2.1-2.2l-3.1-13.7c0-1.1-1-2-2.1-2H309c-1.2 0-2.2 1-2.2 2l-3.2 13.8c0 1.2 1 2.1 2.2 2.1z"/><path fill="#fff" d="M299.4 181.6c0 6 5.2 10.9 11.5 10.9 6.5 0 11.6-5 11.6-11z"/><circle r="3.4" fill="#212331" transform="matrix(-1 0 0 1 334.2 157.1)"/><circle r="3.4" fill="#212331" transform="matrix(-1 0 0 1 288.4 157.1)"/><path fill="#75798a" fill-rule="evenodd" d="M324.9 126.6l16.1 1.3h-.2v2l-15.8 2.4zm-27.9 1.6l-16 .2v2l15.5 3.5z" clip-rule="evenodd"/><circle r="16.5" fill="#fff" opacity=".3" transform="matrix(-1 0 0 1 333.8 157.1)"/><path fill="#fff" fill-rule="evenodd" d="M343.5 147.4c-2.5-2.5-5.9-4-9.7-4a.8.8 0 100 1.6 12 12 0 018.5 3.6.8.8 0 101.2-1.2zm-19.3 18.2c-.4.3-.4.8 0 1.1 2.4 2.5 5.9 4 9.6 4a.8.8 0 000-1.6 12 12 0 01-8.5-3.5.8.8 0 00-1.1 0z" clip-rule="evenodd"/><circle r="16.5" fill="#fff" opacity=".3" transform="matrix(-1 0 0 1 288 157.1)"/><g fill-rule="evenodd" clip-rule="evenodd"><path fill="#fff" d="M297.6 147.4c-2.4-2.5-5.8-4-9.6-4a.8.8 0 100 1.6 12 12 0 018.5 3.6.8.8 0 101.1-1.2zm-19.3 18.2c-.3.3-.3.8 0 1.1 2.5 2.5 5.9 4 9.7 4a.8.8 0 000-1.6 12 12 0 01-8.5-3.5.8.8 0 00-1.2 0z"/><path fill="#454754" d="M270.6 146.3c7.3-8.4 20-12.3 29.4-4.6 1.3 1.1 2.4 2.3 3.5 3.6l2.8 3c1.3 1.3 3 1.1 4.9 1h1.5c2.2 0 3.6-1.7 5-3.3l1-1.3a19.6 19.6 0 0125.8-4l2.4 1.7c1.2 1 2.4 1.9 3.4 3 1.8 1.6 3.3 2.7 5.6 3.2l.9.2c.5 0 .8.1 1.1.8.2.8.1 2 0 2.9v1.2c-1.6 0-3 .2-3.8 1.6-.6.8-.8 2.3-1 3.3v.2a34 34 0 01-1.8 5.5c-2 4.6-6 8.4-11 10.1-9.8 3.6-20-1.6-24.2-10.9-.7-1.5-1.1-3-1.6-4.7l-.3-1-.2-.7c-.3-1.5-.6-3.1-2.3-3.4-2.9-.8-3.8 2.6-4.4 5.2l-.5 1.7c-3 9.5-11.3 16.2-21.3 14.7-5.8-.8-10.7-4-13.7-9a26 26 0 01-2.6-7.3l-.7-2.9c-.8-2-2-2.4-4-2.4l-.2-1c-.1-1.4-.3-3.3.1-3.8l1.5-.2h.7c1.5-.4 3.1-1 4.1-2.3zm63.3 26.7a17 17 0 0015.6-10.8 17 17 0 00-5.2-18.4c-11.7-9.5-29.4 1-26.6 15.6A16.6 16.6 0 00334 173zm-30.4-10.8A16.6 16.6 0 01288 173h-.2c-7.8 0-14.7-5.7-16.1-13.6-2.7-14.6 14.9-25.1 26.5-15.6a16.8 16.8 0 015.2 18.4z"/><path fill="#e2f8f9" d="M229.2 160.7a10.9 10.9 0 00-13 8.7 11 11 0 008.7 13 11 11 0 0012.8-9 11 11 0 00-8.7-12.9" opacity=".8"/><path fill="#f9f9fb" d="M215.7 179.8l-6.2 32.4a9.6 9.6 0 007.5 11c5.2 1 10-2.2 11-7.4l6.3-32.4-18.5-3.4z"/><path fill="#1d1c1b" d="M217 181.9l-2.6 13.1c-.2 1.6.8 3.1 2.4 3.4l9.5 1.9c1.6.2 3.2-.7 3.3-2.4l2.6-13.1z"/><path fill="#c6c6c5" d="M225 180.6c-4.8-1-8.2-5.8-7.3-10.9a9.4 9.4 0 0111-7.1 9.2 9.2 0 01-3.5 18zm4.8-24.1a15.4 15.4 0 00-17.9 12.1c-1.4 8.3 4 16.3 12.2 18 8.3 1.4 16.3-4 17.9-12.2a15.3 15.3 0 00-12.2-18z"/><path fill="#d9d9d9" d="M225.3 193a2.6 2.6 0 01-3 2c-1.4-.3-2.3-1.6-2-3 .2-1.4 1.6-2.2 3-2 1.4.2 2.3 1.6 2 3.1"/><path fill="#878786" d="M229.6 190.3c0 1-.9 1.5-1.7 1.4-1-.4-1.7-1.1-1.4-2 0-1 1-1.5 2-1.3.7 0 1.3 1 1.1 2zm-9-1.8c-.2 1-1 1.6-1.8 1.4-1.2-.2-1.7-1-1.5-1.7.2-1.2 1-1.6 2-1.5.7.3 1.4 1 1.2 2zm7.8 8.6c-.1.9-1 1.5-2 1.3-.8-.3-1.4-1-1.3-2 .3-.8 1-1.4 2-1.3.8.4 1.5 1.1 1.3 2zm-9.2-1.7c0 .8-1 1.4-1.9 1.2-1 0-1.5-.8-1.3-1.7.1-.9 1-1.5 1.8-1.4 1.1.2 1.6 1.1 1.4 2"/></g><path fill="#fdd7aa" d="M235.6 196.3L228 203c-1.6 1.4-3.9 1.2-5.2-.3l-.5-.7a3.6 3.6 0 01.3-5l7.7-6.6a3.6 3.6 0 015 .3l.6.7a3.6 3.6 0 01-.4 5z"/></svg>