<svg fill="none" xmlns="http://www.w3.org/2000/svg" viewBox="0 0 128 128"><mask id="a" maskUnits="userSpaceOnUse" x="0" y="0" width="128" height="128"><circle cx="64" cy="64" r="64" fill="#E0E2EB"/></mask><g mask="url(#a)"><path d="M35.5 53s-5.1-15.6 7.7-21.8C56 25.1 89.4 31 89.4 31s4 22-.2 24.8c-4.1 3-53.7-2.7-53.7-2.7z" fill="#A9ACBC"/><path d="M43 61.7c1-4.2-1.5-8.4-5.7-9.4a7.8 7.8 0 10-3.6 15.2c4.2 1 8.4-1.6 9.4-5.8zM96.7 67c4-1.5 6-6.1 4.3-10a7.9 7.9 0 00-10.2-4.3c-4 1.6-6 6.2-4.3 10.2 1.6 4 6.2 5.8 10.2 4.2zM74.7 88.2l-1.3-17.3-13.6 1.8L57.6 98c4.5-.5 11.8-2.6 17.1-9.8z" fill="#E0E2EB"/><path d="M85.6 68.2c-.8 1.6-1.2 3.4-2 5a9.6 9.6 0 01-12.4 4c-1.3-.7-2.5-1.6-3.9-1.8-1.3-.3-2.7.1-3.7 1-.9.7-1.4 1.7-2.4 2.3-.7.4-1.5.5-2.3.5-4.1 0-7.6-1.9-10-5.2-2-3-3.4-6.5-6-9.1a22.3 22.3 0 00-5-3.5l.2.6c.9 8.1 4.8 15.3 12.3 19.2A32 32 0 0076 83.3c6.1-2.5 11-7 13.4-13 .9-2.4 1.5-4.8 1.9-7.4a9.9 9.9 0 00-5.8 5.3z" fill="#E0E2EB"/><path d="M92 47c-1.5-27.6-24.2-27.2-24.2-27.2s-30.3-2.3-30.2 32.7c-.2 3.9 0 5.2.4 8.9 1.7 1 3.5 2 4.9 3.5 3.7 3.8 5 9.7 9.5 12.6 1.9 1.1 4 1.6 6.2 1.7 1 0 2.1 0 3-.7.6-.5 1-1.2 1.6-1.8 1-1.1 2.8-1.6 4.3-1.3 1.3.3 2.5 1.2 3.7 1.8a9.5 9.5 0 0012.3-4c1-1.6 1.3-3.4 2-5a9.7 9.7 0 015.9-5.3c.8-5.2.8-10.9.5-15.9z" fill="#E0E2EB"/><path d="M14 151s9.8-49 52.2-49c42.3 0 47.8 49 47.8 49H14z" fill="#A9ACBC"/><path d="M57.6 98l-1 11.2s.5-.3 9.5.8c9.1 1 9.8-7 9.8-7l-1.2-14.8A24.6 24.6 0 0157.6 98z" fill="#E0E2EB"/><path d="M91 51.7c-3.7-1-6.6-20.4-12.9-20.8-6.3-.3-26.7 19.4-38 10.5-11.3-9-9-20.2-7-21 2.2-.9 3 4.6 3 4.6s-.6-6 1.9-6.5c2.4-.4 2.7 5.3 2.7 5.3s-1.4-7 2.6-7c4-.2 1.8 6.7 1.8 6.7s26.5-16.3 34.4-3.7c16.7 3.4 15.3 33 11.5 32z" fill="#A9ACBC"/><path d="M79.1 20.7s1-5.5 2.4-5.7c1.4-.2-1.2 5-1.2 5s2.4-3 3-2.2c.8 1-3 3.6-4.2 2.9z" fill="#A9ACBC"/><path d="M57.2 102l9 8-5 9.7s-8.7-6.8-8.3-15.9c4.9-8 4.6-5.3 4.6-5.3l-.3 3.5zM75.7 102l-9.5 8 5.5 9.7s8.7-6.8 8.3-15.9c-4.9-8-4.6-5.3-4.6-5.3l.3 3.5z" fill="#75798A"/></g></svg>