<svg fill="none" xmlns="http://www.w3.org/2000/svg" viewBox="0 0 128 128"><mask id="a" maskUnits="userSpaceOnUse" x="0" y="0" width="128" height="128"><circle cx="64" cy="64" r="64" fill="#E0E2EB"/></mask><g mask="url(#a)"><path d="M14 149.5s9.8-47.7 52.2-47.7c42.3 0 47.8 47.7 47.8 47.7H14z" fill="#A9ACBC"/><path d="M55.8 102.7s-9 9.3-1.5 15.9c7.2 6.3 11.6-3.2 11.6-3.2s0 5.9 7 5.4c7-.4 10.7-9 8-16.8-9.9-5.1-25-1.3-25-1.3z" fill="#75798A"/><path d="M35.4 77.7c4.3 0 7.8-3.4 7.8-7.7a7.8 7.8 0 00-15.6 0c0 4.3 3.5 7.7 7.8 7.7zM93.4 77.7c4.4 0 7.9-3.4 7.9-7.7 0-4.3-3.5-7.8-7.9-7.8a7.8 7.8 0 00-7.8 7.8c0 4.3 3.5 7.7 7.8 7.7z" fill="#E0E2EB"/><path d="M37.6 62.6c-.3 4.1-.1 5.3.4 9.4.9 8.2 4.8 15.3 12.2 19.2 7.5 4 17.7 5.4 25.6 2.1 6.2-2.5 11-7 13.4-13A57 57 0 0091.6 57c-1.4-27.5-24-27.1-24-27.1s-30.1-2.3-30 32.6z" fill="#E0E2EB"/><path d="M57 90.4l-1 20s.4 3.2 9.7 3.8c9.2.6 10.3-4.8 10.3-4.8l-1.5-20c-5.5 4.2-13 .7-17.5 1z" fill="#E0E2EB"/><path d="M36.3 71.6c.4-.5-9.4-43 29.4-43.2 37 0 26.8 38 26.8 38s-16-9.7-18-25.2c.1.8-1.3 2.6-1.7 3.3l-2.3 3A48.7 48.7 0 0151 61.1c-2.8 1-5.7 1.5-8.4 2.8a12.7 12.7 0 00-6.3 7.7z" fill="#A9ACBC"/><path d="M74 33s-5.8-13.7 7-17.4c12.7-3.6 20.3 9.2 5.1 21.6C81.7 32.6 74 33 74 33z" fill="#A9ACBC"/></g></svg>