<svg fill="none" height="399" viewBox="0 0 524 399" width="524" xmlns="http://www.w3.org/2000/svg" xmlns:xlink="http://www.w3.org/1999/xlink"><linearGradient id="a" gradientUnits="userSpaceOnUse" x1="358.04" x2="358.04" y1="106.75" y2="160.542"><stop offset="0" stop-color="#75798a"/><stop offset="1" stop-color="#a9acbc"/></linearGradient><rect fill="#e2f8f9" height="190.545" rx="12" width="190.545" x="68.4773"/><rect fill="#493fc7" height="59.5454" rx="12" width="59.5455" x="270.932"/><rect fill="#faaa1e" height="53.5909" rx="12" width="53.5909" x="401.932" y="71.4545"/><rect height="41.5909" rx="20.7955" stroke="#06c3c6" stroke-width="12" width="41.5909" x="407.932" y="142.955"/><path d="m270.932 202.455h53.5909v53.5909h-53.5909z" fill="#e2f8f9"/><rect height="41.5909" rx="20.7954" stroke="#faaa1e" stroke-width="12" width="41.5909" x="8.97729" y="76.7102"/><rect fill="#06c3c6" height="53.5909" rx="12" width="53.5909" x="68.4773" y="202.455"/><path d="m342.386 12c0-6.62741 5.373-12 12-12h39.779c4.289 0 7.767 3.47732 7.767 7.7668 0 28.5965-23.182 51.7786-51.779 51.7786-4.289 0-7.767-3.4773-7.767-7.7668z" fill="#06c3c6"/><path d="m56.5682 244.045c0 6.628-5.3725 12-12 12h-34.60077c-3.86054 0-6.99012-3.129-6.99012-6.99 0-25.737 20.86389-46.6 46.60079-46.6 3.8606 0 6.9901 3.129 6.9901 6.99z" fill="#eeedfd"/><path d="m479.432 190.545c-6.628 0-12-5.372-12-12v-34.6c0-3.861 3.129-6.99 6.99-6.99 25.737 0 46.601 20.863 46.601 46.6 0 3.861-3.13 6.99-6.99 6.99z" fill="#eeedfd"/><rect fill="#eeedfd" height="119.091" rx="12" width="119.091" x="270.932" y="71.4545"/><rect fill="#fff7eb" height="125.045" rx="12" width="125.045" x="133.977" y="202.455"/><path clip-rule="evenodd" d="m97.4313 74.5062h129.3627v58.1778c0 5.523-4.477 10-10 10h-109.363c-5.523 0-9.9997-4.477-9.9997-10z" fill="#06c3c6" fill-rule="evenodd" opacity=".2"/><path clip-rule="evenodd" d="m108.894 84.3312h129.362v58.1778c0 5.523-4.477 10-10 10h-109.362c-5.523 0-10-4.477-10-10z" fill="#06c3c6" fill-rule="evenodd" opacity=".1"/><path clip-rule="evenodd" d="m238.851 39.3h-150.0816c-2.051 0-3.6194 1.5684-3.6194 3.6193v6.8768h157.2v-6.8768c0-2.0509-1.568-3.6193-3.619-3.6193z" fill="#454754" fill-rule="evenodd"/><path d="m90.941 46.6593c1.1994 0 2.1716-.9722 2.1716-2.1716 0-1.1993-.9722-2.1716-2.1716-2.1716-1.1993 0-2.1716.9723-2.1716 2.1716 0 1.1994.9723 2.1716 2.1716 2.1716z" fill="#fff"/><path d="m97.094 46.6593c1.1993 0 2.1716-.9722 2.1716-2.1716 0-1.1993-.9723-2.1716-2.1716-2.1716-1.1994 0-2.1716.9723-2.1716 2.1716 0 1.1994.9722 2.1716 2.1716 2.1716z" fill="#fff" opacity=".6"/><path d="m103.126 46.6593c1.2 0 2.172-.9722 2.172-2.1716 0-1.1993-.972-2.1716-2.172-2.1716-1.199 0-2.171.9723-2.171 2.1716 0 1.1994.972 2.1716 2.171 2.1716z" fill="#fff" opacity=".2"/><path clip-rule="evenodd" d="m85.2518 49.8912h156.7832v72.5618c0 5.523-4.477 10-10 10h-136.7832c-5.5228 0-10-4.477-10-10z" fill="#fff" fill-rule="evenodd"/><path clip-rule="evenodd" d="m148.368 56.7935h84.692v5.067h-84.692z" fill="#05b2ce" fill-rule="evenodd"/><path clip-rule="evenodd" d="m148.85 65.4799h17.615v2.6542h-17.615zm21.958 0h17.614v2.6542h-17.614zm22.078 0h17.735v2.6542h-17.735zm22.56 0h17.614v2.6542h-17.614zm-121.8508-8.6864h48.7408v11.3406h-48.7408zm57.0648 22.6812h52.722v5.067h-52.722zm0 8.5657h52.722v2.4129h-52.722zm0 4.5845h52.722v2.4129h-52.722zm0 5.0671h52.722v2.413h-52.722zm0 4.585h35.228v2.412h-35.228z" fill="#f0f1f4" fill-rule="evenodd"/><path clip-rule="evenodd" d="m150.66 111.325h19.303v5.067h-19.303z" fill="#493fc7" fill-rule="evenodd"/><path d="m105.201 103.073c1.533 0 2.775-1.189 2.775-2.654 0-1.4663-1.242-2.6546-2.775-2.6546-1.532 0-2.775 1.1883-2.775 2.6546 0 1.465 1.243 2.654 2.775 2.654z" fill="#eead92"/><path d="m129.813 103.073c1.532 0 2.775-1.189 2.775-2.654 0-1.4663-1.243-2.6546-2.775-2.6546-1.533 0-2.775 1.1883-2.775 2.6546 0 1.465 1.242 2.654 2.775 2.654z" fill="#eead92"/><path clip-rule="evenodd" d="m117.266 113.69c-6.877 0-12.668-5.671-12.668-12.668v-9.2898c0-6.6355 5.791-12.3058 12.668-12.3058 6.876-.1206 12.426 5.5497 12.426 12.3058v9.2898c0 6.997-5.55 12.668-12.426 12.668z" fill="#fcd6a9" fill-rule="evenodd"/><path clip-rule="evenodd" d="m118.231 104.641h-1.448c-.241 0-.362 0-.362-.362v-5.1875c0-.2413 0-.3619.362-.3619h1.448s.362.2413.362.4826v5.1878c0 .241-.242.362-.362.362z" fill="#eead92" fill-rule="evenodd"/><path clip-rule="evenodd" d="m121.488 106.089c0 1.93-1.448 3.619-3.619 3.619-1.93.242-3.619-1.206-3.619-3.257z" fill="#fff" fill-rule="evenodd"/><path d="m111.233 101.022c.533 0 .966-.432.966-.965 0-.5334-.433-.9655-.966-.9655s-.965.4321-.965.9655c0 .533.432.965.965.965z" fill="#3d3d3b"/><path d="m123.78 101.022c.533 0 .965-.432.965-.965 0-.5334-.432-.9655-.965-.9655s-.965.4321-.965.9655c0 .533.432.965.965.965z" fill="#3d3d3b"/><path clip-rule="evenodd" d="m108.579 94.9896 4.464-.3619v1.5684l-4.464-.6033zm17.494 0-4.343-1.2064v1.5683h4.222v-.3619zm4.464-6.9974c0-1.4477-.966-2.4129-1.689-3.2574v-.6032c0-1.2065-.845-2.7748-3.017-3.6193-1.206-.4826-3.619-.9652-4.825-1.2065-1.931 0-2.413-1.2064-.845-2.7748-4.222.7238-10.858 4.3432-10.858 4.3432-2.051.8445-3.137 2.0509-3.137 3.2574 0 0-2.051 1.689-2.171 3.8606v11.0993s2.413-1.8096 2.895-3.6193c.483-1.2065.242-6.6355 0-8.2038v-.7239l-.362-1.2065c1.207 2.1716 5.671 3.6194 10.858 3.6194 4.585 0 8.445-.9652 10.255-2.4129 0 0-.482 6.9974 0 8.6864.362 1.8097 2.896 3.6193 2.896 3.6193v-11.0993z" fill="#ee7d0f" fill-rule="evenodd"/><path clip-rule="evenodd" d="m229.2 90.2121c0 1.2064 2.413 2.7748 2.051 3.6193-.242 1.2064-1.207 2.6542-1.931 3.6193-.723.6033-3.378-1.2064-4.343-.8445-1.206.362-1.448 1.5684-2.654 1.5684s-3.137 2.7744-4.223 2.4134c-.965-.6037 0-4.2231-.965-4.8263-.724-.9651-4.102-.2413-4.464-1.2064-.482-1.2065.242-3.0161.242-4.2226 0-1.2064-1.207-3.1368-.603-4.2226.482-1.2064 3.619-.7238 4.343-1.5683.844-.8446.965-2.6542 2.051-3.1368 1.206-.2413 2.413 2.1716 3.619 2.1716s3.257-3.6193 4.343-3.2574c1.207.6032 2.172 2.4129 3.016 3.1368.724.8445 0 2.8954.604 3.9812.362.8445-.724 1.8097-.724 3.0161z" fill="#e0e2eb" fill-rule="evenodd"/><path clip-rule="evenodd" d="m234.387 87.4372c0-.3619-.361-.4825-.723-.3619 0 .3619 0 0 .241 0s.362.3619.241.6032c0 .2413-.241.4826-.603.362-.483 0-.724-.4826-.845-.8445l-.603-1.9304c-.482-1.2064-1.448-1.689-2.775-1.2064-.362 0-.603.2413-.844.4826-.483-.7239-1.207-1.2065-2.172-1.5684.362-1.4477 0-2.4129-1.447-2.7748-.724 0-1.448-.2413-2.051-.362-.362-.2413-.724-.4826-.845-.8445 0-.3619 0-.4826.362-.6032.241 0 .362 0 .483.2413 0 0-.242 0 0 .2413l.241-.2413c0-.362 0-.4826-.362-.6032-.845-.2413-1.207 0-1.207.8445 0 .7238.242 1.2064.845 1.2064l1.568.8445c.604 0 .845.6032.604 1.2065 0 .4825-.483.8445-.966.8445-.482 0-.723-.3619-.723-.7239 0-.2413 0-.3619.482-.6032.483 0 .483.2413.724.6032 0-.7238 0-1.2064-.724-1.2064-.844 0-1.568.4826-1.81 1.2064l-.241 1.689c-.362-.7238-.844-.9651-1.206-1.2064-.362 0-.603-.3619-.603-.7239 0-.2413.361-.2413.603-.3619.241 0 .603 0 .724-.3619.241-.362.362-.6033.241-.9652-.241-.3619-.483-.4826-.845-.6032-.482 0-.723 0-.723.3619.361 0 .844 0 .965.362 0 .3619-.362.4825-.724.4825h-.362c-.483 0-.965.2413-1.207.6032l-.362.6033c0 .6032.242 1.2064.724 1.4477.242 0 .362.4826.242.7239 0 .3619-.362.6032-.724.7238-.362 0-.603.0001-.724-.3619-.362-.3619-.362-.8445 0-1.2064 0-.4826.603-1.8097.603-1.8097v-.8445c-.241-.4826-.844-.7239-1.206-.4826-.483.2413-.483.6032-.362.9652 0 .3619.362.3619.724 0-.362 0-.604 0-.483-.362 0-.3619 0-.4825.241-.4825.362 0 .483.2412.483.6032 0 .4826-.241.8445-.483 1.2064-1.206.7239-1.689 1.9303-1.206 3.3781v.3619h-.362c-.241-.2413-.241-.3619-.241-.6032 0-.7239-.242-1.2065-.845-1.5684-.724-.3619-1.81-.2413-2.413.3619-.482.4826-.603 1.2065-.362 1.8097l.362.7239c0 .2413 0 .4826-.241.4826s-.483-.0001-.241-.2413h-.483v.4825c.603.2413.845.2413 1.207 0 .241-.4825.241-.9651 0-1.2064v-.9652c.361-.3619.723-.6032 1.206-.4825.362 0 .362.4825.483.8445 0 .6032-.242 1.2064.241 1.8096.241 0 .241.362 0 .6033l-.362.6032h-1.207c-1.206.6032-1.809 1.4477-1.206 2.7748 0 .7239.362 1.2065.603 2.051 0 .3619.242.7238 0 1.2064h-.844c0-.2413-.242-.3619 0-.6032h.241c0-.2413-.241-.2413-.362-.2413-.362 0-.362.3619-.362.7239 0 .7238.724.9651 1.207.6032.723-.3619.844-.9652.723-1.5684 0-.6032-.241-1.2064-.361-1.689 0-.6032.241-1.2065.844-1.2065.483-.2412.845 0 1.206.362.242.4826 0 .8445-.241 1.2064h-.724c-.482-.3619 0-.6032 0-.9651-.603.2413-.844.7238-.482 1.2064.362.8445 1.206 1.2065 2.051.8445.362-.3619.844-.6032 1.447-.8445-.482.6032-.361 1.2065-.361 1.8097 0 .2413 0 .4826-.242.6032-.362.2413-.482 0-.603-.2413l-.845-.2413c-.361 0-.723 0-.844.362-.241.4825-.241.8445 0 1.2064 0 0 .362.3619.724 0-.483 0-.724-.4826-.483-.8445.362-.2413.724 0 .965.3619v.2413c.362.362.845.7239 1.207.7239h.844c.604-.3619.845-.8445.845-1.4477 0-.2413 0-.6033.482-.6033h.845s.241 0 .241.2413v.7239c-.241.4826-.603.7239-1.206.8445l-1.81.3619-.482.4826c0 .4826 0 1.2065.362 1.2065.361.3619.723.2412.965 0 .362-.4826.241-.6033-.242-.8446.242.362.242.6033 0 .7239-.241 0-.482 0-.603-.2413 0-.3619 0-.6032.241-.7238.242-.2413.724-.2413 1.207 0 1.206.3619 2.413 0 3.619-1.2065.242 0 .362.2413.242.3619l-.362.362c-.724.3619-.966.8445-.845 1.5684 0 .9651.845 1.8097 1.689 2.0507.724 0 1.207 0 1.81-.7237l.362-.6032c.241 0 .482-.2413.603 0 0 0 .241.362-.241.362h.241s0 .3619.241.2412c.242 0 .362.0001.362-.3619 0-.3619-.241-.7238-.724-.7238-.362 0-.603.3619-.965.7238 0 .2413-.362.4826-.724.4826s-.724-.2413-.844-.7239c-.242-.3619 0-.6032.241-.8445.483-.3619 1.206-.4826 1.206-1.2064l.362-.4826c.362 0 .604 0 .966-.2413l.482.3619c.241.2413.241.4826 0 .7239-.241.3619-.482 0-.844 0 .241.6032.724.7239 1.206.4826.845-.362 1.207-1.2065.845-2.051l-.242-.6032.483-.4826s.362.4826.965.6032c1.448.4826 2.413-.2412 3.619-1.4477 0-.2413.362-.4826.724-.4826s.483 0 .604.4826c0 .2413-.242.3619-.483.4826-.241 0-.362 0-.483-.4826-.241.3619 0 .6032.242.7239.362 0 .723 0 .844-.4826.362-.3619 0-.9652-.482-1.2065h-.724l-1.689.8446h-1.448c-.241-.362-.483-.4826-.483-.8446 0-.4825.362-.7238.724-.8445.242 0 .603 0 .845.2413.362.4826.724.7239 1.206.6032l.724-.2412c.229-.362.35-.7842.362-1.2065v-.3619c0-.362 0-.8445.483-.8445.482 0 .482.4825.362.9651.361 0 .482-.3619.482-.6032 0-.3619-.241-.7239-.603-.8445-.483 0-.845 0-1.207.2413 0 .2413 0 .6032-.241.8445 0 .2413 0 .4826-.362.6032-.241 0-.482 0-.603-.3619-.362-.4826-.603-1.2065-1.206-1.2065l1.206-.3619c.965-.2413 1.448-1.2064 1.206-1.8097 0-.8445-.362-.9651-1.206-.8445.483.2413.965.2413.724.7239 0 .2413-.362.3619-.603.2413-.314.0241-.579-.2172-.604-.5309 0-.0241 0-.0482 0-.0723-.048-.5188.254-1.0014.724-1.2065.603 0 1.207 0 1.448.6032.362.4826.483 1.2065.845 1.5684 0 .6032.603.9652 1.206.8445.724 0 1.206-.6032.844-1.2064z" fill="#212331" fill-rule="evenodd"/><ellipse fill="#f0f1f4" rx="96.3669" ry="6.38625" transform="matrix(-1 0 0 1 310.194 392.345)"/><path d="m339.423 305.558-8.187 82.53-9.825 4.503v-87.033z" fill="#06c3c6"/><path d="m356.617 392.591h-34.387c-.819 0-1.065-.819-.492-1.474l4.667-4.094c7.615-6.55 18.832-6.55 26.2 0l4.749 4.094c.573.573.246 1.474-.573 1.474z" fill="#454754"/><path d="m280.965 305.558 8.187 82.53 9.825 4.503v-87.033z" fill="#06c3c6"/><path d="m263.689 392.591h34.388c.818 0 1.228-.819.655-1.474l-4.749-4.094c-7.369-6.55-18.668-6.55-26.2 0l-4.585 4.094c-.819.573-.328 1.474.409 1.474z" fill="#454754"/><path d="m234.623 199.775-7.532 6.55c-1.638 1.31-3.848 1.146-5.076-.327l-.573-.655c-1.392-1.474-1.229-3.767.245-5.077l7.615-6.55c1.637-1.392 3.848-1.228 5.076.328l.573.655c1.31 1.473 1.146 3.766-.328 5.076z" fill="#fdd7aa"/><path d="m216.611 192.734 9.252 6.304c1.637 1.228 2.047 3.439.982 5.076l-.491.819c-1.228 1.638-3.439 1.965-5.076.819l-9.252-6.223c-1.638-1.146-2.129-3.275-.983-4.912l.492-.819c.982-1.637 3.275-2.047 4.912-.982z" fill="#fdd7aa"/><path d="m220.705 185.856 6.222 9.825c1.065 1.802.573 4.094-1.146 5.077l-.655.409c-1.638 1.064-3.93.573-4.913-1.064l-6.304-9.825c-1.064-1.638-.573-3.849 1.064-4.913l.819-.491c1.638-1.065 3.848-.573 4.913 1.064z" fill="#fdd7aa"/><path d="m224.635 171.119 8.351 25.79c.655 1.884-.409 3.93-2.293 4.504l-.818.245c-1.883.655-3.848-.409-4.503-2.292l-8.434-25.709c-.573-1.801.41-3.848 2.293-4.503l.819-.246c1.883-.573 3.93.409 4.585 2.293z" fill="#fdd7aa"/><path d="m222.097 193.798 7.614-6.55c.982 2.211 6.796 4.749 5.322 6.059l-7.615 6.55c-1.637 1.392-3.766 1.228-5.076-.246l-.573-.655c-1.31-1.637-1.146-3.848.328-5.158z" fill="#e0b990"/><path d="m238.881 200.839-1.392-4.912-19.896 10.889 2.784 3.685 18.504-9.58z" fill="#f9f9fb"/><path d="m270.403 218.361-21.697 9.825-9.416-27.838-20.714 9.661 19.65 37.827c.819 1.637 2.456 3.111 4.094 3.848 1.965.655 4.093.327 5.731-.983l23.907-20.305-1.637-12.035z" fill="#fff"/><path d="m335.728 202.018-28.657-5.321-22.597 5.321 19.977 46.423 13.919-.818 17.194-45.605z" fill="#e2f8f9"/><path d="m301.176 204.72 9.334 1.146 9.17-.818-6.222 5.731 4.093 24.399-7.123 11.462-7.123-11.462 4.094-24.399-6.141-5.895z" fill="#06c3c6"/><path d="m307.726 317.217s0 4.666 4.913 4.257c4.912-.327 39.3-.819 39.3-.819v-107.256c-.001-2.214-.885-4.336-2.456-5.895l-12.282-13.427-28.001 46.668-1.392 76.553z" fill="#fff"/><path d="m336.628 207.177 12.855-2.129-11.135-12.281-29.148 48.06 32.996-29.475-5.486-4.094z" fill="#e0e2eb"/><path d="m307.89 317.626c0 1.801-1.392 3.275-3.275 3.275-4.257.245-34.797 0-34.797 0l-.982-101.689c.001-4.684 1.89-9.171 5.24-12.445l11.708-11.544c1.228-1.146 23.334 45.604 23.334 45.604l-1.31 76.799z" fill="#f9f9fb"/><path d="m309.2 240.827-32.341-35.779 8.188-6.386-6.386-2.211 5.895-5.731 24.562 50.107z" fill="#e0e2eb"/><ellipse fill="#e0e2eb" rx="3.02936" ry="3.02937" transform="matrix(-1 0 0 1 313.949 288.97)"/><ellipse fill="#e0e2eb" rx="3.02936" ry="3.02939" transform="matrix(-1 0 0 1 313.949 305.59)"/><path d="m343.517 243.66-33.978 14.738 20.305 46.832 34.142-14.738z" fill="#493fc7"/><path d="m363.98 290.656 1.643-.819-20.468-46.668-1.808.818 20.715 46.669z" fill="#3e388b"/><path d="m326.815 266.913-3.603-8.188c-.819-1.637 0-3.602 1.638-4.339h.163c1.638-.819 3.603 0 4.34 1.637l2.947 6.714c.819 1.637 2.702 2.456 4.34 1.637 1.637-.818 2.456-2.701 1.801-4.339-.819-1.637 0-3.684 1.637-4.421 1.638-.819 3.685 0 4.422 1.637l8.515 19.65c.818 1.638 0 3.521-1.638 4.258-1.801.818-2.456 2.702-1.801 4.421.819 1.637 0 3.602-1.801 4.339-1.638.819-3.603 0-4.34-1.637l-3.029-6.796c-.819-1.637-2.702-2.456-4.339-1.637-1.638.655-2.457 2.62-1.802 4.339l3.603 8.188c.819 1.637 0 3.602-1.801 4.339-1.638.819-3.603 0-4.34-1.801l-8.515-19.405c-.819-1.637 0-3.684 1.638-4.421 1.801-.819 2.62-2.702 1.883-4.421z" fill="#6b63d2"/><path d="m323.867 257.088-9.17 3.93 16.785 38.645 9.333-4.094-16.866-38.481z" fill="#2d267d"/><path d="m345.155 287.381 4.093-18.422c.492-1.965 2.457-3.275 4.34-2.702 1.965.41 3.275 2.457 2.702 4.34l-4.258 18.504c-.409 1.965-2.456 3.275-4.257 2.783-1.965-.491-3.275-2.456-2.702-4.339z" fill="#fdd7aa"/><path d="m335.33 283.615 10.643-14.574c1.229-1.637 3.521-1.965 5.159-.818 1.637 1.228 1.883 3.52.818 5.076l-10.643 14.574c-1.31 1.637-3.521 1.965-5.159.818-1.637-1.228-1.965-3.438-.818-5.076z" fill="#fdd7aa"/><path d="m329.353 276.328 15.556-12.772c1.638-1.31 3.848-1.147 5.076.409 1.228 1.638.983 3.848-.573 5.076l-15.556 12.773c-1.638 1.31-3.848 1.064-5.076-.491-1.147-1.474-.983-3.767.573-5.077z" fill="#fdd7aa"/><path d="m336.64 259.544 14.492 3.275c1.965.491 3.111 2.456 2.701 4.339-.491 1.965-2.456 3.275-4.339 2.702l-14.492-3.439c-1.965-.409-3.111-2.456-2.702-4.257.492-1.965 2.457-3.275 4.34-2.702z" fill="#fdd7aa"/><path d="m356.617 275.427-2.947 2.211-9.007-17.849 3.03-1.965 9.006 17.685z" fill="#f9f9fb"/><path d="m351.95 231.379 13.673 11.299-18.831 14.164 10.153 19.65c13.918-7.778 29.475-31.931 29.475-31.931 1.228-3.112 0-6.55-2.866-8.433l-31.931-20.06.245 15.229z" fill="#fff"/><path d="m332.428 234.523s24.726-43.721-20.469-44.54c-45.44-.901-24.398 38.154-24.398 38.154" stroke="#454754" stroke-width="3"/><ellipse fill="#a9acbc" rx="5.32187" ry="5.32188" stroke="#454754" stroke-width="3" transform="matrix(-1 0 0 1 331.937 237.225)"/><path d="m301.07 246.804-.655-1.637 2.702-.819-3.275-10.071c-1.638-4.667-6.714-7.123-11.463-5.567-4.503 1.473-7.041 6.55-5.485 11.135l3.275 9.988 2.702-.818.573 1.637-4.422 1.638-3.93-11.79c-1.883-5.732 1.147-11.79 6.796-13.673 5.649-1.802 11.872 1.146 13.837 6.877l3.93 11.708-4.421 1.474z" fill="#454754"/><path clip-rule="evenodd" d="m300.66 243.938-2.046.819c-.95.317-1.463 1.343-1.147 2.293.317.949 1.343 1.462 2.293 1.146l1.965-.573zm-13.1 4.504 2.047-.655c.456-.165.959-.136 1.392.081.434.217.759.601.901 1.065.327.9-.164 1.965-1.146 2.292l-1.965.655z" fill="#06c3c6" fill-rule="evenodd"/><path d="m286.742 230.265 2.947-1.064c.573-.246.819-.983.655-1.638l-.245-.818c-.246-.655-.819-.983-1.638-.819l-2.784 1.146c-.655.164-.982.819-.818 1.474l.409.819c.246.818.819 1.064 1.637.818z" fill="#75798a"/><path clip-rule="evenodd" d="m350.508 106.914c3.111 6.141 4.912 13.1 4.912 20.469v32.422c10.398-.491 18.831-9.006 18.831-19.65 0-7.86-4.503-14.41-11.053-17.685.328-1.146.573-2.292.573-3.438 0-6.796-5.485-12.282-12.281-12.282zm-79.092 0c-3.111 6.141-4.912 13.1-4.912 20.469h.082v32.422c-10.644-.491-18.832-9.006-18.832-19.65 0-7.86 4.504-14.41 11.054-17.685-.328-1.146-.574-2.292-.574-3.438 0-6.796 5.568-12.282 12.118-12.282z" fill="#75798a" fill-rule="evenodd"/><ellipse fill="#edad91" rx="10.1525" ry="9.74312" transform="matrix(-1 0 0 1 356.239 159.887)"/><ellipse fill="#edad91" rx="10.1525" ry="9.74312" transform="matrix(-1 0 0 1 265.194 159.887)"/><path d="m310.962 205.819c25.381 0 45.85-19.65 45.85-45.031v-33.241c0-25.218-20.469-45.6867-45.85-45.6867s-45.85 20.4687-45.85 45.8497v33.323c0 25.218 20.469 44.868 45.85 44.868z" fill="#fdd7aa"/><path clip-rule="evenodd" d="m351.49 160.542 5.24-2.047h-.082l1.392-46.423c0-2.865-2.947-5.322-6.55-5.322zm-81.138 0-5.24-2.047-1.146-46.423c0-2.865 2.947-5.322 6.386-5.322z" fill="url(#a)" fill-rule="evenodd"/><path d="m282.715 178.964c6.223-2.866 17.358-4.421 18.013-4.421h17.603c.163 0 12.281.409 20.796 4.339 5.404-22.843 17.603-22.843 17.603-22.843v10.644c0 21.942-17.767 39.791-39.791 39.791h-11.954c-22.106 0-39.791-17.849-39.791-39.791v-10.644s12.281-.164 17.521 22.679z" fill="#a9acbc"/><path d="m306.049 171.595h9.825c1.229 0 2.129-.982 2.129-2.21l-3.111-13.673c0-1.147-.983-2.047-2.129-2.047h-3.684c-1.146 0-2.129.982-2.129 2.128l-3.275 13.674c0 1.228.983 2.128 2.211 2.128z" fill="#edad91"/><path d="m299.418 181.584c0 5.977 5.158 10.889 11.462 10.889 6.55 0 11.626-4.912 11.626-10.889z" fill="#fff"/><ellipse fill="#212331" rx="3.43874" ry="3.43875" transform="matrix(-1 0 0 1 334.214 157.103)"/><circle fill="#212331" r="3.43875" transform="matrix(-1 0 0 1 288.364 157.103)"/><path clip-rule="evenodd" d="m324.881 126.564 16.129 1.31h-.164v1.965l-15.802 2.456zm-27.838 1.638-16.129.245v1.965l15.556 3.521z" fill="#75798a" fill-rule="evenodd"/><circle fill="#fff" opacity=".32" r="16.5388" transform="matrix(-1 0 0 1 333.772 157.13)"/><path clip-rule="evenodd" d="m343.501 147.392c-2.473-2.473-5.893-4.004-9.668-4.004-.452 0-.819.366-.819.818 0 .453.367.819.819.819 3.324 0 6.331 1.346 8.51 3.525.32.32.839.32 1.158 0 .32-.319.32-.838 0-1.158zm-19.336 18.179c-.32.32-.32.838 0 1.158 2.473 2.474 5.892 4.005 9.668 4.005.452 0 .819-.367.819-.819s-.367-.819-.819-.819c-3.324 0-6.332-1.346-8.511-3.525-.319-.319-.838-.319-1.157 0z" fill="#fff" fill-rule="evenodd"/><ellipse fill="#fff" opacity=".32" rx="16.5387" ry="16.5388" transform="matrix(-1 0 0 1 287.922 157.13)"/><g clip-rule="evenodd" fill-rule="evenodd"><path d="m297.644 147.392c-2.473-2.473-5.893-4.004-9.668-4.004-.453 0-.819.366-.819.818 0 .453.366.819.819.819 3.323 0 6.331 1.346 8.51 3.525.32.32.838.32 1.158 0 .32-.319.32-.838 0-1.158zm-19.337 18.179c-.319.32-.319.838 0 1.158 2.474 2.474 5.893 4.005 9.669 4.005.452 0 .818-.367.818-.819s-.366-.819-.818-.819c-3.324 0-6.332-1.346-8.511-3.525-.32-.319-.838-.319-1.158 0z" fill="#fff"/><path d="m270.565 146.322c7.369-8.433 19.977-12.281 29.475-4.585 1.242 1.065 2.34 2.298 3.437 3.53.928 1.042 1.854 2.082 2.867 3.02 1.272 1.272 3.037 1.161 4.836 1.048.518-.033 1.038-.065 1.55-.065 2.18 0 3.607-1.707 4.949-3.313.372-.445.737-.882 1.11-1.272 2.047-2.129 4.094-4.094 6.796-5.322 5.977-2.866 13.509-2.457 18.995 1.228.74.644 1.531 1.249 2.318 1.852 1.214.93 2.419 1.853 3.413 2.897 1.801 1.637 3.275 2.783 5.568 3.275.359.096.649.135.889.168.579.08.868.119 1.158.814.168.842.105 1.915.049 2.875-.025.441-.049.858-.049 1.219-1.638 0-3.03.164-3.849 1.637-.542.775-.791 2.283-.955 3.275l-.027.164c-.491 1.883-.983 3.766-1.801 5.568-1.965 4.585-6.059 8.351-10.972 10.07-9.825 3.603-19.977-1.637-24.235-10.889-.671-1.478-1.123-3.066-1.58-4.674-.1-.352-.2-.705-.303-1.057-.058-.235-.112-.479-.166-.727-.325-1.484-.676-3.087-2.29-3.367-2.947-.786-3.799 2.62-4.441 5.187-.16.642-.308 1.232-.472 1.69-2.947 9.498-11.298 16.212-21.369 14.738-5.731-.819-10.644-4.094-13.673-9.006-1.31-2.204-1.927-4.753-2.544-7.303-.232-.956-.463-1.912-.731-2.85-.819-2.047-2.047-2.456-4.094-2.456 0-.219-.041-.612-.089-1.084h-.001c-.134-1.296-.33-3.185.09-3.665.111-.166.895-.22 1.518-.262.299-.021.56-.039.693-.065 1.474-.328 3.111-.983 4.094-2.211zm63.371 26.691c6.796 0 13.1-4.421 15.556-10.807 2.211-6.55.164-13.919-5.24-18.422-11.626-9.498-29.311 1.064-26.527 15.638 1.474 7.778 8.351 13.509 16.211 13.509zm-30.457-10.807c-2.293 6.386-8.679 10.807-15.393 10.807h-.164c-7.778 0-14.737-5.731-16.129-13.591-2.702-14.574 14.901-25.136 26.527-15.638 5.404 4.503 7.451 11.872 5.159 18.422z" fill="#454754"/><path d="m229.16 160.684c-6.202-1.149-11.898 2.723-12.967 8.715-1.109 6.097 2.723 11.898 8.715 12.967 5.886 1.029 11.687-2.803 12.796-8.9 1.069-5.992-2.723-11.899-8.715-12.968" fill="#e2f8f9" opacity=".75"/><path d="m215.726 179.844-6.266 32.385c-.748 5.148 2.48 9.996 7.548 10.955 5.173 1 10.021-2.229 11.02-7.402l6.266-32.385-18.502-3.407z" fill="#f9f9fb"/><path d="m216.998 181.897-2.578 13.144c-.245 1.597.766 3.067 2.363 3.312l9.528 1.929c1.597.244 3.173-.726 3.312-2.363l2.579-13.144z" fill="#1d1c1b"/><path d="m225.087 180.624c-4.922-1.025-8.296-5.807-7.337-10.875 1.13-4.882 5.872-8.151 10.94-7.191 4.962.919 8.191 5.766 7.272 10.729-.879 4.856-5.556 8.271-10.729 7.271zm4.712-24.164c-8.222-1.554-16.196 3.867-17.895 12.155-1.448 8.262 3.972 16.236 12.154 17.895 8.368 1.488 16.342-3.933 17.895-12.154 1.594-8.328-3.827-16.302-12.154-17.896z" fill="#c6c6c5"/><path d="m225.325 193.027c-.27 1.346-1.595 2.291-2.941 2.021-1.451-.31-2.397-1.635-2.127-2.981.205-1.491 1.595-2.291 2.981-2.127 1.452.31 2.397 1.635 2.047 3.192" fill="#d9d9d9"/><path d="m229.616 190.311c-.11.924-.918 1.462-1.736 1.393-1.055-.401-1.633-1.104-1.418-1.988.109-.924 1.063-1.527 1.947-1.312.818.069 1.422 1.023 1.207 1.907zm-9.106-1.769c-.11.924-.958 1.568-1.736 1.393-1.135-.19-1.673-.998-1.498-1.777.189-1.135 1.063-1.527 1.987-1.418.738.281 1.422 1.024 1.207 1.908zm7.862 8.539c-.11.924-1.063 1.528-1.947 1.313-.844-.321-1.422-1.023-1.313-1.947.321-.844 1.023-1.423 1.947-1.313.844.321 1.528 1.063 1.313 1.947zm-9.146-1.663c-.069.818-1.023 1.422-1.907 1.207-.964-.004-1.502-.812-1.287-1.696.109-.924.957-1.568 1.736-1.393 1.135.19 1.633 1.103 1.418 1.987" fill="#878786"/></g><path d="m235.606 196.336-7.615 6.55c-1.637 1.392-3.848 1.228-5.158-.327l-.573-.655c-1.31-1.474-1.146-3.766.328-5.076l7.696-6.55c1.474-1.31 3.766-1.147 5.076.327l.491.655c1.31 1.474 1.147 3.766-.327 5.076z" fill="#fdd7aa"/></svg>