<svg width="524" height="399" viewBox="0 0 524 399" fill="none" xmlns="http://www.w3.org/2000/svg">
<rect x="68.4773" width="190.545" height="190.545" rx="12" fill="#E2F8F9"/>
<rect x="270.932" width="59.5455" height="59.5454" rx="12" fill="#493FC7"/>
<rect x="401.932" y="71.4545" width="53.5909" height="53.5909" rx="12" fill="#FAAA1E"/>
<rect x="407.932" y="142.955" width="41.5909" height="41.5909" rx="20.7955" stroke="#06C3C6" stroke-width="12"/>
<rect x="270.932" y="202.455" width="53.5909" height="53.5909" fill="#E2F8F9"/>
<rect x="8.97729" y="76.7102" width="41.5909" height="41.5909" rx="20.7954" stroke="#FAAA1E" stroke-width="12"/>
<rect x="68.4773" y="202.455" width="53.5909" height="53.5909" rx="12" fill="#06C3C6"/>
<path d="M342.386 12C342.386 5.37259 347.759 0 354.386 0H394.165C398.454 0 401.932 3.47732 401.932 7.7668C401.932 36.3633 378.75 59.5454 350.153 59.5454C345.864 59.5454 342.386 56.0681 342.386 51.7786V12Z" fill="#06C3C6"/>
<path d="M56.5682 244.045C56.5682 250.673 51.1957 256.045 44.5682 256.045L9.96743 256.045C6.10689 256.045 2.97731 252.916 2.97731 249.055C2.97731 223.318 23.8412 202.455 49.5781 202.455C53.4387 202.455 56.5682 205.584 56.5682 209.445L56.5682 244.045Z" fill="#EEEDFD"/>
<path d="M479.432 190.545C472.804 190.545 467.432 185.173 467.432 178.545L467.432 143.945C467.432 140.084 470.561 136.955 474.422 136.955C500.159 136.955 521.023 157.818 521.023 183.555C521.023 187.416 517.893 190.545 514.033 190.545L479.432 190.545Z" fill="#EEEDFD"/>
<rect x="270.932" y="71.4545" width="119.091" height="119.091" rx="12" fill="#EEEDFD"/>
<rect x="133.977" y="202.455" width="125.045" height="125.045" rx="12" fill="#FFF7EB"/>
<path opacity="0.2" fill-rule="evenodd" clip-rule="evenodd" d="M97.4313 74.5062H226.794V132.684C226.794 138.207 222.317 142.684 216.794 142.684H107.431C101.908 142.684 97.4313 138.207 97.4313 132.684V74.5062Z" fill="#06C3C6"/>
<path opacity="0.1" fill-rule="evenodd" clip-rule="evenodd" d="M108.894 84.3312H238.256V142.509C238.256 148.032 233.779 152.509 228.256 152.509H118.894C113.371 152.509 108.894 148.032 108.894 142.509V84.3312Z" fill="#06C3C6"/>
<path fill-rule="evenodd" clip-rule="evenodd" d="M238.851 39.3H88.7694C86.7184 39.3 85.15 40.8684 85.15 42.9193V49.7961H242.35V42.9193C242.35 40.8684 240.782 39.3 238.731 39.3H238.851Z" fill="#454754"/>
<path d="M90.941 46.6593C92.1404 46.6593 93.1126 45.6871 93.1126 44.4877C93.1126 43.2884 92.1404 42.3161 90.941 42.3161C89.7417 42.3161 88.7694 43.2884 88.7694 44.4877C88.7694 45.6871 89.7417 46.6593 90.941 46.6593Z" fill="white"/>
<path opacity="0.6" d="M97.094 46.6593C98.2933 46.6593 99.2656 45.6871 99.2656 44.4877C99.2656 43.2884 98.2933 42.3161 97.094 42.3161C95.8946 42.3161 94.9224 43.2884 94.9224 44.4877C94.9224 45.6871 95.8946 46.6593 97.094 46.6593Z" fill="white"/>
<path opacity="0.2" d="M103.126 46.6593C104.326 46.6593 105.298 45.6871 105.298 44.4877C105.298 43.2884 104.326 42.3161 103.126 42.3161C101.927 42.3161 100.955 43.2884 100.955 44.4877C100.955 45.6871 101.927 46.6593 103.126 46.6593Z" fill="white"/>
<path fill-rule="evenodd" clip-rule="evenodd" d="M85.2518 49.8912H242.035V122.453C242.035 127.976 237.558 132.453 232.035 132.453H95.2518C89.729 132.453 85.2518 127.976 85.2518 122.453V49.8912Z" fill="white"/>
<path fill-rule="evenodd" clip-rule="evenodd" d="M148.368 56.7935H233.06V61.8605H148.368V56.7935Z" fill="#05B2CE"/>
<path fill-rule="evenodd" clip-rule="evenodd" d="M148.85 65.4799H166.465V68.1341H148.85V65.4799ZM170.808 65.4799H188.422V68.1341H170.808V65.4799ZM192.886 65.4799H210.621V68.1341H192.886V65.4799ZM215.446 65.4799H233.06V68.1341H215.446V65.4799ZM93.5952 56.7935H142.336V68.1341H93.5952V56.7935ZM150.66 79.4747H203.382V84.5417H150.66V79.4747ZM150.66 88.0404H203.382V90.4533H150.66V88.0404ZM150.66 92.6249H203.382V95.0378H150.66V92.6249ZM150.66 97.692H203.382V100.105H150.66V97.692ZM150.66 102.277H185.888V104.689H150.66V102.277Z" fill="#F0F1F4"/>
<path fill-rule="evenodd" clip-rule="evenodd" d="M150.66 111.325H169.963V116.392H150.66V111.325Z" fill="#493FC7"/>
<path d="M105.201 103.073C106.734 103.073 107.976 101.884 107.976 100.419C107.976 98.9527 106.734 97.7644 105.201 97.7644C103.669 97.7644 102.426 98.9527 102.426 100.419C102.426 101.884 103.669 103.073 105.201 103.073Z" fill="#EEAD92"/>
<path d="M129.813 103.073C131.345 103.073 132.588 101.884 132.588 100.419C132.588 98.9527 131.345 97.7644 129.813 97.7644C128.28 97.7644 127.038 98.9527 127.038 100.419C127.038 101.884 128.28 103.073 129.813 103.073Z" fill="#EEAD92"/>
<path fill-rule="evenodd" clip-rule="evenodd" d="M117.266 113.69C110.389 113.69 104.598 108.019 104.598 101.022V91.7322C104.598 85.0967 110.389 79.4264 117.266 79.4264C124.142 79.3058 129.692 84.9761 129.692 91.7322V101.022C129.692 108.019 124.142 113.69 117.266 113.69Z" fill="#FCD6A9"/>
<path fill-rule="evenodd" clip-rule="evenodd" d="M118.231 104.641H116.783C116.542 104.641 116.421 104.641 116.421 104.279V99.0915C116.421 98.8502 116.421 98.7296 116.783 98.7296H118.231C118.231 98.7296 118.593 98.9709 118.593 99.2122V104.4C118.593 104.641 118.351 104.762 118.231 104.762V104.641Z" fill="#EEAD92"/>
<path fill-rule="evenodd" clip-rule="evenodd" d="M121.488 106.089C121.488 108.019 120.04 109.708 117.869 109.708C115.939 109.95 114.25 108.502 114.25 106.451L121.488 106.089Z" fill="white"/>
<path d="M111.233 101.022C111.766 101.022 112.199 100.59 112.199 100.057C112.199 99.5236 111.766 99.0915 111.233 99.0915C110.7 99.0915 110.268 99.5236 110.268 100.057C110.268 100.59 110.7 101.022 111.233 101.022Z" fill="#3D3D3B"/>
<path d="M123.78 101.022C124.313 101.022 124.745 100.59 124.745 100.057C124.745 99.5236 124.313 99.0915 123.78 99.0915C123.247 99.0915 122.815 99.5236 122.815 100.057C122.815 100.59 123.247 101.022 123.78 101.022Z" fill="#3D3D3B"/>
<path fill-rule="evenodd" clip-rule="evenodd" d="M108.579 94.9896L113.043 94.6277V96.1961L108.579 95.5928V94.9896ZM126.073 94.9896L121.73 93.7832V95.3515H125.952V94.9896H126.073ZM130.537 87.9922C130.537 86.5445 129.571 85.5793 128.848 84.7348V84.1316C128.848 82.9251 128.003 81.3568 125.831 80.5123C124.625 80.0297 122.212 79.5471 121.006 79.3058C119.075 79.3058 118.593 78.0994 120.161 76.531C115.939 77.2548 109.303 80.8742 109.303 80.8742C107.252 81.7187 106.166 82.9251 106.166 84.1316C106.166 84.1316 104.115 85.8206 103.995 87.9922V99.0915C103.995 99.0915 106.408 97.2819 106.89 95.4722C107.373 94.2657 107.132 88.8367 106.89 87.2684V86.5445L106.528 85.338C107.735 87.5096 112.199 88.9574 117.386 88.9574C121.971 88.9574 125.831 87.9922 127.641 86.5445C127.641 86.5445 127.159 93.5419 127.641 95.2309C128.003 97.0406 130.537 98.8502 130.537 98.8502V87.7509V87.9922Z" fill="#EE7D0F"/>
<path fill-rule="evenodd" clip-rule="evenodd" d="M229.2 90.2121C229.2 91.4185 231.613 92.9869 231.251 93.8314C231.009 95.0378 230.044 96.4856 229.32 97.4507C228.597 98.054 225.942 96.2443 224.977 96.6062C223.771 96.9682 223.529 98.1746 222.323 98.1746C221.117 98.1746 219.186 100.949 218.1 100.588C217.135 99.9843 218.1 96.3649 217.135 95.7617C216.411 94.7966 213.033 95.5204 212.671 94.5553C212.189 93.3488 212.913 91.5392 212.913 90.3327C212.913 89.1263 211.706 87.1959 212.31 86.1101C212.792 84.9037 215.929 85.3863 216.653 84.5418C217.497 83.6972 217.618 81.8876 218.704 81.405C219.91 81.1637 221.117 83.5766 222.323 83.5766C223.529 83.5766 225.58 79.9573 226.666 80.3192C227.873 80.9224 228.838 82.7321 229.682 83.456C230.406 84.3005 229.682 86.3514 230.286 87.4372C230.648 88.2817 229.562 89.2469 229.562 90.4533L229.2 90.2121Z" fill="#E0E2EB"/>
<path fill-rule="evenodd" clip-rule="evenodd" d="M234.387 87.4372C234.387 87.0753 234.026 86.9547 233.664 87.0753C233.664 87.4372 233.664 87.0753 233.905 87.0753C234.146 87.0753 234.267 87.4372 234.146 87.6785C234.146 87.9198 233.905 88.1611 233.543 88.0405C233.06 88.0405 232.819 87.5579 232.698 87.196L232.095 85.2656C231.613 84.0592 230.647 83.5766 229.32 84.0592C228.958 84.0592 228.717 84.3005 228.476 84.5418C227.993 83.8179 227.269 83.3353 226.304 82.9734C226.666 81.5257 226.304 80.5605 224.857 80.1986C224.133 80.1986 223.409 79.9573 222.806 79.8366C222.444 79.5953 222.082 79.354 221.961 78.9921C221.961 78.6302 221.961 78.5095 222.323 78.3889C222.564 78.3889 222.685 78.3889 222.806 78.6302C222.806 78.6302 222.564 78.6302 222.806 78.8715L223.047 78.6302C223.047 78.2682 223.047 78.1476 222.685 78.027C221.84 77.7857 221.478 78.027 221.478 78.8715C221.478 79.5953 221.72 80.0779 222.323 80.0779L223.891 80.9224C224.495 80.9224 224.736 81.5256 224.495 82.1289C224.495 82.6114 224.012 82.9734 223.529 82.9734C223.047 82.9734 222.806 82.6115 222.806 82.2495C222.806 82.0082 222.806 81.8876 223.288 81.6463C223.771 81.6463 223.771 81.8876 224.012 82.2495C224.012 81.5257 224.012 81.0431 223.288 81.0431C222.444 81.0431 221.72 81.5257 221.478 82.2495L221.237 83.9385C220.875 83.2147 220.393 82.9734 220.031 82.7321C219.669 82.7321 219.428 82.3702 219.428 82.0082C219.428 81.7669 219.789 81.7669 220.031 81.6463C220.272 81.6463 220.634 81.6463 220.755 81.2844C220.996 80.9224 221.117 80.6811 220.996 80.3192C220.755 79.9573 220.513 79.8366 220.151 79.716C219.669 79.716 219.428 79.716 219.428 80.0779C219.789 80.0779 220.272 80.0779 220.393 80.4399C220.393 80.8018 220.031 80.9224 219.669 80.9224H219.307C218.824 80.9224 218.342 81.1637 218.1 81.5256L217.738 82.1289C217.738 82.7321 217.98 83.3353 218.462 83.5766C218.704 83.5766 218.824 84.0592 218.704 84.3005C218.704 84.6624 218.342 84.9037 217.98 85.0243C217.618 85.0243 217.377 85.0244 217.256 84.6624C216.894 84.3005 216.894 83.8179 217.256 83.456C217.256 82.9734 217.859 81.6463 217.859 81.6463V80.8018C217.618 80.3192 217.015 80.0779 216.653 80.3192C216.17 80.5605 216.17 80.9224 216.291 81.2844C216.291 81.6463 216.653 81.6463 217.015 81.2844C216.653 81.2844 216.411 81.2844 216.532 80.9224C216.532 80.5605 216.532 80.4399 216.773 80.4399C217.135 80.4399 217.256 80.6811 217.256 81.0431C217.256 81.5257 217.015 81.8876 216.773 82.2495C215.567 82.9734 215.084 84.1798 215.567 85.6276V85.9895H215.205C214.964 85.7482 214.964 85.6276 214.964 85.3863C214.964 84.6624 214.722 84.1798 214.119 83.8179C213.395 83.456 212.309 83.5766 211.706 84.1798C211.224 84.6624 211.103 85.3863 211.344 85.9895L211.706 86.7134C211.706 86.9547 211.706 87.196 211.465 87.196C211.224 87.196 210.982 87.1959 211.224 86.9547H210.741V87.4372C211.344 87.6785 211.586 87.6785 211.948 87.4372C212.189 86.9547 212.189 86.4721 211.948 86.2308V85.2656C212.309 84.9037 212.671 84.6624 213.154 84.7831C213.516 84.7831 213.516 85.2656 213.637 85.6276C213.637 86.2308 213.395 86.834 213.878 87.4372C214.119 87.4372 214.119 87.7992 213.878 88.0405L213.516 88.6437H212.309C211.103 89.2469 210.5 90.0914 211.103 91.4185C211.103 92.1424 211.465 92.625 211.706 93.4695C211.706 93.8314 211.948 94.1933 211.706 94.6759H210.862C210.862 94.4346 210.62 94.314 210.862 94.0727H211.103C211.103 93.8314 210.862 93.8314 210.741 93.8314C210.379 93.8314 210.379 94.1933 210.379 94.5553C210.379 95.2791 211.103 95.5204 211.586 95.1585C212.309 94.7966 212.43 94.1933 212.309 93.5901C212.309 92.9869 212.068 92.3837 211.948 91.9011C211.948 91.2979 212.189 90.6946 212.792 90.6946C213.275 90.4534 213.637 90.6946 213.998 91.0566C214.24 91.5392 213.998 91.9011 213.757 92.263H213.033C212.551 91.9011 213.033 91.6598 213.033 91.2979C212.43 91.5392 212.189 92.0217 212.551 92.5043C212.913 93.3488 213.757 93.7108 214.602 93.3488C214.964 92.9869 215.446 92.7456 216.049 92.5043C215.567 93.1075 215.688 93.7108 215.688 94.314C215.688 94.5553 215.688 94.7966 215.446 94.9172C215.084 95.1585 214.964 94.9172 214.843 94.6759L213.998 94.4346C213.637 94.4346 213.275 94.4346 213.154 94.7966C212.913 95.2791 212.913 95.6411 213.154 96.003C213.154 96.003 213.516 96.3649 213.878 96.003C213.395 96.003 213.154 95.5204 213.395 95.1585C213.757 94.9172 214.119 95.1585 214.36 95.5204V95.7617C214.722 96.1237 215.205 96.4856 215.567 96.4856H216.411C217.015 96.1237 217.256 95.6411 217.256 95.0379C217.256 94.7966 217.256 94.4346 217.738 94.4346H218.583C218.583 94.4346 218.824 94.4346 218.824 94.6759V95.3998C218.583 95.8824 218.221 96.1237 217.618 96.2443L215.808 96.6062L215.326 97.0888C215.326 97.5714 215.326 98.2953 215.688 98.2953C216.049 98.6572 216.411 98.5365 216.653 98.2953C217.015 97.8127 216.894 97.692 216.411 97.4507C216.653 97.8127 216.653 98.054 216.411 98.1746C216.17 98.1746 215.929 98.1746 215.808 97.9333C215.808 97.5714 215.808 97.3301 216.049 97.2095C216.291 96.9682 216.773 96.9682 217.256 97.2095C218.462 97.5714 219.669 97.2095 220.875 96.003C221.117 96.003 221.237 96.2443 221.117 96.3649L220.755 96.7269C220.031 97.0888 219.789 97.5714 219.91 98.2953C219.91 99.2604 220.755 100.105 221.599 100.346C222.323 100.346 222.806 100.346 223.409 99.6223L223.771 99.0191C224.012 99.0191 224.253 98.7778 224.374 99.0191C224.374 99.0191 224.615 99.3811 224.133 99.3811H224.374C224.374 99.3811 224.374 99.743 224.615 99.6223C224.857 99.6223 224.977 99.6224 224.977 99.2604C224.977 98.8985 224.736 98.5366 224.253 98.5366C223.891 98.5366 223.65 98.8985 223.288 99.2604C223.288 99.5017 222.926 99.743 222.564 99.743C222.202 99.743 221.84 99.5017 221.72 99.0191C221.478 98.6572 221.72 98.4159 221.961 98.1746C222.444 97.8127 223.167 97.692 223.167 96.9682L223.529 96.4856C223.891 96.4856 224.133 96.4856 224.495 96.2443L224.977 96.6062C225.218 96.8475 225.218 97.0888 224.977 97.3301C224.736 97.692 224.495 97.3301 224.133 97.3301C224.374 97.9333 224.857 98.054 225.339 97.8127C226.184 97.4507 226.546 96.6062 226.184 95.7617L225.942 95.1585L226.425 94.6759C226.425 94.6759 226.787 95.1585 227.39 95.2791C228.838 95.7617 229.803 95.0379 231.009 93.8314C231.009 93.5901 231.371 93.3488 231.733 93.3488C232.095 93.3488 232.216 93.3488 232.337 93.8314C232.337 94.0727 232.095 94.1933 231.854 94.314C231.613 94.314 231.492 94.314 231.371 93.8314C231.13 94.1933 231.371 94.4346 231.613 94.5553C231.975 94.5553 232.336 94.5553 232.457 94.0727C232.819 93.7108 232.457 93.1075 231.975 92.8662H231.251L229.562 93.7108H228.114C227.873 93.3488 227.631 93.2282 227.631 92.8662C227.631 92.3837 227.993 92.1424 228.355 92.0217C228.597 92.0217 228.958 92.0217 229.2 92.263C229.562 92.7456 229.924 92.9869 230.406 92.8662L231.13 92.625C231.359 92.263 231.48 91.8408 231.492 91.4185V91.0566C231.492 90.6946 231.492 90.2121 231.975 90.2121C232.457 90.2121 232.457 90.6946 232.337 91.1772C232.698 91.1772 232.819 90.8153 232.819 90.574C232.819 90.2121 232.578 89.8501 232.216 89.7295C231.733 89.7295 231.371 89.7295 231.009 89.9708C231.009 90.2121 231.009 90.574 230.768 90.8153C230.768 91.0566 230.768 91.2979 230.406 91.4185C230.165 91.4185 229.924 91.4185 229.803 91.0566C229.441 90.574 229.2 89.8501 228.597 89.8501L229.803 89.4882C230.768 89.2469 231.251 88.2818 231.009 87.6785C231.009 86.834 230.647 86.7134 229.803 86.834C230.286 87.0753 230.768 87.0753 230.527 87.5579C230.527 87.7992 230.165 87.9198 229.924 87.7992C229.61 87.8233 229.345 87.582 229.32 87.2683C229.32 87.2442 229.32 87.2201 229.32 87.196C229.272 86.6772 229.574 86.1946 230.044 85.9895C230.647 85.9895 231.251 85.9895 231.492 86.5927C231.854 87.0753 231.975 87.7992 232.337 88.1611C232.337 88.7643 232.94 89.1263 233.543 89.0056C234.267 89.0056 234.749 88.4024 234.387 87.7992V87.4372Z" fill="#212331"/>
<ellipse rx="96.3669" ry="6.38625" transform="matrix(-1 0 0 1 310.194 392.345)" fill="#F0F1F4"/>
<path d="M339.423 305.558L331.236 388.088L321.411 392.591V305.558H339.423Z" fill="#06C3C6"/>
<path d="M356.617 392.591H322.23C321.411 392.591 321.165 391.772 321.738 391.117L326.405 387.023C334.02 380.473 345.237 380.473 352.605 387.023L357.354 391.117C357.927 391.69 357.6 392.591 356.781 392.591H356.617Z" fill="#454754"/>
<path d="M280.965 305.558L289.152 388.088L298.977 392.591V305.558H280.965Z" fill="#06C3C6"/>
<path d="M263.689 392.591H298.077C298.895 392.591 299.305 391.772 298.732 391.117L293.983 387.023C286.614 380.473 275.315 380.473 267.783 387.023L263.198 391.117C262.379 391.69 262.87 392.591 263.607 392.591H263.689Z" fill="#454754"/>
<path d="M234.623 199.775L227.091 206.325C225.453 207.635 223.243 207.471 222.015 205.998L221.442 205.343C220.05 203.869 220.213 201.576 221.687 200.266L229.302 193.716C230.939 192.324 233.15 192.488 234.378 194.044L234.951 194.699C236.261 196.172 236.097 198.465 234.623 199.775Z" fill="#FDD7AA"/>
<path d="M216.611 192.734L225.863 199.038C227.5 200.266 227.91 202.477 226.845 204.114L226.354 204.933C225.126 206.571 222.915 206.898 221.278 205.752L212.026 199.529C210.388 198.383 209.897 196.254 211.043 194.617L211.535 193.798C212.517 192.161 214.81 191.751 216.447 192.816L216.611 192.734Z" fill="#FDD7AA"/>
<path d="M220.705 185.856L226.927 195.681C227.992 197.483 227.5 199.775 225.781 200.758L225.126 201.167C223.488 202.231 221.196 201.74 220.213 200.103L213.909 190.278C212.845 188.64 213.336 186.429 214.973 185.365L215.792 184.874C217.43 183.809 219.64 184.301 220.705 185.938V185.856Z" fill="#FDD7AA"/>
<path d="M224.635 171.119L232.986 196.909C233.641 198.793 232.577 200.839 230.693 201.413L229.875 201.658C227.992 202.313 226.027 201.249 225.372 199.366L216.938 173.657C216.365 171.856 217.348 169.809 219.231 169.154L220.05 168.908C221.933 168.335 223.98 169.317 224.635 171.201V171.119Z" fill="#FDD7AA"/>
<path d="M222.097 193.798L229.711 187.248C230.693 189.459 236.507 191.997 235.033 193.307L227.418 199.857C225.781 201.249 223.652 201.085 222.342 199.611L221.769 198.956C220.459 197.319 220.623 195.108 222.097 193.798Z" fill="#E0B990"/>
<path d="M238.881 200.839L237.489 195.927L217.593 206.816L220.377 210.501L238.881 200.921V200.839Z" fill="#F9F9FB"/>
<path d="M270.403 218.361L248.706 228.186L239.29 200.348L218.576 210.009L238.226 247.836C239.045 249.473 240.682 250.947 242.32 251.684C244.285 252.339 246.413 252.011 248.051 250.701L271.958 230.396L270.321 218.361H270.403Z" fill="white"/>
<path d="M335.728 202.018L307.071 196.697L284.474 202.018L304.451 248.441L318.37 247.623L335.564 202.018H335.728Z" fill="#E2F8F9"/>
<path d="M301.176 204.72L310.51 205.866L319.68 205.048L313.458 210.779L317.551 235.178L310.428 246.64L303.305 235.178L307.399 210.779L301.258 204.884L301.176 204.72Z" fill="#06C3C6"/>
<path d="M307.726 317.217C307.726 317.217 307.726 321.883 312.639 321.474C317.551 321.147 351.939 320.655 351.939 320.655V213.399C351.938 211.185 351.054 209.063 349.483 207.504L337.201 194.077L309.2 240.745L307.808 317.298L307.726 317.217Z" fill="white"/>
<path d="M336.628 207.177L349.483 205.048L338.348 192.767L309.2 240.827L342.196 211.352L336.71 207.258L336.628 207.177Z" fill="#E0E2EB"/>
<path d="M307.89 317.626C307.89 319.427 306.498 320.901 304.615 320.901C300.358 321.146 269.818 320.901 269.818 320.901L268.836 219.212C268.837 214.528 270.726 210.041 274.076 206.767L285.784 195.223C287.012 194.077 309.118 240.827 309.118 240.827L307.808 317.626H307.89Z" fill="#F9F9FB"/>
<path d="M309.2 240.827L276.859 205.048L285.047 198.662L278.661 196.451L284.556 190.72L309.118 240.827H309.2Z" fill="#E0E2EB"/>
<ellipse rx="3.02936" ry="3.02937" transform="matrix(-1 0 0 1 313.949 288.97)" fill="#E0E2EB"/>
<ellipse rx="3.02936" ry="3.02939" transform="matrix(-1 0 0 1 313.949 305.59)" fill="#E0E2EB"/>
<path d="M343.517 243.66L309.539 258.398L329.844 305.23L363.986 290.492L343.517 243.66V243.66Z" fill="#493FC7"/>
<path d="M363.98 290.656L365.623 289.837L345.155 243.169L343.347 243.987L364.062 290.656H363.98Z" fill="#3E388B"/>
<path d="M326.815 266.913L323.212 258.725C322.393 257.088 323.212 255.123 324.85 254.386H325.013C326.651 253.567 328.616 254.386 329.353 256.023L332.3 262.737C333.119 264.374 335.002 265.193 336.64 264.374C338.277 263.556 339.096 261.673 338.441 260.035C337.622 258.398 338.441 256.351 340.078 255.614C341.716 254.795 343.763 255.614 344.5 257.251L353.015 276.901C353.833 278.539 353.015 280.422 351.377 281.159C349.576 281.977 348.921 283.861 349.576 285.58C350.395 287.217 349.576 289.182 347.775 289.919C346.137 290.738 344.172 289.919 343.435 288.282L340.406 281.486C339.587 279.849 337.704 279.03 336.067 279.849C334.429 280.504 333.61 282.469 334.265 284.188L337.868 292.376C338.687 294.013 337.868 295.978 336.067 296.715C334.429 297.534 332.464 296.715 331.727 294.914L323.212 275.509C322.393 273.872 323.212 271.825 324.85 271.088C326.651 270.269 327.47 268.386 326.733 266.667L326.815 266.913Z" fill="#6B63D2"/>
<path d="M323.867 257.088L314.697 261.018L331.482 299.663L340.815 295.569L323.949 257.088H323.867Z" fill="#2D267D"/>
<path d="M345.155 287.381L349.248 268.959C349.74 266.994 351.705 265.684 353.588 266.257C355.553 266.667 356.863 268.714 356.29 270.597L352.032 289.101C351.623 291.066 349.576 292.376 347.775 291.884C345.81 291.393 344.5 289.428 345.073 287.545L345.155 287.381Z" fill="#FDD7AA"/>
<path d="M335.33 283.615L345.973 269.041C347.202 267.404 349.494 267.076 351.132 268.223C352.769 269.451 353.015 271.743 351.95 273.299L341.307 287.873C339.997 289.51 337.786 289.838 336.148 288.691C334.511 287.463 334.183 285.253 335.33 283.615Z" fill="#FDD7AA"/>
<path d="M329.353 276.328L344.909 263.556C346.547 262.246 348.757 262.409 349.985 263.965C351.213 265.603 350.968 267.813 349.412 269.041L333.856 281.814C332.218 283.124 330.008 282.878 328.78 281.323C327.633 279.849 327.797 277.556 329.353 276.246V276.328Z" fill="#FDD7AA"/>
<path d="M336.64 259.544L351.132 262.819C353.097 263.31 354.243 265.275 353.833 267.158C353.342 269.123 351.377 270.433 349.494 269.86L335.002 266.421C333.037 266.012 331.891 263.965 332.3 262.164C332.792 260.199 334.757 258.889 336.64 259.462V259.544Z" fill="#FDD7AA"/>
<path d="M356.617 275.427L353.67 277.638L344.663 259.789L347.693 257.824L356.699 275.509L356.617 275.427Z" fill="#F9F9FB"/>
<path d="M351.95 231.379L365.623 242.678L346.792 256.842L356.945 276.492C370.863 268.714 386.42 244.561 386.42 244.561C387.648 241.449 386.42 238.011 383.554 236.128L351.623 216.068L351.868 231.297L351.95 231.379Z" fill="white"/>
<path d="M332.428 234.523C332.428 234.523 357.154 190.802 311.959 189.983C266.519 189.082 287.561 228.137 287.561 228.137" stroke="#454754" stroke-width="3"/>
<ellipse rx="5.32187" ry="5.32188" transform="matrix(-1 0 0 1 331.937 237.225)" fill="#A9ACBC" stroke="#454754" stroke-width="3"/>
<path d="M301.07 246.804L300.415 245.167L303.117 244.348L299.842 234.277C298.204 229.61 293.128 227.154 288.379 228.71C283.876 230.183 281.338 235.26 282.894 239.845L286.169 249.833L288.871 249.015L289.444 250.652L285.022 252.29L281.092 240.5C279.209 234.768 282.239 228.71 287.888 226.827C293.537 225.025 299.76 227.973 301.725 233.704L305.655 245.412L301.234 246.886L301.07 246.804Z" fill="#454754"/>
<path fill-rule="evenodd" clip-rule="evenodd" d="M300.66 243.938L298.614 244.757C297.664 245.074 297.151 246.1 297.467 247.05C297.784 247.999 298.81 248.512 299.76 248.196L301.725 247.623L300.66 243.938ZM287.56 248.442L289.607 247.787C290.063 247.622 290.566 247.651 290.999 247.868C291.433 248.085 291.758 248.469 291.9 248.933C292.227 249.833 291.736 250.898 290.754 251.225L288.789 251.88L287.56 248.442Z" fill="#06C3C6"/>
<path d="M286.742 230.265L289.689 229.201C290.262 228.955 290.508 228.218 290.344 227.563L290.099 226.745C289.853 226.09 289.28 225.762 288.461 225.926L285.677 227.072C285.022 227.236 284.695 227.891 284.859 228.546L285.268 229.365C285.514 230.183 286.087 230.429 286.905 230.183L286.742 230.265Z" fill="#75798A"/>
<path fill-rule="evenodd" clip-rule="evenodd" d="M350.508 106.914C353.619 113.055 355.42 120.014 355.42 127.383V159.805C365.818 159.314 374.251 150.799 374.251 140.155C374.251 132.295 369.748 125.745 363.198 122.47C363.526 121.324 363.771 120.178 363.771 119.032C363.771 112.236 358.286 106.75 351.49 106.75L350.508 106.914ZM271.416 106.914C268.305 113.055 266.504 120.014 266.504 127.383H266.586V159.805C255.942 159.314 247.754 150.799 247.754 140.155C247.754 132.295 252.258 125.745 258.808 122.47C258.48 121.324 258.234 120.178 258.234 119.032C258.234 112.236 263.802 106.75 270.352 106.75L271.416 106.914Z" fill="#75798A"/>
<ellipse rx="10.1525" ry="9.74312" transform="matrix(-1 0 0 1 356.239 159.887)" fill="#EDAD91"/>
<ellipse rx="10.1525" ry="9.74312" transform="matrix(-1 0 0 1 265.194 159.887)" fill="#EDAD91"/>
<path d="M310.962 205.819C336.343 205.819 356.812 186.169 356.812 160.788V127.547C356.812 102.329 336.343 81.8603 310.962 81.8603C285.581 81.8603 265.112 102.329 265.112 127.71V161.033C265.112 186.251 285.581 205.901 310.962 205.901V205.819Z" fill="#FDD7AA"/>
<path fill-rule="evenodd" clip-rule="evenodd" d="M351.49 160.542L356.73 158.495H356.648L358.04 112.072C358.04 109.207 355.093 106.75 351.49 106.75V160.542ZM270.352 160.542L265.112 158.495L263.966 112.072C263.966 109.207 266.913 106.75 270.352 106.75V160.542Z" fill="url(#paint0_linear)"/>
<path d="M282.715 178.964C288.938 176.098 300.073 174.543 300.728 174.543H318.331C318.494 174.543 330.612 174.952 339.127 178.882C344.531 156.039 356.73 156.039 356.73 156.039V166.683C356.73 188.625 338.963 206.474 316.939 206.474H304.985C282.879 206.474 265.194 188.625 265.194 166.683V156.039C265.194 156.039 277.475 155.875 282.715 178.718V178.964Z" fill="#A9ACBC"/>
<path d="M306.049 171.595H315.874C317.103 171.595 318.003 170.613 318.003 169.385L314.892 155.712C314.892 154.565 313.909 153.665 312.763 153.665H309.079C307.933 153.665 306.95 154.647 306.95 155.793L303.675 169.467C303.675 170.695 304.658 171.595 305.886 171.595H306.049Z" fill="#EDAD91"/>
<path d="M299.418 181.584C299.418 187.561 304.576 192.473 310.88 192.473C317.43 192.473 322.506 187.561 322.506 181.584H299.418Z" fill="white"/>
<ellipse rx="3.43874" ry="3.43875" transform="matrix(-1 0 0 1 334.214 157.103)" fill="#212331"/>
<circle r="3.43875" transform="matrix(-1 0 0 1 288.364 157.103)" fill="#212331"/>
<path fill-rule="evenodd" clip-rule="evenodd" d="M324.881 126.564L341.01 127.874H340.846V129.839L325.044 132.295L324.881 126.564ZM297.043 128.202L280.914 128.447V130.412L296.47 133.933L297.043 128.202Z" fill="#75798A"/>
<circle opacity="0.32" r="16.5388" transform="matrix(-1 0 0 1 333.772 157.13)" fill="white"/>
<path fill-rule="evenodd" clip-rule="evenodd" d="M343.501 147.392C341.028 144.919 337.608 143.388 333.833 143.388C333.381 143.388 333.014 143.754 333.014 144.206C333.014 144.659 333.381 145.025 333.833 145.025C337.157 145.025 340.164 146.371 342.343 148.55C342.663 148.87 343.182 148.87 343.501 148.55C343.821 148.231 343.821 147.712 343.501 147.392ZM324.165 165.571C323.845 165.891 323.845 166.409 324.165 166.729C326.638 169.203 330.057 170.734 333.833 170.734C334.285 170.734 334.652 170.367 334.652 169.915C334.652 169.463 334.285 169.096 333.833 169.096C330.509 169.096 327.501 167.75 325.322 165.571C325.003 165.252 324.484 165.252 324.165 165.571Z" fill="white"/>
<ellipse opacity="0.32" rx="16.5387" ry="16.5388" transform="matrix(-1 0 0 1 287.922 157.13)" fill="white"/>
<path fill-rule="evenodd" clip-rule="evenodd" d="M297.644 147.392C295.171 144.919 291.751 143.388 287.976 143.388C287.523 143.388 287.157 143.754 287.157 144.206C287.157 144.659 287.523 145.025 287.976 145.025C291.299 145.025 294.307 146.371 296.486 148.55C296.806 148.87 297.324 148.87 297.644 148.55C297.964 148.231 297.964 147.712 297.644 147.392ZM278.307 165.571C277.988 165.891 277.988 166.409 278.307 166.729C280.781 169.203 284.2 170.734 287.976 170.734C288.428 170.734 288.794 170.367 288.794 169.915C288.794 169.463 288.428 169.096 287.976 169.096C284.652 169.096 281.644 167.75 279.465 165.571C279.145 165.252 278.627 165.252 278.307 165.571Z" fill="white"/>
<path fill-rule="evenodd" clip-rule="evenodd" d="M270.565 146.322C277.934 137.889 290.542 134.041 300.04 141.737C301.282 142.802 302.38 144.035 303.477 145.267C304.405 146.309 305.331 147.349 306.344 148.287C307.616 149.559 309.381 149.448 311.18 149.335L311.18 149.335C311.698 149.302 312.218 149.27 312.73 149.27C314.91 149.27 316.337 147.563 317.679 145.957L317.679 145.957C318.051 145.512 318.416 145.075 318.789 144.685C320.836 142.556 322.883 140.591 325.585 139.363C331.562 136.497 339.094 136.906 344.58 140.591C345.32 141.235 346.111 141.84 346.898 142.443L346.898 142.443C348.112 143.373 349.317 144.296 350.311 145.34C352.112 146.977 353.586 148.123 355.879 148.615C356.238 148.711 356.528 148.75 356.768 148.783C357.347 148.863 357.636 148.902 357.926 149.597C358.094 150.439 358.031 151.512 357.975 152.472C357.95 152.913 357.926 153.33 357.926 153.691C356.288 153.691 354.896 153.855 354.077 155.328C353.535 156.103 353.286 157.611 353.122 158.603L353.095 158.767C352.604 160.65 352.112 162.533 351.294 164.335C349.329 168.92 345.235 172.686 340.322 174.405C330.497 178.008 320.345 172.768 316.087 163.516C315.416 162.038 314.964 160.45 314.507 158.842C314.407 158.49 314.307 158.137 314.204 157.785C314.146 157.55 314.092 157.306 314.038 157.058C313.713 155.574 313.362 153.971 311.748 153.691C308.801 152.905 307.949 156.311 307.307 158.878C307.147 159.52 306.999 160.11 306.835 160.568C303.888 170.066 295.537 176.78 285.466 175.306C279.735 174.487 274.822 171.212 271.793 166.3C270.483 164.096 269.866 161.547 269.249 158.997L269.249 158.997C269.017 158.041 268.786 157.085 268.518 156.147C267.699 154.1 266.471 153.691 264.424 153.691C264.424 153.472 264.383 153.079 264.335 152.607L264.334 152.607C264.2 151.311 264.004 149.422 264.424 148.942C264.535 148.776 265.319 148.722 265.942 148.68C266.241 148.659 266.502 148.641 266.635 148.615C268.109 148.287 269.746 147.632 270.729 146.404L270.565 146.322ZM333.936 173.013C340.732 173.013 347.036 168.592 349.492 162.206C351.703 155.656 349.656 148.287 344.252 143.784C332.626 134.286 314.941 144.848 317.725 159.422C319.199 167.2 326.076 172.931 333.936 172.931V173.013ZM303.479 162.206C301.186 168.592 294.8 173.013 288.086 173.013H287.922C280.144 173.013 273.185 167.282 271.793 159.422C269.091 144.848 286.694 134.286 298.32 143.784C303.724 148.287 305.771 155.656 303.479 162.206Z" fill="#454754"/>
<path opacity="0.75" fill-rule="evenodd" clip-rule="evenodd" d="M229.16 160.684C222.958 159.535 217.262 163.407 216.193 169.399C215.084 175.496 218.916 181.297 224.908 182.366C230.794 183.395 236.595 179.563 237.704 173.466C238.773 167.474 234.981 161.567 228.989 160.498" fill="#E2F8F9"/>
<path fill-rule="evenodd" clip-rule="evenodd" d="M215.726 179.844L209.46 212.229C208.712 217.377 211.94 222.225 217.008 223.184C222.181 224.184 227.029 220.955 228.028 215.782L234.294 183.397L215.792 179.99L215.726 179.844Z" fill="#F9F9FB"/>
<path fill-rule="evenodd" clip-rule="evenodd" d="M216.998 181.897L214.42 195.041C214.175 196.638 215.186 198.108 216.783 198.353L226.311 200.282C227.908 200.526 229.484 199.556 229.623 197.919L232.202 184.775L216.998 181.897Z" fill="#1D1C1B"/>
<path fill-rule="evenodd" clip-rule="evenodd" d="M225.087 180.624C220.165 179.599 216.791 174.817 217.75 169.749C218.88 164.867 223.622 161.598 228.69 162.558C233.652 163.477 236.881 168.324 235.962 173.287C235.083 178.143 230.406 181.558 225.233 180.558L225.087 180.624ZM229.799 156.46C221.577 154.906 213.603 160.327 211.904 168.615C210.456 176.877 215.876 184.851 224.058 186.51C232.426 187.998 240.4 182.577 241.953 174.356C243.547 166.028 238.126 158.054 229.799 156.46Z" fill="#C6C6C5"/>
<path fill-rule="evenodd" clip-rule="evenodd" d="M225.325 193.027C225.055 194.373 223.73 195.318 222.384 195.048C220.933 194.738 219.987 193.413 220.257 192.067C220.462 190.576 221.852 189.776 223.238 189.94C224.69 190.25 225.635 191.575 225.285 193.132" fill="#D9D9D9"/>
<path fill-rule="evenodd" clip-rule="evenodd" d="M229.616 190.311C229.506 191.235 228.698 191.773 227.88 191.704C226.825 191.303 226.247 190.6 226.462 189.716C226.571 188.792 227.525 188.189 228.409 188.404C229.227 188.473 229.831 189.427 229.616 190.311ZM220.51 188.542C220.4 189.466 219.552 190.11 218.774 189.935C217.639 189.745 217.101 188.937 217.276 188.158C217.465 187.023 218.339 186.631 219.263 186.74C220.001 187.021 220.685 187.764 220.47 188.648L220.51 188.542ZM228.372 197.081C228.262 198.005 227.309 198.609 226.425 198.394C225.581 198.073 225.003 197.371 225.112 196.447C225.433 195.603 226.135 195.024 227.059 195.134C227.903 195.455 228.587 196.197 228.372 197.081ZM219.226 195.418C219.157 196.236 218.203 196.84 217.319 196.625C216.355 196.621 215.817 195.813 216.032 194.929C216.141 194.005 216.989 193.361 217.768 193.536C218.903 193.726 219.401 194.639 219.186 195.523" fill="#878786"/>
<path d="M235.606 196.336L227.991 202.886C226.354 204.278 224.143 204.114 222.833 202.559L222.26 201.904C220.95 200.43 221.114 198.138 222.588 196.828L230.284 190.278C231.758 188.968 234.05 189.131 235.36 190.605L235.851 191.26C237.161 192.734 236.998 195.026 235.524 196.336H235.606Z" fill="#FDD7AA"/>
<defs>
<linearGradient id="paint0_linear" x1="358.04" y1="106.75" x2="358.04" y2="160.542" gradientUnits="userSpaceOnUse">
<stop stop-color="#75798A"/>
<stop offset="1" stop-color="#A9ACBC"/>
</linearGradient>
</defs>
</svg>
