<svg fill="none" xmlns="http://www.w3.org/2000/svg" viewBox="0 0 144 137"><circle cx="80" cy="64.5" r="64" fill="#FFF7EB"/><circle cx="72" cy="73" r="63" stroke="#FAAA1E" stroke-width="2"/><path d="M93 66h-1a21 21 0 00-40 0 5 5 0 00-6 5 5 5 0 005 4s0 0 0 0a21 21 0 0042 0s0 0 0 0a5 5 0 100-9v0z" stroke="#FAAA1E" stroke-width="2" stroke-miterlimit="10" stroke-linecap="round" stroke-linejoin="round"/><path d="M64 71a1 1 0 100-3 1 1 0 000 3zM80 71a1 1 0 100-3 1 1 0 000 3zM66 83a11 11 0 0012 0M72 52a5 5 0 103 8" stroke="#FAAA1E" stroke-width="2" stroke-miterlimit="10" stroke-linecap="round" stroke-linejoin="round"/></svg>