<svg width="40" height="41" viewBox="0 0 40 41" fill="none" xmlns="http://www.w3.org/2000/svg">
<path d="M0 20.2695C0 9.22384 8.95431 0.269531 20 0.269531C31.0457 0.269531 40 9.22384 40 20.2695C40 31.3152 31.0457 40.2695 20 40.2695C8.95431 40.2695 0 31.3152 0 20.2695Z" fill="#E2F8F9"/>
<g clip-path="url(#clip0)">
<path d="M24.8 12.2695H22.4C21.3391 12.2695 20.3217 12.6699 19.5716 13.3825C18.8214 14.0952 18.4 15.0617 18.4 16.0695V18.3495H16V21.3895H18.4V27.4695H21.6V21.3895H24L24.8 18.3495H21.6V16.0695C21.6 15.868 21.6843 15.6747 21.8343 15.5321C21.9843 15.3896 22.1878 15.3095 22.4 15.3095H24.8V12.2695Z" fill="#06C3C6"/>
</g>
<defs>
<clipPath id="clip0">
<rect width="16" height="16" fill="white" transform="translate(12 12.2695)"/>
</clipPath>
</defs>
</svg>
