<svg width="558" height="471" viewBox="0 0 558 471" fill="none" xmlns="http://www.w3.org/2000/svg">
<g clip-path="url(#clip0)">
<path d="M400.939 470.531C466.744 470.531 520.089 466.976 520.089 462.591C520.089 458.206 466.744 454.652 400.939 454.652C335.134 454.652 281.788 458.206 281.788 462.591C281.788 466.976 335.134 470.531 400.939 470.531Z" fill="#EDEDED"/>
<path fill-rule="evenodd" clip-rule="evenodd" d="M212.71 114.405C212.71 97.0127 198.632 82.9204 181.255 82.9204H126.514C109.136 82.9204 95.0581 68.8282 95.0581 51.4361V50.9606C95.0581 33.5686 109.136 19.4763 126.514 19.4763H377.019C394.397 19.4763 408.475 33.5686 408.475 50.9606C408.475 68.3526 422.553 82.4449 439.93 82.4449H494.671C512.049 82.4449 526.127 96.5372 526.127 113.929V114.405C526.127 131.797 512.049 145.889 494.671 145.889H344.872C327.494 145.889 313.417 159.981 313.417 177.373V177.849C313.417 195.241 327.494 209.333 344.872 209.333H401.155C418.532 209.333 432.61 223.425 432.61 240.818V241.293C432.61 258.685 446.688 272.777 464.066 272.777H510.089C527.467 272.777 541.545 286.87 541.545 304.262V304.737C541.545 322.129 527.467 336.221 510.089 336.221H481.559C464.181 336.221 450.103 350.314 450.103 367.706V368.181C450.103 385.573 436.025 399.666 418.648 399.666H168.128C150.75 399.666 136.672 385.573 136.672 368.181V367.706C136.672 350.314 150.75 336.221 168.128 336.221H196.658C214.036 336.221 228.114 322.129 228.114 304.737V304.262C228.114 286.87 214.036 272.777 196.658 272.777H150.678C133.3 272.777 119.223 258.685 119.223 241.293V240.818C119.223 223.425 105.145 209.333 87.767 209.333H31.4555C14.0779 209.319 0 195.226 0 177.834V177.359C0 159.967 14.0779 145.875 31.4555 145.875H181.255C198.632 145.875 212.71 131.782 212.71 114.405Z" fill="#FFF7EB"/>
<path fill-rule="evenodd" clip-rule="evenodd" d="M165.865 48.9146H367.437V350.789H165.865V48.9146Z" fill="#E2F8F9"/>
<path fill-rule="evenodd" clip-rule="evenodd" d="M267.797 236.884H267.307C263.085 236.884 259.656 233.455 259.656 229.218V204.809C259.656 200.572 263.085 197.143 267.307 197.143H267.797C272.019 197.143 275.448 200.572 275.448 204.809V229.218C275.448 233.455 272.019 236.884 267.797 236.884Z" fill="#FDD7AA"/>
<path fill-rule="evenodd" clip-rule="evenodd" d="M268.762 197.143H266.341C262.638 197.143 259.641 200.14 259.641 203.843V214.348C262.364 214.809 265.174 215.068 268.027 215.068C270.549 215.068 273.027 214.881 275.448 214.521V203.858C275.448 200.155 272.451 197.157 268.762 197.143Z" fill="#E0B990"/>
<path d="M220.549 170.5C226.589 170.5 231.485 165.771 231.485 159.938C231.485 154.105 226.589 149.376 220.549 149.376C214.509 149.376 209.612 154.105 209.612 159.938C209.612 165.771 214.509 170.5 220.549 170.5Z" fill="#EDAD91"/>
<path d="M317.552 170.5C323.592 170.5 328.489 165.771 328.489 159.938C328.489 154.105 323.592 149.376 317.552 149.376C311.512 149.376 306.615 154.105 306.615 159.938C306.615 165.771 311.512 170.5 317.552 170.5Z" fill="#EDAD91"/>
<path fill-rule="evenodd" clip-rule="evenodd" d="M268.042 212.057C240.693 212.057 218.517 189.866 218.517 162.503V126.379C218.517 99.0014 240.693 76.8254 268.042 76.8254C295.391 76.8254 317.566 99.0158 317.566 126.379V162.503C317.552 189.866 295.391 212.057 268.042 212.057Z" fill="#FDD7AA"/>
<path fill-rule="evenodd" clip-rule="evenodd" d="M270.722 176.624H267.451C266.024 176.624 264.857 175.471 264.857 174.03V155.702C264.857 154.275 266.01 153.108 267.437 153.108H270.707C272.134 153.108 273.301 154.275 273.301 155.702V174.03C273.316 175.486 272.148 176.624 270.722 176.624Z" fill="#EDAD91"/>
<path fill-rule="evenodd" clip-rule="evenodd" d="M258.215 194.319C258.503 188.339 262.926 183.685 268.099 183.93C273.272 184.175 277.235 189.232 276.947 195.212L258.215 194.319Z" fill="white"/>
<path d="M244.367 162.143C246.42 162.143 248.085 160.478 248.085 158.425C248.085 156.372 246.42 154.708 244.367 154.708C242.314 154.708 240.65 156.372 240.65 158.425C240.65 160.478 242.314 162.143 244.367 162.143Z" fill="#212331"/>
<path d="M293.95 162.143C296.003 162.143 297.667 160.478 297.667 158.425C297.667 156.372 296.003 154.708 293.95 154.708C291.896 154.708 290.232 156.372 290.232 158.425C290.232 160.478 291.896 162.143 293.95 162.143Z" fill="#212331"/>
<path fill-rule="evenodd" clip-rule="evenodd" d="M231.774 143.699L247.393 135.918L249.555 141.768L232.595 145.659L231.774 143.699ZM304.598 147.561L290.232 137.647L287.278 143.123L303.517 149.362L304.598 147.561ZM320.218 110.975C319.814 105.428 316.356 100.947 313.964 98.4825C314.108 97.7909 314.209 97.0992 314.209 96.3932C314.209 90.7303 310.174 85.0242 301.716 81.3643C297.797 79.6784 287.134 77.9205 283.517 77.3729C275.203 76.3643 274.05 72.0127 279.54 65.8022C262.537 68.8282 236.125 82.8917 236.125 82.8917C228.848 86.4508 224.367 91.177 224.367 96.3788C224.367 96.3788 216.471 102.459 215.866 110.961C215.26 119.462 215.866 154.708 215.866 154.708C215.866 154.708 225.578 147.416 227.408 140.731C228.949 135.068 227.883 114.534 227.508 108.367C227.436 107.215 227.249 106.062 226.918 104.967L225.866 101.436C230.895 110.053 248.402 116.422 269.295 116.422C286.457 116.422 301.37 112.128 308.935 105.817L308.705 106.624C308.705 106.624 306.889 134.059 308.705 140.745C310.52 147.431 320.247 154.722 320.247 154.722C320.247 154.722 320.823 119.477 320.218 110.975Z" fill="#EF7C0A"/>
<path fill-rule="evenodd" clip-rule="evenodd" d="M268.128 334.219C244.353 334.219 225.044 314.925 225.044 291.121V237.849C225.044 229.218 232.033 222.23 240.65 222.23H295.549C304.18 222.23 311.169 229.233 311.169 237.864V291.135C311.169 314.939 291.889 334.233 268.085 334.233L268.128 334.219Z" fill="#FDD7AA"/>
<path fill-rule="evenodd" clip-rule="evenodd" d="M240.592 276.337L225.044 275.141V291.135C225.044 296.265 225.938 301.178 227.58 305.746C228.589 306.726 230.088 307.129 231.514 306.639C233.546 305.948 234.655 303.743 233.964 301.697L230.851 292.461L236.039 300.443C237.206 302.244 239.627 302.749 241.428 301.596C243.229 300.429 243.748 298.008 242.581 296.207L234.483 283.729L240.001 284.146C242.163 284.319 244.036 282.705 244.18 280.544C244.353 278.383 242.739 276.51 240.592 276.337Z" fill="#E0B990"/>
<path fill-rule="evenodd" clip-rule="evenodd" d="M230.895 238.887L207.998 244.348L223.992 274.29L216.687 283.729C204.886 271.063 190.981 241.25 190.981 241.25C190.866 237.619 193.272 234.391 196.773 233.469L236.269 223.166L230.895 238.872V238.887Z" fill="#FDD7AA"/>
<path fill-rule="evenodd" clip-rule="evenodd" d="M219.771 300.976L221.442 280.501C221.615 278.354 220.016 276.481 217.883 276.293C215.736 276.12 213.863 277.72 213.675 279.867L212.004 300.342C211.831 302.489 213.431 304.377 215.578 304.55C217.725 304.708 219.583 303.109 219.771 300.976Z" fill="#FDD7AA"/>
<path fill-rule="evenodd" clip-rule="evenodd" d="M230.967 300.17L224.727 281.668C224.036 279.622 221.831 278.527 219.785 279.219C217.739 279.91 216.644 282.115 217.335 284.161L223.575 302.662C224.266 304.709 226.471 305.804 228.517 305.112C230.563 304.42 231.658 302.216 230.967 300.17Z" fill="#FDD7AA"/>
<path fill-rule="evenodd" clip-rule="evenodd" d="M239.583 294.665L227.71 276.365C226.543 274.564 224.122 274.06 222.321 275.213C220.52 276.38 220.001 278.801 221.168 280.602L233.042 298.902C234.209 300.717 236.644 301.221 238.431 300.054C240.232 298.887 240.751 296.466 239.583 294.665Z" fill="#FDD7AA"/>
<path fill-rule="evenodd" clip-rule="evenodd" d="M237.58 274.824L221.557 273.584C219.41 273.412 217.523 275.025 217.379 277.187C217.22 279.334 218.82 281.207 220.967 281.38L236.99 282.619C239.151 282.792 241.024 281.178 241.168 279.017C241.312 276.855 239.727 274.997 237.58 274.824Z" fill="#FDD7AA"/>
<path fill-rule="evenodd" clip-rule="evenodd" d="M310.981 295.501L311.198 291.12V288.541L310.045 290.976C309.31 292.561 309.742 294.377 310.967 295.501H310.981ZM302.293 268.8C302.221 270.947 303.907 272.763 306.053 272.835L311.198 273.022V265.213L306.327 265.04C304.166 264.968 302.365 266.653 302.293 268.8ZM308.157 289.492L311.183 285.789V273.498L302.105 284.535C300.736 286.207 300.981 288.656 302.639 290.025C304.296 291.394 306.76 291.149 308.128 289.492H308.157Z" fill="#E0B990"/>
<path fill-rule="evenodd" clip-rule="evenodd" d="M297.249 235.616L329.613 232.057L320.463 269.42L330.953 271.654L343.691 226.783C343.835 224.651 343.215 222.518 341.904 220.832C340.578 219.103 338.446 218.238 336.284 218.57L302.667 223.584L297.221 235.616H297.249Z" fill="#FDD7AA"/>
<path fill-rule="evenodd" clip-rule="evenodd" d="M324.123 291.51L324.742 270.962C324.8 268.815 326.601 267.115 328.763 267.187C330.924 267.259 332.61 269.046 332.538 271.207L331.918 291.755C331.861 293.902 330.045 295.602 327.912 295.53C325.78 295.458 324.065 293.657 324.123 291.51Z" fill="#FDD7AA"/>
<path fill-rule="evenodd" clip-rule="evenodd" d="M313.071 289.464L321.342 271.783C322.249 269.838 324.569 268.988 326.529 269.91C328.474 270.832 329.324 273.152 328.402 275.098L320.131 292.778C319.224 294.723 316.904 295.573 314.944 294.665C312.999 293.729 312.149 291.409 313.071 289.464Z" fill="#FDD7AA"/>
<path fill-rule="evenodd" clip-rule="evenodd" d="M305.146 283.023L318.993 266.149C320.362 264.492 322.811 264.247 324.483 265.616C326.14 266.985 326.385 269.435 325.016 271.106L311.169 287.979C309.8 289.651 307.35 289.881 305.679 288.513C304.022 287.144 303.777 284.694 305.146 283.023Z" fill="#FDD7AA"/>
<path fill-rule="evenodd" clip-rule="evenodd" d="M309.339 263.541L325.405 264.118C327.552 264.19 329.238 266.005 329.166 268.152C329.094 270.299 327.278 271.985 325.131 271.913L309.065 271.351C306.918 271.279 305.232 269.463 305.304 267.316C305.376 265.169 307.192 263.484 309.339 263.57V263.541Z" fill="#FDD7AA"/>
<path d="M294.757 258.383C296.117 258.383 297.221 257.279 297.221 255.919C297.221 254.558 296.117 253.455 294.757 253.455C293.396 253.455 292.293 254.558 292.293 255.919C292.293 257.279 293.396 258.383 294.757 258.383Z" fill="#EDAD91"/>
<path d="M241.5 258.383C242.861 258.383 243.964 257.279 243.964 255.919C243.964 254.558 242.861 253.455 241.5 253.455C240.139 253.455 239.036 254.558 239.036 255.919C239.036 257.279 240.139 258.383 241.5 258.383Z" fill="#EDAD91"/>
<path fill-rule="evenodd" clip-rule="evenodd" d="M269.742 320.386C253.503 320.386 239.497 318.844 233.056 316.625L236.269 353.398L258.416 353.023V335.372C261.601 336.106 264.843 336.481 268.114 336.495C271.039 336.495 273.892 336.178 276.644 335.616L278.532 351.971L302.278 351.51L302.048 317.792C294.656 319.377 282.941 320.386 269.742 320.386Z" fill="#06C3C6"/>
<path fill-rule="evenodd" clip-rule="evenodd" d="M281.169 283.412C281.169 284.334 283.114 285.544 282.782 286.351C282.437 287.187 281.831 288.296 281.197 288.916C280.563 289.536 278.561 287.994 277.739 288.34C276.947 288.671 276.63 289.593 275.708 289.593C274.785 289.593 273.244 291.61 272.451 291.279C271.615 290.933 272.249 288.109 271.615 287.504C270.981 286.899 268.431 287.403 268.085 286.567C267.754 285.775 268.316 284.334 268.316 283.412C268.316 282.489 267.494 280.962 267.826 280.141C268.171 279.305 270.563 279.536 271.197 278.902C271.831 278.268 272.004 276.827 272.826 276.481C273.618 276.149 274.771 278.008 275.693 278.008C276.615 278.008 278.157 275.184 278.964 275.515C279.8 275.861 280.607 277.259 281.226 277.878C281.846 278.498 281.342 280.097 281.687 280.933C282.033 281.74 281.169 282.489 281.169 283.412Z" fill="#E5BB8C"/>
<path fill-rule="evenodd" clip-rule="evenodd" d="M285.203 281.236C285.102 281.005 284.929 280.89 284.67 280.991C284.584 281.019 284.512 281.077 284.54 281.178C284.584 281.351 284.656 281.164 284.713 281.178C284.929 281.192 284.973 281.336 284.915 281.495C284.857 281.711 284.728 281.87 284.483 281.798C284.151 281.711 283.978 281.452 283.906 281.149L283.445 279.579C283.071 278.57 282.293 278.238 281.255 278.599C281.025 278.714 280.808 278.844 280.607 279.017C280.29 278.44 279.598 278.181 278.906 277.749C279.195 276.682 278.805 275.947 277.768 275.645C277.249 275.486 276.702 275.414 276.169 275.299C275.852 275.227 275.592 275.083 275.477 274.751C275.39 274.492 275.549 274.362 275.765 274.29C275.938 274.233 276.068 274.262 276.097 274.478C276.111 274.535 275.952 274.622 276.111 274.651C276.212 274.665 276.255 274.593 276.284 274.506C276.37 274.247 276.255 274.074 276.01 274.002C275.65 273.858 275.246 274.031 275.102 274.377C275.059 274.478 275.045 274.579 275.059 274.679C275.059 275.213 275.362 275.544 275.808 275.746L277.105 276.264C277.552 276.466 277.725 276.87 277.581 277.331C277.465 277.705 277.22 277.936 276.803 277.95C276.457 277.95 276.284 277.72 276.212 277.417C276.154 277.187 276.255 277.014 276.514 276.898C276.903 276.726 276.932 277.043 277.062 277.302C277.192 276.754 276.99 276.466 276.5 276.408C275.852 276.336 275.246 276.783 275.131 277.432C275.073 277.777 275.045 278.138 274.987 278.656C274.756 278.051 274.339 277.893 273.95 277.677C273.762 277.576 273.618 277.417 273.618 277.187C273.633 276.942 273.877 276.956 274.036 276.898C274.252 276.826 274.497 276.783 274.656 276.581C274.843 276.351 274.886 276.091 274.771 275.818C274.656 275.53 274.411 275.429 274.122 275.414C273.892 275.4 273.705 275.472 273.647 275.76C273.993 275.645 274.367 275.674 274.425 276.019C274.468 276.308 274.137 276.423 273.849 276.437C273.777 276.437 273.705 276.452 273.647 276.452C273.229 276.437 272.883 276.596 272.595 276.884C272.566 276.927 272.393 277.359 272.393 277.359C272.364 277.835 272.566 278.181 272.941 278.426C273.157 278.57 273.258 278.786 273.171 279.045C273.085 279.319 272.912 279.535 272.609 279.579C272.321 279.636 272.177 279.449 272.019 279.262C271.759 278.916 271.759 278.541 271.918 278.152L272.48 276.826C272.48 276.625 272.451 276.423 272.365 276.236C272.192 275.861 271.759 275.659 271.442 275.818C271.125 275.976 271.068 276.25 271.183 276.538C271.298 276.826 271.5 276.826 271.759 276.625C271.471 276.625 271.313 276.538 271.356 276.279C271.385 276.106 271.529 276.019 271.687 276.034C271.932 276.048 272.048 276.207 272.048 276.437C272.062 276.754 271.889 277.014 271.658 277.187C270.751 277.907 270.362 278.829 270.707 279.982C270.736 280.068 270.751 280.155 270.65 280.198C270.535 280.256 270.448 280.198 270.39 280.097C270.333 279.968 270.333 279.838 270.347 279.694C270.39 279.074 270.174 278.685 269.67 278.44C269.007 278.152 268.258 278.267 267.71 278.728C267.321 279.103 267.249 279.55 267.465 280.141C267.537 280.328 267.638 280.515 267.681 280.717C267.725 280.875 267.667 281.048 267.494 281.077C267.35 281.106 267.148 281.063 267.35 280.818C267.408 280.746 267.278 280.76 267.235 280.775C267.148 280.803 267.019 280.789 266.99 280.919C266.961 281.048 266.99 281.164 267.091 281.236C267.379 281.437 267.667 281.452 267.883 281.135C268.099 280.847 268.027 280.515 267.955 280.198C267.883 279.968 267.811 279.723 267.97 279.506C268.157 279.218 268.431 279.089 268.762 279.189C269.065 279.276 269.151 279.521 269.166 279.823C269.18 280.285 268.964 280.803 269.382 281.192C269.555 281.351 269.555 281.466 269.411 281.653C269.281 281.798 269.194 281.97 269.151 282.158L268.229 282.244C267.192 282.59 266.788 283.325 267.105 284.362C267.249 284.881 267.509 285.371 267.696 285.875C267.811 286.164 267.84 286.481 267.624 286.754C267.451 286.97 267.264 286.898 267.076 286.783C266.932 286.682 266.889 286.538 267.047 286.409C267.091 286.365 267.249 286.466 267.192 286.308C267.163 286.221 267.047 286.221 266.975 286.25C266.702 286.322 266.644 286.509 266.702 286.769C266.774 287.143 267.148 287.388 267.523 287.316C267.624 287.302 267.725 287.259 267.797 287.187C268.229 286.898 268.344 286.452 268.258 285.976L267.97 284.622C267.869 284.175 268.157 283.743 268.589 283.642C268.964 283.527 269.295 283.613 269.526 283.945C269.728 284.233 269.627 284.507 269.411 284.737C269.238 284.91 269.05 284.924 268.82 284.78C268.46 284.55 268.719 284.334 268.849 284.089C268.315 284.29 268.186 284.622 268.416 285.054C268.719 285.63 269.425 285.89 270.03 285.63C270.362 285.486 270.679 285.299 271.125 285.054C270.751 285.573 270.837 286.019 270.88 286.466C270.895 286.682 270.852 286.898 270.664 286.999C270.448 287.143 270.318 286.913 270.189 286.812C270.001 286.668 269.843 286.495 269.569 286.466C269.295 286.423 269.022 286.553 268.863 286.783C268.69 287.043 268.733 287.302 268.877 287.547C269.007 287.749 269.166 287.864 269.425 287.749C269.137 287.518 268.964 287.201 269.209 286.97C269.425 286.769 269.713 286.999 269.886 287.23C269.929 287.288 269.987 287.331 270.03 287.374C270.232 287.72 270.578 287.95 270.967 288.022C271.01 288.022 271.486 287.936 271.486 287.936C271.889 287.691 272.062 287.345 272.076 286.884C272.076 286.625 272.22 286.423 272.465 286.351C272.667 286.293 272.854 286.293 273.042 286.38L273.272 286.567C273.416 286.754 273.373 286.985 273.301 287.187C273.157 287.59 272.84 287.806 272.437 287.907L271.024 288.166C270.852 288.282 270.693 288.411 270.592 288.599C270.376 288.959 270.448 289.42 270.765 289.593C271.053 289.766 271.341 289.665 271.529 289.406C271.702 289.146 271.601 288.988 271.284 288.873C271.442 289.103 271.471 289.305 271.226 289.406C271.068 289.478 270.924 289.406 270.837 289.262C270.707 289.045 270.779 288.873 270.981 288.728C271.241 288.541 271.529 288.541 271.817 288.642C272.926 288.988 273.906 288.815 274.684 287.893C274.742 287.821 274.8 287.763 274.901 287.821C275.001 287.878 275.016 287.994 274.958 288.08C274.886 288.195 274.771 288.267 274.656 288.339C274.122 288.628 273.935 289.045 273.993 289.593C274.122 290.299 274.627 290.875 275.318 291.063C275.837 291.178 276.269 290.991 276.63 290.486C276.745 290.313 276.846 290.141 276.99 289.982C277.091 289.867 277.278 289.809 277.393 289.939C277.494 290.069 277.581 290.227 277.264 290.198C277.163 290.184 277.249 290.285 277.292 290.313C277.365 290.371 277.422 290.486 277.552 290.443C277.682 290.4 277.754 290.299 277.754 290.184C277.768 289.824 277.609 289.607 277.235 289.579C276.875 289.564 276.63 289.78 276.414 290.04C276.269 290.227 276.097 290.414 275.837 290.414C275.506 290.4 275.232 290.27 275.117 289.924C275.016 289.622 275.174 289.42 275.419 289.233C275.794 288.945 276.341 288.858 276.428 288.296C276.442 288.21 276.529 288.066 276.644 287.907C276.903 287.878 277.148 287.806 277.393 287.705C277.537 287.734 277.667 287.806 277.782 287.922C277.955 288.094 277.97 288.282 277.826 288.512C277.595 288.873 277.379 288.613 277.134 288.483C277.336 289.017 277.667 289.146 278.099 288.916C278.676 288.613 278.935 287.907 278.676 287.302L278.488 286.913C278.633 286.769 278.762 286.625 278.878 286.452C278.978 286.509 279.223 286.826 279.684 286.985C280.823 287.374 281.745 286.798 282.422 285.832C282.595 285.587 282.826 285.4 283.143 285.4C283.373 285.385 283.546 285.486 283.575 285.731C283.589 285.904 283.517 286.048 283.344 286.077C283.085 286.135 282.984 285.976 282.97 285.702C282.782 285.991 282.797 286.192 283.099 286.279C283.416 286.38 283.676 286.293 283.806 285.962C283.935 285.616 283.719 285.213 283.33 285.068C283.128 284.996 282.927 284.968 282.725 284.996C282.682 285.011 281.716 285.515 281.442 285.645C281.068 285.832 280.693 285.847 280.333 285.616C280.131 285.486 279.944 285.328 279.973 285.04C280.001 284.737 280.203 284.55 280.477 284.449C280.707 284.348 280.981 284.42 281.111 284.622C281.399 284.982 281.745 285.155 282.22 285.097L282.682 284.852C282.955 284.55 283.071 284.175 283.027 283.772C283.027 283.714 283.027 283.642 283.027 283.57C283.027 283.282 283.114 282.921 283.402 282.95C283.748 282.979 283.791 283.339 283.719 283.7C284.007 283.628 284.05 283.44 284.036 283.195C284.007 282.907 283.892 282.677 283.575 282.576C283.287 282.475 283.042 282.547 282.826 282.749C282.638 282.921 282.61 283.181 282.537 283.397C282.494 283.57 282.523 283.829 282.278 283.829C282.062 283.858 281.889 283.714 281.774 283.541C281.529 283.166 281.342 282.763 280.722 282.576L281.932 282.345C282.566 282.172 282.97 281.553 282.854 280.904C282.768 280.429 282.465 280.241 281.918 280.414C282.163 280.53 282.494 280.544 282.365 280.933C282.278 281.192 282.105 281.308 281.875 281.264C281.586 281.221 281.327 281.063 281.298 280.717C281.269 280.299 281.486 280.04 281.86 279.896C282.293 279.723 282.71 279.867 282.955 280.285L283.561 281.524C283.791 281.956 284.151 282.244 284.67 282.201C285.059 282.201 285.362 281.884 285.347 281.495C285.347 281.394 285.318 281.293 285.275 281.192L285.203 281.236Z" fill="#212331"/>
<path opacity="0.5" fill-rule="evenodd" clip-rule="evenodd" d="M165.865 48.9146H367.437V350.213H165.865V48.9146Z" fill="url(#paint0_linear)"/>
<path fill-rule="evenodd" clip-rule="evenodd" d="M360.535 56.1049V346.193H172.782V56.1193L360.535 56.1049ZM367.423 49.2029H165.865V353.109H367.437L367.423 49.2029Z" fill="#454754"/>
<path fill-rule="evenodd" clip-rule="evenodd" d="M448.85 247.59L475.031 253.829L456.731 288.066L465.089 298.873C478.59 284.391 494.484 250.299 494.484 250.299C494.628 246.149 491.876 242.46 487.856 241.423L442.682 229.636L448.85 247.59Z" fill="#FDD7AA"/>
<path fill-rule="evenodd" clip-rule="evenodd" d="M461.587 318.585L459.657 295.169C459.455 292.72 461.285 290.558 463.734 290.357C466.184 290.155 468.345 291.985 468.547 294.435L470.464 317.864C470.665 320.314 468.835 322.475 466.386 322.677C463.936 322.864 461.789 321.034 461.587 318.585Z" fill="#FDD7AA"/>
<path fill-rule="evenodd" clip-rule="evenodd" d="M448.763 317.677L455.896 296.524C456.674 294.19 459.21 292.922 461.544 293.728C463.878 294.535 465.132 297.043 464.34 299.377L457.207 320.53C456.414 322.864 453.893 324.132 451.558 323.325C449.239 322.518 447.971 320.011 448.763 317.677Z" fill="#FDD7AA"/>
<path fill-rule="evenodd" clip-rule="evenodd" d="M438.936 311.38L452.51 290.429C453.85 288.368 456.616 287.777 458.677 289.118C460.737 290.458 461.328 293.224 459.974 295.285L446.4 316.236C445.06 318.296 442.308 318.887 440.247 317.562C438.172 316.207 437.582 313.44 438.936 311.38Z" fill="#FDD7AA"/>
<path fill-rule="evenodd" clip-rule="evenodd" d="M441.198 288.685L459.527 287.273C461.976 287.086 464.138 288.916 464.311 291.38C464.484 293.844 462.668 295.976 460.204 296.164L441.875 297.576C439.426 297.763 437.279 295.933 437.092 293.484C437.092 293.484 437.092 293.484 437.092 293.469C436.904 291.02 438.749 288.873 441.198 288.685Z" fill="#FDD7AA"/>
<path fill-rule="evenodd" clip-rule="evenodd" d="M458.979 287.316L441.198 288.685C438.749 288.873 436.904 291.02 437.092 293.469C437.279 295.919 439.426 297.763 441.875 297.576L448.187 297.086L438.936 311.351C437.596 313.412 438.187 316.178 440.247 317.518C442.308 318.858 445.074 318.268 446.414 316.207L452.322 307.086L448.763 317.648C447.971 319.982 449.224 322.518 451.559 323.296C453.806 324.06 456.213 322.907 457.092 320.746C458.331 316.366 458.965 311.841 458.965 307.288V287.288L458.979 287.316Z" fill="#E0B990"/>
<path fill-rule="evenodd" clip-rule="evenodd" d="M372.97 243.858L335.967 239.795L346.414 282.518L334.411 285.083L319.843 233.757C319.656 231.307 320.391 228.887 321.875 226.941C323.388 224.982 325.837 223.988 328.287 224.362L366.731 230.097L372.97 243.858Z" fill="#FDD7AA"/>
<path fill-rule="evenodd" clip-rule="evenodd" d="M342.235 307.763L341.529 284.276C341.457 281.826 339.397 279.881 336.933 279.953C334.469 280.025 332.538 282.086 332.61 284.55L333.316 308.037C333.388 310.501 335.434 312.432 337.898 312.36C337.898 312.36 337.898 312.36 337.912 312.36C340.376 312.288 342.307 310.227 342.235 307.763Z" fill="#FDD7AA"/>
<path fill-rule="evenodd" clip-rule="evenodd" d="M354.858 305.429L345.405 285.212C344.368 282.979 341.716 282.014 339.483 283.051C339.483 283.051 339.483 283.051 339.469 283.051C337.235 284.089 336.284 286.754 337.307 288.988L346.76 309.204C347.797 311.437 350.449 312.403 352.682 311.351C352.682 311.351 352.682 311.351 352.696 311.351C354.93 310.313 355.895 307.662 354.858 305.429Z" fill="#FDD7AA"/>
<path fill-rule="evenodd" clip-rule="evenodd" d="M363.936 298.066L348.1 278.757C346.544 276.855 343.734 276.596 341.832 278.138C339.93 279.708 339.656 282.518 341.212 284.42L357.048 303.714C358.619 305.616 361.414 305.89 363.316 304.334C365.218 302.763 365.492 299.968 363.936 298.066Z" fill="#FDD7AA"/>
<path fill-rule="evenodd" clip-rule="evenodd" d="M359.137 275.775L340.766 276.423C338.302 276.509 336.385 278.57 336.472 281.034C336.558 283.498 338.619 285.414 341.083 285.328L359.454 284.679C361.918 284.593 363.835 282.532 363.748 280.068C363.662 277.605 361.601 275.688 359.137 275.775Z" fill="#FDD7AA"/>
<path fill-rule="evenodd" clip-rule="evenodd" d="M354.858 305.429L353.561 302.648V307.316L353.705 310.703C355.204 309.435 355.751 307.288 354.872 305.414L354.858 305.429ZM353.561 285.443V299.507L357.019 303.743C358.59 305.645 361.4 305.919 363.287 304.363C365.189 302.792 365.463 299.997 363.907 298.08L353.561 285.443ZM363.748 280.083C363.662 277.619 361.601 275.702 359.137 275.789L353.561 275.991V284.924L359.454 284.708C361.918 284.607 363.835 282.532 363.748 280.083Z" fill="#E0B990"/>
<path fill-rule="evenodd" clip-rule="evenodd" d="M405.55 245.299H408.316C412.538 245.299 415.953 241.87 415.953 237.633V207.518C415.953 203.281 412.524 199.852 408.316 199.852H405.55C401.328 199.852 397.898 203.281 397.898 207.518V237.633C397.898 241.87 401.328 245.285 405.55 245.299ZM440.55 356.611L430.348 458.744L418.287 464.32V356.611H440.55Z" fill="#FDD7AA"/>
<path fill-rule="evenodd" clip-rule="evenodd" d="M461.847 464.32H419.253C418.676 464.32 418.215 463.859 418.215 463.283C418.215 462.994 418.345 462.706 418.561 462.519L424.397 457.36C433.619 449.19 447.481 449.19 456.703 457.36L462.538 462.519C462.971 462.894 462.999 463.556 462.625 463.989C462.438 464.19 462.164 464.32 461.847 464.32ZM368.114 356.611L378.316 458.744L390.377 464.32V356.611H368.114Z" fill="#FDD7AA"/>
<path fill-rule="evenodd" clip-rule="evenodd" d="M346.803 464.32H389.411C389.988 464.32 390.449 463.845 390.449 463.283C390.449 462.994 390.319 462.706 390.103 462.519L384.267 457.36C375.045 449.19 361.183 449.19 351.947 457.36L346.111 462.519C345.679 462.894 345.65 463.556 346.025 463.989C346.241 464.19 346.515 464.32 346.803 464.32Z" fill="#FDD7AA"/>
<path d="M460.68 169.376C467.587 169.376 473.187 163.97 473.187 157.301C473.187 150.632 467.587 145.226 460.68 145.226C453.772 145.226 448.172 150.632 448.172 157.301C448.172 163.97 453.772 169.376 460.68 169.376Z" fill="#FDD7AA"/>
<path d="M349.742 169.376C356.65 169.376 362.25 163.97 362.25 157.301C362.25 150.632 356.65 145.226 349.742 145.226C342.835 145.226 337.235 150.632 337.235 157.301C337.235 163.97 342.835 169.376 349.742 169.376Z" fill="#FDD7AA"/>
<path fill-rule="evenodd" clip-rule="evenodd" d="M406.371 216.913C437.639 216.913 463.014 191.552 463.014 160.241V118.915C463.014 87.6179 437.654 62.2288 406.371 62.2288C375.088 62.2288 349.742 87.5891 349.742 118.901V160.212C349.742 191.523 375.103 216.898 406.371 216.913Z" fill="#FDD7AA"/>
<path fill-rule="evenodd" clip-rule="evenodd" d="M346.702 101.292C347.149 94.9523 351.126 89.837 353.849 87.0127C353.662 86.2346 353.575 85.4277 353.561 84.6208C353.561 78.151 358.172 71.6092 367.855 67.4449C372.336 65.4996 384.541 63.4968 388.662 62.8916C398.186 61.7244 399.469 56.7532 393.215 49.635C412.653 53.1077 442.87 69.1884 442.87 69.1884C451.198 73.2663 456.314 78.6697 456.314 84.6208C456.314 84.6208 465.348 91.5661 466.04 101.292C466.731 111.019 466.04 151.321 466.04 151.321C466.04 151.321 454.945 142.978 452.841 135.342C451.083 128.857 452.293 105.37 452.711 98.3384C452.783 97.0128 453.014 95.7159 453.388 94.4335L454.584 90.3989C448.835 100.255 428.792 107.546 404.916 107.546C385.29 107.546 368.244 102.632 359.584 95.4133L359.858 96.3355C359.858 96.3355 361.947 127.705 359.858 135.356C357.768 143.007 346.659 151.336 346.659 151.336C346.659 151.336 345.967 111.033 346.659 101.307L346.702 101.292Z" fill="#EF7C0A"/>
<path fill-rule="evenodd" clip-rule="evenodd" d="M406.27 356.611C433.475 356.611 455.521 334.536 455.521 307.331V246.38C455.521 236.509 447.524 228.512 437.668 228.512H374.872C365.016 228.512 357.019 236.509 357.019 246.38V307.302C357.019 334.521 379.065 356.582 406.27 356.582V356.611Z" fill="#FDD7AA"/>
<path fill-rule="evenodd" clip-rule="evenodd" d="M404.426 340.789C423.014 340.789 439.008 339.031 446.386 336.495L442.711 378.542L417.38 378.109V357.922C413.749 358.772 410.017 359.204 406.285 359.204C402.942 359.204 399.685 358.844 396.515 358.196L394.354 376.913L367.207 376.38L367.48 337.821C375.924 339.622 389.325 340.789 404.426 340.789Z" fill="#06C3C6"/>
<path fill-rule="evenodd" clip-rule="evenodd" d="M406.371 206.163C437.654 206.163 463 180.803 463 149.491V118.915C463 87.6179 437.639 62.2432 406.371 62.2432C375.088 62.2432 349.742 87.6035 349.742 118.915V149.477C349.742 180.788 375.103 206.163 406.371 206.163Z" fill="#EF7C0A"/>
<path fill-rule="evenodd" clip-rule="evenodd" d="M466.386 48.6263L466.198 46.292C466.04 44.2747 466.314 42.4736 467.063 40.9173C467.812 39.3611 469.253 37.632 471.4 35.7588C473.475 34.0009 474.83 32.6032 475.449 31.5513C476.069 30.4994 476.328 29.3755 476.242 28.1507C476.126 26.7818 475.536 25.7876 474.469 25.1536C473.403 24.5196 471.962 24.2746 470.161 24.4331C467.005 24.6925 463.504 26.0181 459.642 28.4101L455.636 21.7818C460.118 18.7703 464.974 17.0411 470.233 16.6233C474.57 16.263 478.1 17.0267 480.809 18.8999C483.533 20.7732 485.031 23.4533 485.319 26.9259C485.507 29.2458 485.147 31.2775 484.224 33.0499C483.302 34.8222 481.472 36.8827 478.691 39.2171C476.789 40.8741 475.608 42.1133 475.132 42.9347C474.657 43.756 474.469 44.7934 474.57 46.0615L474.729 47.9491L466.371 48.6263H466.386ZM466.242 59.5053C466.098 57.733 466.458 56.3641 467.337 55.3843C468.216 54.4045 469.541 53.8425 471.371 53.684C473.1 53.5399 474.498 53.9001 475.55 54.7359C476.602 55.5716 477.164 56.8684 477.308 58.5976C477.452 60.2546 477.063 61.6235 476.184 62.6322C475.305 63.6408 473.994 64.2604 472.265 64.3901C470.507 64.5342 469.095 64.174 468.057 63.3238C467.02 62.4592 466.429 61.1768 466.285 59.4765L466.242 59.5053Z" fill="#493FC7"/>
<path fill-rule="evenodd" clip-rule="evenodd" d="M534.426 32.9347L535.55 31.5659C536.516 30.3843 537.611 29.5486 538.836 29.1019C540.06 28.6552 541.746 28.4679 543.893 28.5831C545.939 28.7272 547.409 28.6696 548.288 28.4246C549.167 28.1797 549.916 27.7042 550.493 26.9981C551.156 26.2056 551.357 25.341 551.112 24.4477C550.867 23.5399 550.219 22.6609 549.153 21.782C547.308 20.269 544.715 19.1451 541.357 18.4102L542.668 12.7185C546.674 13.439 550.219 15.0528 553.288 17.5888C555.824 19.6638 557.323 21.9405 557.827 24.3756C558.331 26.8108 557.741 29.0586 556.069 31.0904C554.96 32.4448 553.692 33.367 552.265 33.8281C550.839 34.2892 548.764 34.4621 546.04 34.2748C544.138 34.1739 542.856 34.2316 542.15 34.4189C541.444 34.6062 540.81 35.0817 540.205 35.831L539.297 36.9405L534.412 32.9059L534.426 32.9347ZM528.648 38.7561C529.498 37.7186 530.421 37.1711 531.386 37.099C532.351 37.027 533.403 37.416 534.455 38.295C535.478 39.1307 536.04 40.0529 536.156 41.0472C536.271 42.0414 535.911 43.0501 535.089 44.0587C534.297 45.0386 533.375 45.5717 532.351 45.6582C531.328 45.759 530.305 45.37 529.297 44.5631C528.259 43.6985 527.697 42.7763 527.568 41.7676C527.467 40.7734 527.827 39.7648 528.648 38.7561Z" fill="#FAAA1E"/>
<path fill-rule="evenodd" clip-rule="evenodd" d="M492.495 52.1999C493.331 50.0385 494.541 48.5976 496.126 47.9204C497.711 47.2431 499.628 47.344 501.861 48.1941C504.008 49.0155 505.464 50.2114 506.213 51.8109C506.962 53.4103 506.919 55.2547 506.112 57.3873C505.334 59.4334 504.124 60.8311 502.481 61.566C500.838 62.3008 498.951 62.2576 496.832 61.4363C494.657 60.6005 493.187 59.3902 492.438 57.7763C491.688 56.1625 491.703 54.3037 492.51 52.1999H492.495ZM509.181 43.3238L499.686 39.7071L512.164 0.931641L525.622 6.06135L509.196 43.3382L509.181 43.3238Z" fill="#06C3C6"/>
</g>
<defs>
<linearGradient id="paint0_linear" x1="357.025" y1="356.207" x2="92.436" y2="150.952" gradientUnits="userSpaceOnUse">
<stop stop-color="#E1F8F9"/>
<stop offset="1" stop-color="#E1F8F9" stop-opacity="0"/>
</linearGradient>
<clipPath id="clip0">
<rect width="558" height="469.599" fill="white" transform="translate(0 0.931641)"/>
</clipPath>
</defs>
</svg>
