<svg xmlns="http://www.w3.org/2000/svg" fill="none" viewBox="0 0 558 471"><defs/><g clip-path="url(#clip0)"><path fill="#EDEDED" d="M401 470.5c65.7 0 119-3.5 119-8 0-4.3-53.3-7.8-119-7.8-65.9 0-119.2 3.5-119.2 7.9s53.3 8 119.1 8z"/><path fill="#FFF7EB" fill-rule="evenodd" d="M212.7 114.4c0-17.4-14-31.5-31.4-31.5h-54.8c-17.4 0-31.4-14-31.4-31.5V51c0-17.4 14-31.5 31.4-31.5H377c17.4 0 31.5 14 31.5 31.5 0 17.4 14 31.4 31.4 31.4h54.8C512 82.4 526 96.5 526 114v.5c0 17.4-14 31.5-31.4 31.5H344.9c-17.4 0-31.5 14-31.5 31.5v.4c0 17.4 14 31.5 31.5 31.5h56.3c17.3 0 31.4 14.1 31.4 31.5v.5c0 17.4 14 31.5 31.5 31.5h46c17.4 0 31.4 14 31.4 31.5v.4c0 17.4-14 31.5-31.4 31.5h-28.5c-17.4 0-31.5 14.1-31.5 31.5v.5c0 17.4-14 31.5-31.5 31.5H168.1c-17.3 0-31.4-14.1-31.4-31.5v-.5c0-17.4 14-31.5 31.4-31.5h28.6c17.3 0 31.4-14 31.4-31.5v-.4c0-17.4-14-31.5-31.4-31.5h-46c-17.4 0-31.5-14.1-31.5-31.5v-.5c0-17.4-14-31.5-31.4-31.5H31.5A31.5 31.5 0 010 177.8v-.4c0-17.4 14-31.5 31.5-31.5h149.8c17.3 0 31.4-14.1 31.4-31.5z" clip-rule="evenodd"/><path fill="#E2F8F9" fill-rule="evenodd" d="M165.9 49h201.5v301.8H166V48.9z" clip-rule="evenodd"/><path fill="#FDD7AA" fill-rule="evenodd" d="M267.8 236.9h-.5a7.7 7.7 0 01-7.6-7.7v-24.4c0-4.2 3.4-7.7 7.6-7.7h.5c4.2 0 7.6 3.5 7.6 7.7v24.4c0 4.3-3.4 7.7-7.6 7.7z" clip-rule="evenodd"/><path fill="#E0B990" fill-rule="evenodd" d="M268.8 197.1h-2.5c-3.7 0-6.7 3-6.7 6.7v10.5a50.3 50.3 0 0015.8.2V204c0-3.7-3-6.7-6.6-6.8z" clip-rule="evenodd"/><path fill="#EDAD91" d="M220.5 170.5c6 0 11-4.7 11-10.6 0-5.8-5-10.5-11-10.5s-10.9 4.7-10.9 10.5c0 5.9 5 10.6 11 10.6zM317.6 170.5c6 0 10.9-4.7 10.9-10.6 0-5.8-5-10.5-11-10.5s-10.9 4.7-10.9 10.5c0 5.9 5 10.6 11 10.6z"/><path fill="#FDD7AA" fill-rule="evenodd" d="M268 212a49.5 49.5 0 01-49.5-49.5v-36.1a49.5 49.5 0 1199 0v36.1a49.6 49.6 0 01-49.5 49.6z" clip-rule="evenodd"/><path fill="#EDAD91" fill-rule="evenodd" d="M270.7 176.6h-3.2a2.6 2.6 0 01-2.6-2.6v-18.3c0-1.4 1.1-2.6 2.5-2.6h3.3c1.4 0 2.6 1.2 2.6 2.6V174c0 1.5-1.2 2.6-2.6 2.6z" clip-rule="evenodd"/><path fill="#fff" fill-rule="evenodd" d="M258.2 194.3c.3-6 4.7-10.6 9.9-10.4 5.2.3 9.1 5.3 8.8 11.3l-18.7-.9z" clip-rule="evenodd"/><path fill="#212331" d="M244.4 162.1a3.7 3.7 0 100-7.4 3.7 3.7 0 000 7.4zM294 162.1a3.7 3.7 0 100-7.4 3.7 3.7 0 000 7.4z"/><path fill="#EF7C0A" fill-rule="evenodd" d="M231.8 143.7l15.6-7.8 2.2 5.9-17 3.9-.8-2zm72.8 3.9l-14.4-10-3 5.5 16.3 6.3 1.1-1.8zm15.6-36.6a21 21 0 00-6.2-12.5l.2-2.1c0-5.7-4-11.4-12.5-15-3.9-1.7-14.6-3.5-18.2-4-8.3-1-9.4-5.4-4-11.6-17 3-43.4 17-43.4 17-7.3 3.7-11.7 8.4-11.7 13.6 0 0-8 6-8.5 14.6-.6 8.5 0 43.7 0 43.7s9.7-7.3 11.5-14c1.5-5.6.5-26.2.1-32.3a15 15 0 00-.6-3.4l-1-3.6c5 8.7 22.5 15 43.4 15 17.2 0 32-4.3 39.6-10.6l-.2.8s-1.8 27.5 0 34.1c1.8 6.7 11.5 14 11.5 14s.6-35.2 0-43.7z" clip-rule="evenodd"/><path fill="#FDD7AA" fill-rule="evenodd" d="M268.1 334.2c-23.7 0-43-19.3-43-43v-53.4c0-8.6 7-15.6 15.6-15.6h54.8c8.7 0 15.7 7 15.7 15.7V291a43 43 0 01-43.1 43.1z" clip-rule="evenodd"/><path fill="#E0B990" fill-rule="evenodd" d="M240.6 276.3l-15.6-1.2v16c0 5.2 1 10 2.6 14.6 1 1 2.5 1.4 4 1 2-.8 3-3 2.4-5l-3.1-9.2 5.1 8a3.9 3.9 0 006.5-4.2l-8-12.6 5.5.4c2.2.2 4-1.4 4.2-3.6a4 4 0 00-3.6-4.2z" clip-rule="evenodd"/><path fill="#FDD7AA" fill-rule="evenodd" d="M230.9 238.9l-22.9 5.4 16 30-7.3 9.4c-11.8-12.6-25.7-42.4-25.7-42.4a7.8 7.8 0 015.8-7.8l39.5-10.3-5.4 15.7z" clip-rule="evenodd"/><path fill="#FDD7AA" fill-rule="evenodd" d="M219.8 301l1.6-20.5a4 4 0 00-3.5-4.2 4 4 0 00-4.2 3.6l-1.7 20.4a4 4 0 003.6 4.3 4 4 0 004.2-3.6z" clip-rule="evenodd"/><path fill="#FDD7AA" fill-rule="evenodd" d="M231 300.2l-6.3-18.5a3.9 3.9 0 10-7.4 2.5l6.3 18.5a3.9 3.9 0 107.4-2.5z" clip-rule="evenodd"/><path fill="#FDD7AA" fill-rule="evenodd" d="M239.6 294.7l-11.9-18.3a3.9 3.9 0 00-6.5 4.2l11.8 18.3a3.9 3.9 0 106.6-4.2z" clip-rule="evenodd"/><path fill="#FDD7AA" fill-rule="evenodd" d="M237.6 274.8l-16-1.2a4 4 0 00-.6 7.8l16 1.2a4 4 0 00.6-7.8z" clip-rule="evenodd"/><path fill="#E0B990" fill-rule="evenodd" d="M311 295.5l.2-4.4v-2.6L310 291a4 4 0 001 4.5zm-8.7-26.7a4 4 0 003.8 4l5.1.2v-7.8l-4.9-.2c-2.1 0-4 1.7-4 3.8zm5.9 20.7l3-3.7v-12.3l-9 11a3.9 3.9 0 006 5z" clip-rule="evenodd"/><path fill="#FDD7AA" fill-rule="evenodd" d="M297.2 235.6l32.4-3.5-9.1 37.3 10.5 2.3 12.7-45c.1-2-.5-4.2-1.8-5.9a6 6 0 00-5.6-2.2l-33.6 5-5.5 12z" clip-rule="evenodd"/><path fill="#FDD7AA" fill-rule="evenodd" d="M324.1 291.5l.6-20.5a3.9 3.9 0 117.8.2l-.6 20.6a3.9 3.9 0 11-7.8-.3z" clip-rule="evenodd"/><path fill="#FDD7AA" fill-rule="evenodd" d="M313 289.5l8.3-17.7a3.9 3.9 0 117.1 3.3l-8.3 17.7a4 4 0 01-5.2 1.9 4 4 0 01-1.8-5.2z" clip-rule="evenodd"/><path fill="#FDD7AA" fill-rule="evenodd" d="M305.1 283l13.9-16.9a3.9 3.9 0 016 5L311.2 288a3.9 3.9 0 11-6-5z" clip-rule="evenodd"/><path fill="#FDD7AA" fill-rule="evenodd" d="M309.3 263.5l16.1.6a4 4 0 01-.3 7.8l-16-.5a3.9 3.9 0 11.3-7.8z" clip-rule="evenodd"/><path fill="#EDAD91" d="M294.8 258.4a2.5 2.5 0 100-5 2.5 2.5 0 000 5zM241.5 258.4a2.5 2.5 0 100-5 2.5 2.5 0 000 5z"/><path fill="#06C3C6" fill-rule="evenodd" d="M269.7 320.4c-16.2 0-30.2-1.6-36.6-3.8l3.2 36.8 22.1-.4v-17.6a44 44 0 0018.2.2l2 16.4 23.7-.5-.3-33.7c-7.3 1.6-19 2.6-32.3 2.6z" clip-rule="evenodd"/><path fill="#E5BB8C" fill-rule="evenodd" d="M281.2 283.4c0 1 2 2.1 1.6 3-.4.8-1 1.9-1.6 2.5-.6.6-2.6-1-3.5-.6-.8.4-1 1.3-2 1.3s-2.5 2-3.2 1.7c-.9-.4-.3-3.2-.9-3.8-.6-.6-3.2-.1-3.5-1-.3-.7.2-2.2.2-3 0-1-.8-2.5-.5-3.4.4-.8 2.8-.6 3.4-1.2.6-.6.8-2 1.6-2.4.8-.4 2 1.5 2.9 1.5 1 0 2.5-2.8 3.3-2.5.8.4 1.6 1.8 2.2 2.4.6.6.1 2.2.5 3 .3.8-.5 1.6-.5 2.5z" clip-rule="evenodd"/><path fill="#212331" fill-rule="evenodd" d="M285.2 281.2c-.1-.2-.3-.3-.5-.2-.1 0-.2 0-.2.2s.2 0 .2 0c.2 0 .3.1.2.3 0 .2-.2.4-.4.3-.3 0-.5-.3-.6-.7l-.5-1.5c-.3-1-1.1-1.4-2.1-1a3 3 0 00-.7.4c-.3-.6-1-.8-1.7-1.3.3-1 0-1.8-1.1-2l-1.6-.4c-.3 0-.6-.2-.7-.5-.1-.3 0-.4.3-.5.1 0 .3 0 .3.2 0 0-.1.1 0 .2l.2-.2c0-.3 0-.4-.3-.5a.7.7 0 00-.9.4v.3c0 .5.3.8.7 1l1.3.6c.5.2.6.6.5 1-.1.4-.4.6-.8.6-.3 0-.5-.2-.6-.5 0-.2 0-.4.3-.5.4-.2.4.1.6.4 0-.5-.1-.8-.6-.9-.6 0-1.3.4-1.4 1l-.1 1.3c-.2-.6-.7-.8-1-1-.2-.1-.4-.3-.4-.5 0-.3.3-.2.4-.3.3 0 .5-.1.7-.3.1-.2.2-.5 0-.8 0-.3-.3-.4-.6-.4-.2 0-.4 0-.5.4.4-.2.8-.1.8.2 0 .3-.3.4-.6.4h-.2c-.4 0-.7.2-1 .5l-.2.5c0 .4.2.8.5 1 .3.2.4.4.3.6-.1.3-.3.5-.6.6-.3 0-.4-.2-.6-.3-.2-.4-.2-.8 0-1.1l.5-1.4-.1-.6c-.2-.3-.6-.5-1-.4-.3.2-.3.4-.2.7.1.3.3.3.6.1-.3 0-.5 0-.4-.3 0-.2.1-.3.3-.3.2 0 .3.2.3.4 0 .4-.1.6-.3.8-1 .7-1.3 1.6-1 2.8v.2l-.3-.1v-.4c0-.6-.2-1-.7-1.3-.7-.2-1.4-.1-2 .3-.4.4-.5.9-.2 1.4l.2.6c0 .2 0 .3-.2.4-.1 0-.4 0-.1-.3h-.2l-.2.1v.3c.4.2.7.3.9 0 .2-.4.1-.7 0-1v-.7c.3-.3.5-.4.9-.3.3 0 .4.3.4.6 0 .5-.2 1 .2 1.4.2.2.2.3 0 .5l-.2.5h-1c-1 .4-1.4 1.1-1 2.2 0 .5.3 1 .5 1.5v.9c-.2.2-.4.1-.6 0-.2-.1-.2-.3 0-.4 0 0 .1 0 0 0 0-.2 0-.2-.1-.1-.3 0-.4.2-.3.5 0 .3.4.6.8.5l.3-.1c.4-.3.5-.7.5-1.2l-.3-1.4c-.1-.4.2-.9.6-1 .4 0 .7 0 1 .3.1.3 0 .6-.2.8-.2.2-.3.2-.6 0-.3-.1 0-.4 0-.6-.5.2-.6.5-.4 1 .3.5 1 .8 1.6.5l1.1-.5c-.3.5-.3 1-.2 1.4 0 .2 0 .4-.2.5-.3.1-.4 0-.5-.2l-.6-.3c-.3 0-.6 0-.7.3-.2.2-.2.5 0 .7.1.2.3.4.5.2-.3-.2-.4-.5-.2-.7.2-.2.5 0 .7.2l.1.2c.2.3.6.6 1 .6h.5c.4-.3.6-.7.6-1.1 0-.3.1-.5.4-.5h.5l.3.2v.6c-.1.4-.5.6-.9.7l-1.4.3-.4.4c-.2.4-.2.8.2 1 .3.2.5 0 .7-.2.2-.3.1-.4-.2-.5.1.2.2.4 0 .5l-.5-.1c0-.3 0-.4.2-.6.2-.2.5-.2.8 0 1.1.3 2.1.1 2.9-.8 0 0 .1-.1.2 0 .1 0 .1 0 0 .2l-.2.2c-.6.3-.8.7-.7 1.3.1.7.6 1.3 1.3 1.5.5 0 1-.1 1.3-.6l.4-.5c0-.1.3-.2.4 0 0 0 .2.2-.1.2-.1 0 0 0 0 .1 0 0 .1.2.3.1l.2-.2c0-.4-.2-.6-.6-.6-.3 0-.6.2-.8.4-.1.2-.3.4-.6.4s-.6-.1-.7-.5c0-.3 0-.5.3-.7.4-.3 1-.3 1-.9l.2-.4c.3 0 .5 0 .8-.2l.4.2c.2.2.2.4 0 .6-.2.4-.4.1-.7 0 .2.5.6.6 1 .4.6-.3.8-1 .6-1.6l-.2-.4.4-.4.8.5c1.1.4 2-.2 2.7-1.2.2-.2.4-.4.7-.4.3 0 .4 0 .5.3 0 .2 0 .3-.3.4-.2 0-.3-.1-.3-.4-.2.3-.2.5.1.6.3 0 .6 0 .7-.3.1-.4 0-.8-.5-1h-.6l-1.3.6c-.3.2-.7.2-1 0-.3-.1-.5-.3-.4-.6 0-.3.2-.4.5-.6.2 0 .5 0 .6.2.3.4.6.6 1.1.5l.5-.2c.3-.3.4-.7.3-1.1v-.2c0-.3.1-.7.4-.7.3 0 .4.4.3.8.3 0 .4-.3.3-.5 0-.3-.1-.5-.4-.6-.3-.1-.6 0-.8.1-.2.2-.2.5-.3.7 0 .2 0 .4-.2.4s-.4 0-.5-.3c-.3-.3-.5-.7-1-1l1.1-.2c.7-.1 1-.7 1-1.4-.1-.5-.4-.7-1-.5.3.1.6.1.5.5-.1.3-.3.4-.5.4-.3 0-.6-.2-.6-.6 0-.4.2-.7.6-.8.4-.2.8 0 1 .4l.7 1.2c.2.5.6.7 1 .7.5 0 .8-.3.7-.7v-.3h-.1z" clip-rule="evenodd"/><path fill="url(#paint0_linear)" fill-rule="evenodd" d="M165.9 49h201.5v301.2H166V49z" clip-rule="evenodd" opacity=".5"/><path fill="#454754" fill-rule="evenodd" d="M360.5 56.1v290H172.8v-290h187.7zm7-6.9H165.8v304h201.5v-304z" clip-rule="evenodd"/><path fill="#FDD7AA" fill-rule="evenodd" d="M448.9 247.6l26.1 6.2-18.3 34.3 8.4 10.8c13.5-14.5 29.4-48.6 29.4-48.6a8.8 8.8 0 00-6.6-8.9l-45.2-11.8 6.2 18z" clip-rule="evenodd"/><path fill="#FDD7AA" fill-rule="evenodd" d="M461.6 318.6l-2-23.4a4.5 4.5 0 019-.8l1.9 23.5a4.5 4.5 0 01-4.1 4.8 4.5 4.5 0 01-4.8-4.1z" clip-rule="evenodd"/><path fill="#FDD7AA" fill-rule="evenodd" d="M448.8 317.7l7.1-21.2a4.5 4.5 0 018.4 2.9l-7 21.1a4.4 4.4 0 01-5.7 2.8 4.5 4.5 0 01-2.8-5.6z" clip-rule="evenodd"/><path fill="#FDD7AA" fill-rule="evenodd" d="M439 311.4l13.5-21a4.5 4.5 0 017.5 4.9l-13.6 21c-1.3 2-4 2.6-6.2 1.3a4.5 4.5 0 01-1.3-6.2z" clip-rule="evenodd"/><path fill="#FDD7AA" fill-rule="evenodd" d="M441.2 288.7l18.3-1.4a4.4 4.4 0 11.7 8.9l-18.3 1.4a4.5 4.5 0 01-4.8-4.1 4.5 4.5 0 014.1-4.8z" clip-rule="evenodd"/><path fill="#E0B990" fill-rule="evenodd" d="M459 287.3l-17.8 1.4a4.5 4.5 0 00.7 8.9l6.3-.5-9.3 14.3a4.5 4.5 0 007.5 4.8l6-9.1-3.6 10.5a4.4 4.4 0 008.3 3.1c1.2-4.3 1.9-8.9 1.9-13.4v-20z" clip-rule="evenodd"/><path fill="#FDD7AA" fill-rule="evenodd" d="M373 243.9l-37-4.1 10.4 42.7-12 2.6-14.6-51.3a10 10 0 012-6.9c1.6-2 4-3 6.5-2.5l38.4 5.7 6.3 13.8z" clip-rule="evenodd"/><path fill="#FDD7AA" fill-rule="evenodd" d="M342.2 307.8l-.7-23.5a4.5 4.5 0 00-8.9.3l.7 23.4c0 2.5 2.1 4.4 4.6 4.4 2.5-.1 4.4-2.2 4.3-4.6z" clip-rule="evenodd"/><path fill="#FDD7AA" fill-rule="evenodd" d="M354.9 305.4l-9.5-20.2a4.5 4.5 0 00-6-2.1 4.5 4.5 0 00-2 5.9l9.4 20.2c1 2.2 3.6 3.2 5.9 2.2 2.2-1 3.2-3.7 2.2-6z" clip-rule="evenodd"/><path fill="#FDD7AA" fill-rule="evenodd" d="M364 298L348 278.9a4.5 4.5 0 00-6.9 5.6l15.8 19.3a4.5 4.5 0 007-5.6z" clip-rule="evenodd"/><path fill="#FDD7AA" fill-rule="evenodd" d="M359.1 275.8l-18.3.6a4.4 4.4 0 10.3 9l18.4-.7a4.4 4.4 0 10-.4-9z" clip-rule="evenodd"/><path fill="#E0B990" fill-rule="evenodd" d="M354.9 305.4l-1.3-2.8v4.7l.1 3.4c1.5-1.3 2-3.4 1.2-5.3zm-1.3-20v14.1l3.4 4.2a4.5 4.5 0 107-5.6l-10.4-12.7zm10.1-5.3c0-2.5-2.1-4.4-4.6-4.3l-5.5.2v9l5.9-.3a4.5 4.5 0 004.2-4.6z" clip-rule="evenodd"/><path fill="#FDD7AA" fill-rule="evenodd" d="M405.6 245.3h2.7c4.2 0 7.7-3.4 7.7-7.7v-30c0-4.3-3.5-7.7-7.7-7.7h-2.8a7.7 7.7 0 00-7.6 7.6v30.1c0 4.3 3.4 7.7 7.7 7.7zm35 111.3l-10.3 102.1-12 5.6V356.6h22.3z" clip-rule="evenodd"/><path fill="#FDD7AA" fill-rule="evenodd" d="M461.8 464.3h-42.5a1 1 0 01-.7-1.8l5.8-5.1c9.2-8.2 23-8.2 32.3 0l5.8 5.1c.5.4.5 1 .1 1.5a1 1 0 01-.8.3zm-93.7-107.7l10.2 102.1 12 5.6V356.6h-22.2z" clip-rule="evenodd"/><path fill="#FDD7AA" fill-rule="evenodd" d="M346.8 464.3h42.6c.6 0 1-.5 1-1a1 1 0 00-.3-.8l-5.8-5.1c-9.3-8.2-23.1-8.2-32.4 0l-5.8 5.1a1 1 0 000 1.5c.1.2.4.3.7.3z" clip-rule="evenodd"/><path fill="#FDD7AA" d="M460.7 169.4c6.9 0 12.5-5.4 12.5-12.1 0-6.7-5.6-12-12.5-12-7 0-12.5 5.3-12.5 12s5.6 12 12.5 12zM349.7 169.4c7 0 12.6-5.4 12.6-12.1 0-6.7-5.7-12-12.6-12-6.9 0-12.5 5.3-12.5 12s5.6 12 12.5 12z"/><path fill="#FDD7AA" fill-rule="evenodd" d="M406.4 217a56.7 56.7 0 0056.6-56.8V119a56.7 56.7 0 10-113.3 0v41.3a56.7 56.7 0 0056.7 56.7z" clip-rule="evenodd"/><path fill="#EF7C0A" fill-rule="evenodd" d="M346.7 101.3a24 24 0 017.1-14.3 11 11 0 01-.2-2.4c0-6.4 4.6-13 14.3-17.2 4.4-1.9 16.6-3.9 20.8-4.5 9.5-1.2 10.8-6.1 4.5-13.3 19.5 3.5 49.7 19.6 49.7 19.6 8.3 4 13.4 9.5 13.4 15.4 0 0 9 7 9.7 16.7.7 9.7 0 50 0 50s-11-8.3-13.2-16c-1.7-6.4-.5-30 0-37 0-1.3.2-2.6.6-3.9l1.2-4c-5.8 9.9-25.8 17.1-49.7 17.1-19.6 0-36.7-4.9-45.3-12l.3.8s2 31.4 0 39c-2.1 7.7-13.2 16-13.2 16s-.7-40.3 0-50z" clip-rule="evenodd"/><path fill="#FDD7AA" fill-rule="evenodd" d="M406.3 356.6c27.2 0 49.2-22 49.2-49.3v-61c0-9.8-8-17.8-17.8-17.8h-62.8c-9.9 0-17.9 8-17.9 17.9v60.9c0 27.2 22 49.3 49.3 49.3z" clip-rule="evenodd"/><path fill="#06C3C6" fill-rule="evenodd" d="M404.4 340.8c18.6 0 34.6-1.8 42-4.3l-3.7 42-25.3-.4V358a48.7 48.7 0 01-20.9.3l-2.1 18.7-27.2-.5.3-38.6c8.4 1.8 21.8 3 37 3z" clip-rule="evenodd"/><path fill="#EF7C0A" fill-rule="evenodd" d="M406.4 206.2a56.6 56.6 0 0056.6-56.7v-30.6a56.7 56.7 0 10-113.3 0v30.6a56.7 56.7 0 0056.7 56.7z" clip-rule="evenodd"/><path fill="#493FC7" fill-rule="evenodd" d="M466.4 48.6l-.2-2.3c-.2-2 .1-3.8.9-5.4.7-1.5 2.2-3.3 4.3-5.1 2-1.8 3.4-3.2 4-4.2.7-1.1 1-2.2.8-3.4a3.6 3.6 0 00-1.7-3c-1.1-.7-2.5-1-4.3-.8-3.2.3-6.7 1.6-10.6 4l-4-6.6a30 30 0 0114.6-5.2c4.4-.3 7.9.4 10.6 2.3 2.7 1.9 4.2 4.6 4.5 8a11 11 0 01-1 6.1c-1 1.8-2.8 3.9-5.6 6.2-2 1.7-3 3-3.6 3.7-.4.9-.6 1.9-.5 3.2l.1 1.8-8.3.7zm-.2 11c-.1-1.9.3-3.2 1.1-4.2 1-1 2.2-1.6 4-1.7 1.8-.2 3.2.2 4.3 1 1 .9 1.6 2.2 1.7 3.9.2 1.7-.2 3-1.1 4-.9 1-2.2 1.7-4 1.8-1.7.1-3.1-.2-4.1-1-1-1-1.7-2.2-1.8-4v.1z" clip-rule="evenodd"/><path fill="#FAAA1E" fill-rule="evenodd" d="M534.4 33l1.1-1.4c1-1.2 2.1-2 3.3-2.5 1.3-.4 3-.6 5-.5 2.1.1 3.6 0 4.5-.2.9-.2 1.6-.7 2.2-1.4.7-.8.9-1.7.6-2.6-.2-.9-.9-1.7-2-2.6a18.4 18.4 0 00-7.7-3.4l1.3-5.7c4 .7 7.5 2.4 10.6 4.9 2.5 2 4 4.3 4.5 6.8.5 2.4 0 4.7-1.7 6.7a8.2 8.2 0 01-3.8 2.7c-1.5.5-3.5.7-6.3.5-1.9-.1-3.1 0-3.9.1-.7.2-1.3.7-1.9 1.4l-.9 1.1-4.9-4zm-5.8 5.8c.9-1 1.8-1.6 2.8-1.7 1 0 2 .3 3 1.2 1 .8 1.6 1.8 1.8 2.7 0 1-.3 2-1.1 3a4 4 0 01-2.7 1.7c-1 0-2.1-.3-3.1-1.1-1-.9-1.6-1.8-1.7-2.8a4 4 0 011-3z" clip-rule="evenodd"/><path fill="#06C3C6" fill-rule="evenodd" d="M492.5 52.2c.8-2.2 2-3.6 3.6-4.3 1.6-.7 3.5-.6 5.8.3 2.1.8 3.6 2 4.3 3.6.8 1.6.7 3.5 0 5.6a7 7 0 01-3.7 4.2c-1.7.7-3.5.7-5.7-.2-2.1-.8-3.6-2-4.4-3.6a7 7 0 01.1-5.6zm16.7-8.9l-9.5-3.6L512.2 1l13.4 5.2-16.4 37.2z" clip-rule="evenodd"/></g><defs><linearGradient id="paint0_linear" x1="357" x2="92.4" y1="356.2" y2="151" gradientUnits="userSpaceOnUse"><stop stop-color="#E1F8F9"/><stop offset="1" stop-color="#E1F8F9" stop-opacity="0"/></linearGradient><clipPath id="clip0"><path fill="#fff" d="M0 0h558v469.6H0z" transform="translate(0 1)"/></clipPath></defs></svg>