<svg width="48" height="49" viewBox="0 0 48 49" fill="none" xmlns="http://www.w3.org/2000/svg">
<path d="M0 4.73144C0 2.52231 1.79086 0.731445 4 0.731445H40C44.4183 0.731445 48 4.31317 48 8.73145V44.7314C48 46.9406 46.2091 48.7314 44 48.7314H8C3.58172 48.7314 0 45.1497 0 40.7314V4.73144Z" fill="#06C3C6"/>
<path d="M26.0494 29.5314H22.6491V27.9314C22.6689 26.7583 23.0212 25.6114 23.6694 24.6093C24.3177 23.6071 25.2385 22.7859 26.3367 22.2306C27.8651 21.2018 28.5996 20.6402 28.5996 19.1314C28.5996 16.3474 25.9372 15.9314 24.3493 15.9314C23.1901 16.0418 22.066 16.3685 21.0426 16.8924C20.0191 17.4163 19.1169 18.1269 18.3886 18.9826L15.9999 16.7314C17.0293 15.5654 18.3008 14.6092 19.7364 13.9214C21.172 13.2336 22.7416 12.8287 24.3493 12.7314C28.9957 12.7314 31.9999 15.2434 31.9999 19.1314C31.9801 20.3046 31.6278 21.4514 30.9796 22.4536C30.3313 23.4558 29.4105 24.2769 28.3123 24.8322C26.7839 25.861 26.0494 26.4226 26.0494 27.9314V29.5314Z" fill="white"/>
<path d="M24.3493 36.7316C25.7577 36.7316 26.8995 35.6571 26.8995 34.3316C26.8995 33.0062 25.7577 31.9316 24.3493 31.9316C22.9408 31.9316 21.7991 33.0062 21.7991 34.3316C21.7991 35.6571 22.9408 36.7316 24.3493 36.7316Z" fill="white"/>
</svg>
