<svg width="24" height="25" viewBox="0 0 24 25" fill="none" xmlns="http://www.w3.org/2000/svg">
<path d="M9 23.7312H1C0.44775 23.7312 0 23.2839 0 22.7312V12.7312C0 7.68725 1.89014 4.34839 5.61768 2.80688C6.12793 2.59692 6.7124 2.83862 6.92432 3.34888C7.13526 3.85962 6.89258 4.44409 6.38233 4.65552C3.67383 5.77515 2.24365 8.09448 2.02881 11.7312H9C9.55225 11.7312 10 12.179 10 12.7312V22.7312C10 23.2839 9.55225 23.7312 9 23.7312Z" fill="#E0E2EB"/>
<path d="M23 23.7312H15C14.4477 23.7312 14 23.2839 14 22.7312V12.7312C14 7.68725 15.8901 4.34839 19.6177 2.80688C20.1265 2.59692 20.7124 2.83862 20.9243 3.34887C21.1353 3.85961 20.8926 4.44408 20.3823 4.65551C17.6738 5.77515 16.2437 8.09448 16.0288 11.7312H23C23.5522 11.7312 24 12.179 24 12.7312V22.7312C24 23.2839 23.5522 23.7312 23 23.7312Z" fill="#E0E2EB"/>
</svg>
