<svg fill="none" xmlns="http://www.w3.org/2000/svg" viewBox="0 0 40 41"><path d="M0 20.27a20 20 0 1140 0 20 20 0 01-40 0z" fill="#E2F8F9"/><g clip-path="url(#clip0)" fill-rule="evenodd" clip-rule="evenodd" fill="#06C3C6"><path d="M16.4 13.67a3 3 0 00-3 3v7.2a3 3 0 003 3h7.2a3 3 0 003-3v-7.2a3 3 0 00-3-3h-7.2zm-4.2 3a4.2 4.2 0 014.2-4.2h7.2a4.2 4.2 0 014.2 4.2v7.2a4.2 4.2 0 01-4.2 4.2h-7.2a4.2 4.2 0 01-4.2-4.2v-7.2z"/><path d="M20.37 17.98a2.28 2.28 0 10-.67 4.51 2.28 2.28 0 00.67-4.5zm-1.94-.83a3.48 3.48 0 113.2 6.18 3.48 3.48 0 01-3.2-6.18zM23.36 16.3c0-.32.27-.6.6-.6a.6.6 0 010 1.2.6.6 0 01-.6-.6z"/></g><defs><clipPath id="clip0"><path fill="#fff" transform="translate(12 12.27)" d="M0 0h16v16H0z"/></clipPath></defs></svg>