<svg fill="none" xmlns="http://www.w3.org/2000/svg" viewBox="0 0 16 20"><path fill-rule="evenodd" clip-rule="evenodd" d="M7.8 1.6a6.162 6.162 0 00-4.412 1.875A6.484 6.484 0 001.56 8c0 2.479 1.572 4.883 3.296 6.75A23.167 23.167 0 007.8 17.418a23.17 23.17 0 002.944-2.668c1.724-1.867 3.296-4.271 3.296-6.75a6.484 6.484 0 00-1.828-4.525A6.162 6.162 0 007.8 1.6zm0 16.8l-.433.666-.002-.002-.006-.004-.017-.012a8.827 8.827 0 01-.3-.216 24.745 24.745 0 01-3.318-2.981C1.938 13.916 0 11.12 0 8c0-2.123.822-4.158 2.285-5.658A7.702 7.702 0 017.8 0c2.069 0 4.053.843 5.515 2.343A8.105 8.105 0 0115.6 8c0 3.122-1.938 5.917-3.724 7.85a24.735 24.735 0 01-3.318 2.981 14.608 14.608 0 01-.3.217l-.017.012-.006.004-.001.001L7.8 18.4zm0 0l.433.666a.765.765 0 01-.866 0L7.8 18.4z" fill="#454754"/><path fill-rule="evenodd" clip-rule="evenodd" d="M7.8 6.299a1.5 1.5 0 100 3 1.5 1.5 0 000-3zm-3 1.5a3 3 0 116 0 3 3 0 01-6 0z" fill="#454754"/></svg>