<svg width="214" height="384" viewBox="0 0 214 384" fill="none" xmlns="http://www.w3.org/2000/svg">
<path d="M213.591 371.59C213.591 378.217 208.218 383.59 201.591 383.59L166.99 383.59C163.129 383.59 160 380.46 160 376.6V376.6C160 350.863 180.864 329.999 206.601 329.999V329.999C210.461 329.999 213.591 333.128 213.591 336.989L213.591 371.59Z" fill="#06C3C6"/>
<path d="M0 12C0 5.37259 5.37258 0 12 0L46.6008 0C50.4613 0 53.5909 3.12959 53.5909 6.99013V6.99013C53.5909 32.727 32.727 53.591 6.99012 53.591V53.591C3.12958 53.591 0 50.4614 0 46.6008L0 12Z" fill="#FAAA1E"/>
</svg>
