<svg width="20" height="16" viewBox="0 0 20 16" fill="none" xmlns="http://www.w3.org/2000/svg">
<path d="M18 0.5H2C1.20343 0.5 0.511742 0.971959 0.190754 1.65005C0.0976491 1.84674 0.19021 2.0721 0.373798 2.18893L8.92625 7.6314C9.58138 8.0483 10.4186 8.0483 11.0738 7.6314L19.6262 2.18893C19.8098 2.0721 19.9024 1.84675 19.8092 1.65006C19.4883 0.971961 18.7966 0.5 18 0.5Z" fill="#E2F8F9"/>
<path d="M20 5.06585C20 4.67131 19.5644 4.4322 19.2316 4.64402L10.5369 10.177C10.2093 10.3854 9.7907 10.3854 9.46313 10.177L0.768438 4.64401C0.435575 4.43219 0 4.6713 0 5.06584V13.5C0 14.6 0.9 15.5 2 15.5H18C19.1 15.5 20 14.6 20 13.5V5.06585Z" fill="#E2F8F9"/>
</svg>
