<svg width="14" height="11" viewBox="0 0 14 11" fill="none" xmlns="http://www.w3.org/2000/svg">
<path d="M12.6 0.0195312H1.4C0.881283 0.0195312 0.4261 0.305436 0.184252 0.727443C0.0760519 0.916245 0.170537 1.14379 0.354125 1.26062L5.92625 4.80652C6.58138 5.22342 7.41862 5.22342 8.07375 4.80652L13.6459 1.26063C13.8295 1.1438 13.9239 0.916248 13.8157 0.727446C13.5739 0.305437 13.1187 0.0195312 12.6 0.0195312Z" fill="#06C3C6"/>
<path d="M14 3.48888C14 3.09433 13.5644 2.85523 13.2316 3.06705L7.37582 6.79343C7.14652 6.93935 6.85349 6.93935 6.62419 6.79343L0.768438 3.06704C0.435575 2.85522 0 3.09433 0 3.48887V9.11953C0 9.88953 0.63 10.5195 1.4 10.5195H12.6C13.37 10.5195 14 9.88953 14 9.11953V3.48888Z" fill="#06C3C6"/>
</svg>
