<svg fill="none" xmlns="http://www.w3.org/2000/svg" viewBox="0 0 472 429"><path d="M221 26l-8-20c-2-4-7-7-12-6l-67 17-5 3-9 11-5 3-66 19c-4 1-7 5-7 9l-5 43-1 3-8 18c-2 3-2 7 0 10l10 18 1 3 21 106c0 3 2 5 4 7l43 33 3 4 7 20c2 4 6 7 10 7h4c3 0 6-1 8-4 3-4 9-5 14-2l72 47 4 4 1 4c3 5 8 7 14 5l7-3c4-1 9 0 12 3l10 12c3 3 7 5 11 4l31-9 4-1 57 6 4 1 17 8c7 4 14 0 15-8l2-13 2-5 54-77c2-3 2-6 1-9l-25-71-1-4 1-24c0-4-3-9-7-10-7-2-10-11-5-17l20-23c2-2 3-6 2-9l-28-96c-1-4-4-7-9-8l-139-8h-2l-46 5c-5 1-9-2-11-6z" fill="#F9F9FB"/><path d="M196 43l-8-20c-2-4-7-7-12-6l-67 17-6 3-9 11-5 3-65 19c-5 1-7 5-8 9l-4 43-1 3-9 18v10l11 18 1 3 20 106 4 7 43 33c2 1 3 2 3 4l8 20c1 4 5 7 10 7h3c3 0 6-2 8-4 4-4 10-5 14-2l73 47 3 4 2 4c2 5 8 7 13 5l8-3c4-1 8 0 11 3l11 12c2 3 6 5 10 3l32-8 3-1 58 6 3 1 18 8c6 4 14-1 15-8l1-13 2-5 54-77c2-3 3-6 2-10l-26-70v-4l1-24c0-5-3-9-8-10-7-2-9-11-4-17l19-23c2-2 3-6 2-9l-27-96c-1-4-5-7-9-8l-139-8h-2l-46 5c-5 1-10-2-11-6z" stroke="#06C3C6" stroke-width="2" stroke-miterlimit="10"/></svg>