<svg width="472" height="429" viewBox="0 0 472 429" fill="none" xmlns="http://www.w3.org/2000/svg">
<path d="M221.138 25.7802L213.254 6.48341C211.293 1.69844 206.116 -0.968596 201.057 0.3257L133.988 17.1123C131.949 17.6222 130.066 18.7596 128.694 20.3677L119.516 30.8789C118.222 32.3693 116.496 33.4675 114.613 34.0166L49.0355 53.2742C44.9565 54.4508 42.0149 58.0199 41.6227 62.2166L37.2692 104.968C37.1515 106.183 36.7985 107.399 36.2494 108.497L27.5816 126.186C26.0519 129.285 26.1696 132.893 27.8561 135.913L38.0928 153.994C38.6419 154.975 39.0341 156.073 39.2694 157.171L59.6252 263.421C60.0959 265.931 61.5078 268.167 63.5473 269.735L106.534 302.603C108.102 303.779 109.279 305.427 109.985 307.27L117.359 327.194C118.888 331.273 122.771 333.98 127.125 333.98H130.537C133.714 333.98 136.734 332.528 138.695 330.018C142.029 325.782 148.069 324.802 152.579 327.783L225.021 375.24C226.589 376.26 227.884 377.711 228.707 379.437L230.394 382.928C232.747 387.83 238.473 390.066 243.533 388.105L251.024 385.202C255.142 383.594 259.849 384.771 262.712 388.144L273.066 400.263C275.733 403.362 279.969 404.656 283.891 403.519L315.033 394.537C316.288 394.184 317.622 394.066 318.955 394.184L376.022 399.871C377.238 399.989 378.454 400.342 379.552 400.891L397.123 409.48C403.555 412.618 411.164 408.5 412.027 401.401L413.713 387.987C413.909 386.301 414.537 384.692 415.518 383.281L469.917 306.054C471.878 303.269 472.349 299.7 471.211 296.523L445.679 225.965C445.208 224.67 445.012 223.337 445.051 221.964L446.071 198.235C446.267 193.529 443.286 189.254 438.776 187.842C431.598 185.606 429.088 176.742 434.03 171.055L453.68 148.464C455.994 145.797 456.817 142.149 455.837 138.776L428.46 42.8806C427.245 38.6447 423.519 35.6247 419.087 35.3501L280.283 26.5254C279.656 26.4862 278.989 26.4862 278.361 26.5646L232.002 32.1732C227.374 32.7616 222.903 30.1337 221.138 25.7802Z" fill="#F9F9FB"/>
<path d="M195.629 42.7857L187.746 23.4889C185.785 18.704 180.608 16.0369 175.548 17.3312L108.519 34.1179C106.48 34.6277 104.597 35.7651 103.224 37.3732L94.0467 47.8845C92.7524 49.3749 91.0267 50.4731 89.1441 51.0222L23.5272 70.2405C19.4482 71.4171 16.5066 74.9863 16.1144 79.1829L11.7609 121.934C11.6432 123.15 11.2902 124.366 10.7411 125.464L2.07326 143.153C0.543634 146.251 0.661297 149.859 2.3478 152.879L12.5845 170.96C13.1336 171.941 13.5258 173.039 13.7611 174.137L34.1169 280.387C34.5875 282.897 35.9995 285.133 38.039 286.702L81.0253 319.569C82.5942 320.746 83.7708 322.393 84.4768 324.236L91.8503 344.161C93.38 348.24 97.2629 350.946 101.616 350.946H105.029C108.206 350.946 111.226 349.495 113.187 346.985C116.52 342.749 122.56 341.768 127.071 344.749L199.512 392.207C201.081 393.226 202.375 394.677 203.199 396.403L204.886 399.894C207.239 404.797 212.965 407.032 218.025 405.071L225.516 402.169C229.634 400.561 234.341 401.737 237.204 405.11L247.558 417.23C250.225 420.328 254.461 421.622 258.383 420.485L289.525 411.503C290.78 411.15 292.113 411.033 293.447 411.15L350.513 416.837C351.729 416.955 352.945 417.308 354.043 417.857L371.614 426.447C378.047 429.584 385.656 425.466 386.518 418.367L388.205 404.953C388.401 403.267 389.029 401.659 390.009 400.247L444.409 323.021C446.37 320.236 446.84 316.667 445.703 313.49L420.17 242.931C419.699 241.637 419.503 240.303 419.543 238.93L420.562 215.202C420.758 210.495 417.778 206.22 413.267 204.808C406.09 202.573 403.58 193.709 408.521 188.021L428.171 165.43C430.485 162.763 431.309 159.116 430.328 155.743L402.952 59.8469C401.736 55.611 398.01 52.591 393.578 52.3165L254.814 43.5309C254.186 43.4917 253.52 43.4917 252.892 43.5701L206.533 49.1788C201.866 49.7279 197.394 47.1393 195.629 42.7857Z" stroke="#06C3C6" stroke-width="2" stroke-miterlimit="10"/>
</svg>
