<svg width="144" height="137" viewBox="0 0 144 137" fill="none" xmlns="http://www.w3.org/2000/svg">
<circle cx="80" cy="64.5" r="64" fill="#E2F8F9"/>
<circle cx="72" cy="72.5" r="63" stroke="#06C3C6" stroke-width="2"/>
<path d="M94.0002 87C94.0002 82 91.2322 77.624 87.0002 76V65C87.0002 61.0218 85.4198 57.2064 82.6068 54.3934C79.7937 51.5804 75.9784 50 72.0002 50V50C68.0219 50 64.2066 51.5804 61.3936 54.3934C58.5805 57.2064 57.0002 61.0218 57.0002 65V76C54.8684 76.9249 53.0624 78.467 51.8148 80.4275C50.5672 82.388 49.9352 84.6771 50.0002 87" stroke="#06C3C6" stroke-width="2" stroke-miterlimit="10" stroke-linecap="round" stroke-linejoin="round"/>
<path d="M94 87C94 90.675 84.173 94 72 94C59.827 94 50 90.675 50 87C50 83.325 59.827 80 72 80C84.173 80 94 83.325 94 87Z" stroke="#06C3C6" stroke-width="2" stroke-miterlimit="10" stroke-linecap="round" stroke-linejoin="round"/>
<path d="M77.6593 85C77.2466 86.1713 76.4806 87.1857 75.467 87.9032C74.4534 88.6207 73.2422 89.0061 72.0003 89.0061C70.7584 89.0061 69.5472 88.6207 68.5336 87.9032C67.52 87.1857 66.754 86.1713 66.3413 85" stroke="#06C3C6" stroke-width="2" stroke-miterlimit="10" stroke-linecap="round" stroke-linejoin="round"/>
</svg>
