<svg fill="none" xmlns="http://www.w3.org/2000/svg" viewBox="0 0 96 16"><g clip-path="url(#clip0)"><path d="M15.1 5.4l-4.3-.6L9 1a1 1 0 00-1.8 0l-2 4-4.2.5a1 1 0 00-.6 1.7l3.1 3-.7 4.4a1 1 0 001.4 1l3.9-2 3.9 2a1 1 0 001.4-1l-.7-4.3 3.1-3a1 1 0 00-.6-1.8z" fill="#FAAA1E"/></g><g clip-path="url(#clip1)"><path d="M35.1 5.4l-4.3-.6L29 1a1 1 0 00-1.8 0l-2 4-4.2.5a1 1 0 00-.6 1.7l3.1 3-.7 4.4a1 1 0 001.4 1l3.9-2 3.9 2a1 1 0 001.4-1l-.7-4.3 3.1-3a1 1 0 00-.6-1.8z" fill="#FAAA1E"/></g><g clip-path="url(#clip2)"><path d="M55.1 5.4l-4.3-.6L49 1a1 1 0 00-1.8 0l-2 4-4.2.5a1 1 0 00-.6 1.7l3.1 3-.7 4.4a1 1 0 001.4 1l3.9-2 3.9 2a1 1 0 001.4-1l-.7-4.3 3.1-3a1 1 0 00-.6-1.8z" fill="#FAAA1E"/></g><g clip-path="url(#clip3)"><path d="M75.1 5.4l-4.3-.6L69 1a1 1 0 00-1.8 0l-2 4-4.2.5a1 1 0 00-.6 1.7l3.1 3-.7 4.4a1 1 0 001.4 1l3.9-2 3.9 2a1 1 0 001.4-1l-.7-4.3 3.1-3a1 1 0 00-.6-1.8z" fill="#FAAA1E"/></g><g clip-path="url(#clip4)"><path d="M95.1 5.4l-4.3-.6L89 1a1 1 0 00-1.8 0l-2 4-4.2.5a1 1 0 00-.6 1.7l3.1 3-.7 4.4a1 1 0 001.4 1l3.9-2 3.9 2a1 1 0 001.4-1l-.7-4.3 3.1-3a1 1 0 00-.6-1.8z" fill="#FAAA1E"/></g><defs><clipPath id="clip0"><path fill="#fff" d="M0 0h16v16H0z"/></clipPath><clipPath id="clip1"><path fill="#fff" transform="translate(20)" d="M0 0h16v16H0z"/></clipPath><clipPath id="clip2"><path fill="#fff" transform="translate(40)" d="M0 0h16v16H0z"/></clipPath><clipPath id="clip3"><path fill="#fff" transform="translate(60)" d="M0 0h16v16H0z"/></clipPath><clipPath id="clip4"><path fill="#fff" transform="translate(80)" d="M0 0h16v16H0z"/></clipPath></defs></svg>