<svg width="12" height="13" viewBox="0 0 12 13" fill="none" xmlns="http://www.w3.org/2000/svg">
<path d="M11.3581 4.34928L8.12031 3.87828L6.67506 0.945032C6.60638 0.826881 6.50789 0.728826 6.38944 0.660669C6.27099 0.592512 6.13672 0.556641 6.00006 0.556641C5.8634 0.556641 5.72913 0.592512 5.61068 0.660669C5.49222 0.728826 5.39374 0.826881 5.32506 0.945032L3.87981 3.87903L0.642059 4.34928C0.503411 4.36917 0.373101 4.42748 0.265891 4.51762C0.15868 4.60775 0.0788525 4.72611 0.0354503 4.85928C-0.00795185 4.99246 -0.0131943 5.13512 0.0203167 5.27112C0.0538277 5.40712 0.124753 5.53102 0.225059 5.62878L2.56731 7.91253L2.01456 11.1375C1.99093 11.2755 2.00635 11.4172 2.05909 11.5469C2.11184 11.6765 2.19979 11.7888 2.31301 11.871C2.42622 11.9532 2.56019 12.0022 2.69977 12.0122C2.83934 12.0223 2.97895 11.9932 3.10281 11.928L6.00006 10.4048L8.89581 11.9265C9.01967 11.9917 9.15928 12.0208 9.29885 12.0107C9.43842 12.0007 9.57239 11.9517 9.68561 11.8695C9.79883 11.7873 9.88678 11.675 9.93952 11.5454C9.99227 11.4157 10.0077 11.274 9.98406 11.136L9.43131 7.91103L11.7751 5.62878C11.8751 5.53109 11.9459 5.40737 11.9793 5.27159C12.0128 5.13581 12.0076 4.99338 11.9644 4.86038C11.9212 4.72739 11.8416 4.60912 11.7348 4.51894C11.6279 4.42876 11.4979 4.37025 11.3596 4.35003L11.3581 4.34928Z" fill="#FAAA1E"/>
</svg>
