<svg width="20" height="14" viewBox="0 0 20 14" fill="none" xmlns="http://www.w3.org/2000/svg">
<path d="M1 0C0.447715 0 0 0.447715 0 1C0 1.55228 0.447715 2 1 2H1.01C1.56228 2 2.01 1.55228 2.01 1C2.01 0.447715 1.56228 0 1.01 0H1Z" fill="#75798A"/>
<path d="M6 0C5.44772 0 5 0.447715 5 1C5 1.55228 5.44772 2 6 2H19C19.5523 2 20 1.55228 20 1C20 0.447715 19.5523 0 19 0H6Z" fill="#75798A"/>
<path d="M6 6C5.44772 6 5 6.44772 5 7C5 7.55228 5.44772 8 6 8H19C19.5523 8 20 7.55228 20 7C20 6.44772 19.5523 6 19 6H6Z" fill="#75798A"/>
<path d="M5 13C5 12.4477 5.44772 12 6 12H19C19.5523 12 20 12.4477 20 13C20 13.5523 19.5523 14 19 14H6C5.44772 14 5 13.5523 5 13Z" fill="#75798A"/>
<path d="M0 7C0 6.44772 0.447715 6 1 6H1.01C1.56228 6 2.01 6.44772 2.01 7C2.01 7.55228 1.56228 8 1.01 8H1C0.447715 8 0 7.55228 0 7Z" fill="#75798A"/>
<path d="M1 12C0.447715 12 0 12.4477 0 13C0 13.5523 0.447715 14 1 14H1.01C1.56228 14 2.01 13.5523 2.01 13C2.01 12.4477 1.56228 12 1.01 12H1Z" fill="#75798A"/>
</svg>
