<svg width="144" height="137" viewBox="0 0 144 137" fill="none" xmlns="http://www.w3.org/2000/svg">
<circle cx="80" cy="64.5" r="64" fill="#FFF7EB"/>
<circle cx="72" cy="73" r="63" stroke="#FAAA1E" stroke-width="2"/>
<path d="M93.0002 66.0003C92.6078 66.005 92.2177 66.0598 91.8393 66.1636C90.4185 62.0326 87.7434 58.4482 84.1873 55.9107C80.6312 53.3732 76.3717 52.0093 72.0031 52.0093C67.6345 52.0093 63.3749 53.3732 59.8188 55.9107C56.2628 58.4482 53.5876 62.0326 52.1668 66.1636C51.7866 66.0594 51.3945 66.0045 51.0002 66.0003C49.7625 66.0003 48.5755 66.492 47.7003 67.3672C46.8252 68.2423 46.3335 69.4293 46.3335 70.667C46.3335 71.9047 46.8252 73.0916 47.7003 73.9668C48.5755 74.842 49.7625 75.3336 51.0002 75.3336C51.0468 75.3336 51.0888 75.322 51.1343 75.3197C51.7047 80.4547 54.1487 85.1992 57.9985 88.645C61.8482 92.0908 66.8335 93.9961 72.0002 93.9961C77.1668 93.9961 82.1521 92.0908 86.0019 88.645C89.8516 85.1992 92.2956 80.4547 92.866 75.3197C92.9115 75.3197 92.9535 75.3336 93.0002 75.3336C94.2378 75.3336 95.4248 74.842 96.3 73.9668C97.1752 73.0916 97.6668 71.9047 97.6668 70.667C97.6668 69.4293 97.1752 68.2423 96.3 67.3672C95.4248 66.492 94.2378 66.0003 93.0002 66.0003V66.0003Z" stroke="#FAAA1E" stroke-width="2" stroke-miterlimit="10" stroke-linecap="round" stroke-linejoin="round"/>
<path d="M63.8337 70.6667C64.478 70.6667 65.0003 70.1444 65.0003 69.5C65.0003 68.8557 64.478 68.3334 63.8337 68.3334C63.1893 68.3334 62.667 68.8557 62.667 69.5C62.667 70.1444 63.1893 70.6667 63.8337 70.6667Z" stroke="#FAAA1E" stroke-width="2" stroke-miterlimit="10" stroke-linecap="round" stroke-linejoin="round"/>
<path d="M80.1667 70.6667C80.811 70.6667 81.3333 70.1444 81.3333 69.5C81.3333 68.8557 80.811 68.3334 80.1667 68.3334C79.5223 68.3334 79 68.8557 79 69.5C79 70.1444 79.5223 70.6667 80.1667 70.6667Z" stroke="#FAAA1E" stroke-width="2" stroke-miterlimit="10" stroke-linecap="round" stroke-linejoin="round"/>
<path d="M66.4595 83.2072C68.1496 84.1643 70.0588 84.6674 72.0011 84.6674C73.9435 84.6674 75.8527 84.1643 77.5428 83.2072" stroke="#FAAA1E" stroke-width="2" stroke-miterlimit="10" stroke-linecap="round" stroke-linejoin="round"/>
<path d="M72.0002 52C71.2327 51.9998 70.477 52.189 69.8 52.5507C69.1231 52.9124 68.5458 53.4354 68.1193 54.0735C67.6928 54.7116 67.4303 55.4451 67.355 56.2089C67.2797 56.9727 67.394 57.7433 67.6877 58.4524C67.9814 59.1615 68.4454 59.7872 69.0387 60.2741C69.632 60.761 70.3363 61.094 71.089 61.2437C71.8418 61.3934 72.6199 61.3551 73.3543 61.1322C74.0888 60.9094 74.7569 60.5088 75.2995 59.966" stroke="#FAAA1E" stroke-width="2" stroke-miterlimit="10" stroke-linecap="round" stroke-linejoin="round"/>
</svg>
